<svg version="1.1" xmlns="http://www.w3.org/2000/svg" viewBox="0 0 15746.969064430032 9993.974709063157" width="47240.9071932901" height="29981.92412718947" filter="invert(93%) hue-rotate(180deg)">
  <!-- svg-source:excalidraw -->
  
  <defs>
    <style class="style-fonts">
      @font-face {
        font-family: "Virgil";
        src: url("https://excalidraw.com/Virgil.woff2");
      }
      @font-face {
        font-family: "Cascadia";
        src: url("https://excalidraw.com/Cascadia.woff2");
      }
      @font-face {
        font-family: "Assistant";
        src: url("https://excalidraw.com/Assistant-Regular.woff2");
      }
    </style>
    
  </defs>
  <rect x="0" y="0" width="15746.969064430032" height="9993.974709063157" fill="#ffffff"></rect><g stroke-linecap="round" transform="translate(10 805.9656152346906) rotate(0 714.929341433412 224.93644237236276)"><path d="M32 0 C313.4 -4.65, 594.68 -4.57, 1397.86 0 M32 0 C522.36 3.1, 1012.8 2.68, 1397.86 0 M1397.86 0 C1420.7 0.03, 1430.43 9.37, 1429.86 32 M1397.86 0 C1421.46 1.01, 1427.73 9.14, 1429.86 32 M1429.86 32 C1428.24 114.6, 1429.45 196.11, 1429.86 417.87 M1429.86 32 C1430.96 170.95, 1431.07 310.92, 1429.86 417.87 M1429.86 417.87 C1430.72 438.4, 1420.15 449.42, 1397.86 449.87 M1429.86 417.87 C1428.84 439.95, 1419.66 450.49, 1397.86 449.87 M1397.86 449.87 C1122.55 454.2, 845.95 454.08, 32 449.87 M1397.86 449.87 C1025.62 450.46, 652.97 451.01, 32 449.87 M32 449.87 C11.18 451.47, 1.08 440.44, 0 417.87 M32 449.87 C12.45 451.71, -0.62 438.97, 0 417.87 M0 417.87 C-0.53 265.44, -1.63 113.24, 0 32 M0 417.87 C0.93 288.56, 1.22 159, 0 32 M0 32 C0.46 8.74, 10.72 -0.26, 32 0 M0 32 C-0.62 10.56, 8.94 2.2, 32 0" stroke="#1e1e1e" stroke-width="2" fill="none"></path></g><g transform="translate(529.0592242459124 944.5366548236016) rotate(0 195.8701171875 86.36540278345183)"><text x="195.8701171875" y="121.04974854128612" font-family="Virgil, Segoe UI Emoji" font-size="138.18464445352296px" fill="#1e1e1e" text-anchor="middle" style="white-space: pre;" direction="ltr" dominant-baseline="alphabetic">Start</text></g><g stroke-linecap="round" transform="translate(2344.7064659418093 411.4162515153803) rotate(0 944.8359375 764.3671875)"><path d="M945 0 C1321.01 301.84, 1697.37 605.23, 1889.67 765 M945 0 C1178.8 186.81, 1412.42 376.08, 1889.67 765 M1889.67 765 C1577.61 1018.96, 1266.3 1269.96, 945 1528.73 M1889.67 765 C1644.9 959.27, 1402.34 1155.42, 945 1528.73 M945 1528.73 C603.32 1252.71, 264.91 978.96, 0 765 M945 1528.73 C697.99 1329.7, 452.89 1131.38, 0 765 M0 765 C192.16 607.13, 382.56 452.41, 945 0 M0 765 C255.45 555.42, 512.85 347.39, 945 0" stroke="#1e1e1e" stroke-width="2" fill="none"></path></g><g transform="translate(2834.3019249261843 1044.6936473566057) rotate(0 455.322509765625 130.90619790877372)"><text x="455.322509765625" y="91.73906349446887" font-family="Virgil, Segoe UI Emoji" font-size="104.72495832701924px" fill="#1e1e1e" text-anchor="middle" style="white-space: pre;" direction="ltr" dominant-baseline="alphabetic">Understand Basic</text><text x="455.322509765625" y="222.64526140324293" font-family="Virgil, Segoe UI Emoji" font-size="104.72495832701924px" fill="#1e1e1e" text-anchor="middle" style="white-space: pre;" direction="ltr" dominant-baseline="alphabetic">Concepts</text></g><g stroke-linecap="round" transform="translate(5449.870419922305 692.1715596742306) rotate(0 1877.0942527647235 406.6254886579045)"><path d="M0 0 C1455.35 -14.84, 2909.34 -14.59, 3754.19 0 M0 0 C1329.78 7.95, 2659.08 7.69, 3754.19 0 M3754.19 0 C3755.08 323.41, 3755.27 647.57, 3754.19 813.25 M3754.19 0 C3757.52 200.48, 3757.4 400.71, 3754.19 813.25 M3754.19 813.25 C2783.08 810.07, 1810.56 810.11, 0 813.25 M3754.19 813.25 C2713.86 818.24, 1672.98 818.08, 0 813.25 M0 813.25 C-2.79 502.09, -3.15 192.11, 0 0 M0 813.25 C-1.42 555.49, -1.22 297.66, 0 0" stroke="#1e1e1e" stroke-width="2" fill="none"></path></g><g transform="translate(5954.215649249529 1012.4316455486842) rotate(0 1372.7490234375 86.36540278345183)"><text x="1372.7490234375" y="121.04974854128612" font-family="Virgil, Segoe UI Emoji" font-size="138.18464445352296px" fill="#1e1e1e" text-anchor="middle" style="white-space: pre;" direction="ltr" dominant-baseline="alphabetic">Data Types, Variables, Loops, Functions</text></g><g stroke-linecap="round" transform="translate(9246.70545944299 10) rotate(0 1209.3045632869148 872.3422540410338)"><path d="M1210 0 C1692.02 348.26, 2173.26 695.48, 2418.61 873 M1210 0 C1511.39 215.38, 1810.3 431.53, 2418.61 873 M2418.61 873 C2165.26 1048.84, 1914.5 1231.04, 1210 1744.68 M2418.61 873 C2000.28 1180.33, 1578.18 1484.02, 1210 1744.68 M1210 1744.68 C872.67 1506.1, 538.19 1264.3, 0 873 M1210 1744.68 C806.54 1456.07, 404.91 1166.63, 0 873 M0 873 C337.24 631.39, 675.7 387.16, 1210 0 M0 873 C257.74 685.67, 514.7 500.28, 1210 0" stroke="#1e1e1e" stroke-width="2" fill="none"></path></g><g transform="translate(9857.607496945822 709.4403214536142) rotate(0 598.250244140625 172.73080556690365)"><text x="598.250244140625" y="121.04974854128612" font-family="Virgil, Segoe UI Emoji" font-size="138.18464445352296px" fill="#1e1e1e" text-anchor="middle" style="white-space: pre;" direction="ltr" dominant-baseline="alphabetic">Learn Complexity </text><text x="598.250244140625" y="293.78055410818985" font-family="Virgil, Segoe UI Emoji" font-size="138.18464445352296px" fill="#1e1e1e" text-anchor="middle" style="white-space: pre;" direction="ltr" dominant-baseline="alphabetic">Analysis</text></g><g stroke-linecap="round" transform="translate(6316.771999576441 2834.307872493613) rotate(0 1038.232077753938 821.074662837018)"><path d="M1039 0 C1384.88 272.51, 1731.95 548.48, 2076.46 822 M1039 0 C1392.25 285.16, 1748.91 567.7, 2076.46 822 M2076.46 822 C1672.43 1147.26, 1266.32 1467.51, 1039 1642.15 M2076.46 822 C1818.88 1027.84, 1561.92 1231.06, 1039 1642.15 M1039 1642.15 C772.4 1432.44, 506.32 1224.11, 0 822 M1039 1642.15 C634.1 1322.77, 229.11 1002.91, 0 822 M0 822 C357.31 543.04, 711.61 263.17, 1039 0 M0 822 C372.98 521.45, 749.11 224.5, 1039 0" stroke="#1e1e1e" stroke-width="2" fill="none"></path></g><g transform="translate(6926.56528454716 3536.4241091686818) rotate(0 428.32275390625 118.92109474344034)"><text x="428.32275390625" y="83.33990319620331" font-family="Virgil, Segoe UI Emoji" font-size="95.13687579475263px" fill="#1e1e1e" text-anchor="middle" style="white-space: pre;" direction="ltr" dominant-baseline="alphabetic">Data Structures </text><text x="428.32275390625" y="202.26099793964408" font-family="Virgil, Segoe UI Emoji" font-size="95.13687579475263px" fill="#1e1e1e" text-anchor="middle" style="white-space: pre;" direction="ltr" dominant-baseline="alphabetic">Basics</text></g><g stroke-linecap="round" transform="translate(714.8330319885445 4771.844823030691) rotate(0 517.0629149118295 268.396160072205)"><path d="M0 0 C387.71 -0.4, 776.81 -1.92, 1034.13 0 M0 0 C241.1 1.57, 483.24 1.98, 1034.13 0 M1034.13 0 C1035.93 209, 1035.01 418.48, 1034.13 536.79 M1034.13 0 C1035.24 197.77, 1034.87 395.85, 1034.13 536.79 M1034.13 536.79 C702.66 533.4, 372.16 532.58, 0 536.79 M1034.13 536.79 C705.11 535.73, 375.65 535.31, 0 536.79 M0 536.79 C-0.4 388.2, -0.54 239.35, 0 0 M0 536.79 C0.96 333.1, 0.55 129.22, 0 0" stroke="#1e1e1e" stroke-width="2" fill="none"></path></g><g transform="translate(842.1218990488114 4887.743164880052) rotate(0 389.7740478515625 152.4978182228433)"><text x="389.7740478515625" y="213.74094202113776" font-family="Virgil, Segoe UI Emoji" font-size="243.9965091565499px" fill="#1e1e1e" text-anchor="middle" style="white-space: pre;" direction="ltr" dominant-baseline="alphabetic">Arrays</text></g><g stroke-linecap="round" transform="translate(2359.0411456124484 4769.023484855659) rotate(0 891.1591252397429 268.396160072205)"><path d="M0 0 C586.04 -7.77, 1170.85 -7.74, 1782.32 0 M0 0 C458.01 4.03, 915.64 4.08, 1782.32 0 M1782.32 0 C1783.22 192.59, 1784.19 385.91, 1782.32 536.79 M1782.32 0 C1783.17 139.5, 1783.43 278.85, 1782.32 536.79 M1782.32 536.79 C1422.85 542.49, 1062.09 542.37, 0 536.79 M1782.32 536.79 C1296.54 537.67, 810.34 538.21, 0 536.79 M0 536.79 C-1.23 362.47, -1.08 186.7, 0 0 M0 536.79 C-2.08 381.46, -1.97 225.57, 0 0" stroke="#1e1e1e" stroke-width="2" fill="none"></path></g><g transform="translate(2535.67555161391 4884.92182670502) rotate(0 714.5247192382812 152.4978182228433)"><text x="714.5247192382812" y="213.74094202113776" font-family="Virgil, Segoe UI Emoji" font-size="243.9965091565499px" fill="#1e1e1e" text-anchor="middle" style="white-space: pre;" direction="ltr" dominant-baseline="alphabetic">Linked Lists</text></g><g stroke-linecap="round" transform="translate(4754.172007158342 4769.023484855659) rotate(0 519.5886600261451 268.396160072205)"><path d="M0 0 C413.63 3.14, 827.98 3.17, 1039.18 0 M0 0 C256.22 -1.79, 511.96 -1.79, 1039.18 0 M1039.18 0 C1038.6 139.28, 1037.73 278.25, 1039.18 536.79 M1039.18 0 C1038.31 148.87, 1037.84 297.46, 1039.18 536.79 M1039.18 536.79 C642.08 535.65, 244.46 536.56, 0 536.79 M1039.18 536.79 C709.47 533.34, 380.04 533.47, 0 536.79 M0 536.79 C-0.68 346.44, -1.4 157.28, 0 0 M0 536.79 C0.24 349.74, 0.41 163.2, 0 0" stroke="#1e1e1e" stroke-width="2" fill="none"></path></g><g transform="translate(4862.393540719644 4884.92182670502) rotate(0 411.36712646484375 152.4978182228433)"><text x="411.36712646484375" y="213.74094202113776" font-family="Virgil, Segoe UI Emoji" font-size="243.9965091565499px" fill="#1e1e1e" text-anchor="middle" style="white-space: pre;" direction="ltr" dominant-baseline="alphabetic">Stacks</text></g><g stroke-linecap="round" transform="translate(6403.340600102007 4769.023484855659) rotate(0 589.3087562949015 268.396160072205)"><path d="M0 0 C244.11 3.51, 488.49 4.91, 1178.62 0 M0 0 C411.47 -2.62, 822.31 -3.08, 1178.62 0 M1178.62 0 C1179.77 148.83, 1179.91 296.54, 1178.62 536.79 M1178.62 0 C1178.66 178.44, 1179.38 357.35, 1178.62 536.79 M1178.62 536.79 C849.06 535.75, 520.08 535.45, 0 536.79 M1178.62 536.79 C928.53 539.39, 678.45 539.31, 0 536.79 M0 536.79 C-1.8 334.84, -1.33 131.31, 0 0 M0 536.79 C-0.22 349.97, -0.71 162.46, 0 0" stroke="#1e1e1e" stroke-width="2" fill="none"></path></g><g transform="translate(6568.350741894955 4884.92182670502) rotate(0 424.2986145019531 152.4978182228433)"><text x="424.2986145019531" y="213.74094202113776" font-family="Virgil, Segoe UI Emoji" font-size="243.9965091565499px" fill="#1e1e1e" text-anchor="middle" style="white-space: pre;" direction="ltr" dominant-baseline="alphabetic">Queues</text></g><g stroke-linecap="round" transform="translate(8191.949385583187 4769.023484855659) rotate(0 450.63105284850303 268.396160072205)"><path d="M0 0 C189.98 3.77, 381.22 3.76, 901.26 0 M0 0 C325.1 -2.43, 650.43 -1.94, 901.26 0 M901.26 0 C900.21 183.81, 900.66 368.49, 901.26 536.79 M901.26 0 C899.49 175.8, 899.08 350.95, 901.26 536.79 M901.26 536.79 C662.87 539.91, 423.5 539.4, 0 536.79 M901.26 536.79 C587.6 539.93, 273.82 540, 0 536.79 M0 536.79 C0.61 390.06, 0.61 243.62, 0 0 M0 536.79 C-1.61 399.85, -1.66 263.83, 0 0" stroke="#1e1e1e" stroke-width="2" fill="none"></path></g><g transform="translate(8292.332788285206 4884.92182670502) rotate(0 350.2476501464844 152.4978182228433)"><text x="350.2476501464844" y="213.74094202113776" font-family="Virgil, Segoe UI Emoji" font-size="243.9965091565499px" fill="#1e1e1e" text-anchor="middle" style="white-space: pre;" direction="ltr" dominant-baseline="alphabetic">Trees</text></g><g stroke-linecap="round" transform="translate(9703.202764171567 4769.023484855659) rotate(0 564.0513051517432 268.396160072205)"><path d="M0 0 C243.74 -3.41, 487.19 -3.65, 1128.1 0 M0 0 C407.7 2.63, 815.77 2.2, 1128.1 0 M1128.1 0 C1127.87 187.02, 1127.83 372.93, 1128.1 536.79 M1128.1 0 C1129.79 153.05, 1129.73 305.84, 1128.1 536.79 M1128.1 536.79 C701.71 538.45, 277.11 538.84, 0 536.79 M1128.1 536.79 C699.66 539.89, 270.48 539.53, 0 536.79 M0 536.79 C-0.65 324.55, -1.4 112.47, 0 0 M0 536.79 C0.99 356.77, 1.18 176.58, 0 0" stroke="#1e1e1e" stroke-width="2" fill="none"></path></g><g transform="translate(9850.519145006903 4884.92182670502) rotate(0 416.73492431640625 152.4978182228433)"><text x="416.73492431640625" y="213.74094202113776" font-family="Virgil, Segoe UI Emoji" font-size="243.9965091565499px" fill="#1e1e1e" text-anchor="middle" style="white-space: pre;" direction="ltr" dominant-baseline="alphabetic">Graphs</text></g><g stroke-linecap="round" transform="translate(11441.296647366422 4769.023484855659) rotate(0 884.1537567151308 268.396160072205)"><path d="M0 0 C692.7 -5.89, 1384.92 -6.69, 1768.31 0 M0 0 C438.19 -5.01, 876.22 -4.94, 1768.31 0 M1768.31 0 C1769.22 136.51, 1768.89 275.25, 1768.31 536.79 M1768.31 0 C1767.72 209.36, 1768.18 419, 1768.31 536.79 M1768.31 536.79 C1166.14 535.42, 563.84 535.64, 0 536.79 M1768.31 536.79 C1128.88 542.4, 490.06 542.63, 0 536.79 M0 536.79 C-1.4 380.01, -0.75 221.72, 0 0 M0 536.79 C1.43 429.08, 1.61 320.81, 0 0" stroke="#1e1e1e" stroke-width="2" fill="none"></path></g><g transform="translate(11582.866846952646 4884.92182670502) rotate(0 742.5835571289062 152.4978182228433)"><text x="742.5835571289062" y="213.74094202113776" font-family="Virgil, Segoe UI Emoji" font-size="243.9965091565499px" fill="#1e1e1e" text-anchor="middle" style="white-space: pre;" direction="ltr" dominant-baseline="alphabetic">Hash Tables</text></g><g stroke-linecap="round"><g transform="translate(1440.858682866824 1043.0269481040268) rotate(0 453.48096674790577 70.36269269906734)"><path d="M0.31 0.96 C151.62 24.44, 756.35 118.01, 907.61 141.46 M-0.99 0.42 C150.25 23.51, 755.57 116.49, 907.01 139.73" stroke="#1e1e1e" stroke-width="2" fill="none"></path></g><g transform="translate(1440.858682866824 1043.0269481040268) rotate(0 453.48096674790577 70.36269269906734)"><path d="M882.49 144.62 C890.87 144.28, 897.31 143.39, 907.01 139.73 M882.49 144.62 C892.77 143.27, 901.06 141.41, 907.01 139.73" stroke="#1e1e1e" stroke-width="2" fill="none"></path></g><g transform="translate(1440.858682866824 1043.0269481040268) rotate(0 453.48096674790577 70.36269269906734)"><path d="M885.08 127.71 C892.83 132.08, 898.55 135.88, 907.01 139.73 M885.08 127.71 C894.34 132.78, 901.63 137.35, 907.01 139.73" stroke="#1e1e1e" stroke-width="2" fill="none"></path></g></g><mask></mask><g stroke-linecap="round"><g transform="translate(4229.424605881855 1181.0772469300919) rotate(0 672.3652201561773 24.574558871371664)"><path d="M0.65 0.74 C224.88 7.17, 1148.22 31.48, 1345.66 39.53 C1543.11 47.58, 1211.79 47.33, 1185.31 49.03 M-0.47 0.08 C223.65 6.1, 1147.73 29.54, 1345.2 37.91 C1542.68 46.28, 1211.25 48.68, 1184.38 50.28" stroke="#1e1e1e" stroke-width="2" fill="none"></path></g><g transform="translate(4229.424605881855 1181.0772469300919) rotate(0 672.3652201561773 24.574558871371664)"><path d="M1207.68 41.23 C1201.39 45.86, 1194.16 46.72, 1184.38 50.28 M1207.68 41.23 C1200.95 44.45, 1194.49 46.13, 1184.38 50.28" stroke="#1e1e1e" stroke-width="2" fill="none"></path></g><g transform="translate(4229.424605881855 1181.0772469300919) rotate(0 672.3652201561773 24.574558871371664)"><path d="M1208.05 58.33 C1201.5 57.38, 1194.15 52.67, 1184.38 50.28 M1208.05 58.33 C1201.04 56.59, 1194.48 53.32, 1184.38 50.28" stroke="#1e1e1e" stroke-width="2" fill="none"></path></g></g><mask></mask><g stroke-linecap="round"><g transform="translate(9207.511382428022 990.4941779265991) rotate(0 67.52227793216025 -6.246051094460199)"><path d="M0.93 0.96 C23.28 -1.27, 112.18 -10.47, 134.72 -12.62 M-0.04 0.42 C22.06 -1.68, 110.93 -8.75, 133.61 -11.14" stroke="#1e1e1e" stroke-width="2" fill="none"></path></g><g transform="translate(9207.511382428022 990.4941779265991) rotate(0 67.52227793216025 -6.246051094460199)"><path d="M110.99 -0.5 C120.53 -4.98, 126.74 -6.3, 133.61 -11.14 M110.99 -0.5 C119.09 -4.77, 127.38 -7.66, 133.61 -11.14" stroke="#1e1e1e" stroke-width="2" fill="none"></path></g><g transform="translate(9207.511382428022 990.4941779265991) rotate(0 67.52227793216025 -6.246051094460199)"><path d="M109.44 -17.53 C119.63 -15.99, 126.39 -11.28, 133.61 -11.14 M109.44 -17.53 C118.07 -15.88, 126.9 -12.84, 133.61 -11.14" stroke="#1e1e1e" stroke-width="2" fill="none"></path></g></g><mask></mask><g stroke-linecap="round"><g transform="translate(1755.0602995192912 5038.8583667750045) rotate(0 272.7116044368772 -0.26332791023833124)"><path d="M0.77 0.43 C91.51 0.23, 454.08 -1.62, 544.71 -1.72 M-0.29 -0.39 C90.82 -0.44, 455.83 -0.49, 547.05 -0.8" stroke="#1e1e1e" stroke-width="2" fill="none"></path></g><g transform="translate(1755.0602995192912 5038.8583667750045) rotate(0 272.7116044368772 -0.26332791023833124)"><path d="M523.57 7.78 C531.88 3.68, 536.75 0.68, 547.05 -0.8 M523.57 7.78 C531.63 3.91, 539.24 1.89, 547.05 -0.8" stroke="#1e1e1e" stroke-width="2" fill="none"></path></g><g transform="translate(1755.0602995192912 5038.8583667750045) rotate(0 272.7116044368772 -0.26332791023833124)"><path d="M523.55 -9.32 C531.79 -7.91, 536.66 -5.4, 547.05 -0.8 M523.55 -9.32 C531.58 -7.5, 539.19 -3.83, 547.05 -0.8" stroke="#1e1e1e" stroke-width="2" fill="none"></path></g></g><mask></mask><g stroke-linecap="round"><g transform="translate(4147.463883755396 5037.414688748779) rotate(0 274.0767680699598 0)"><path d="M-0.71 -1.19 C90.38 -1.2, 455.87 0.15, 547.3 0.39 M1.12 0.8 C92.52 0.39, 458.59 -1.68, 549.57 -1.52" stroke="#1e1e1e" stroke-width="2" fill="none"></path></g><g transform="translate(4147.463883755396 5037.414688748779) rotate(0 274.0767680699598 0)"><path d="M526.1 7.09 C532.63 2.67, 543.81 0.52, 549.57 -1.52 M526.1 7.09 C533.67 4.41, 540.95 1.71, 549.57 -1.52" stroke="#1e1e1e" stroke-width="2" fill="none"></path></g><g transform="translate(4147.463883755396 5037.414688748779) rotate(0 274.0767680699598 0)"><path d="M526.06 -10.01 C532.66 -8.2, 543.86 -4.13, 549.57 -1.52 M526.06 -10.01 C533.68 -7.18, 540.97 -4.36, 549.57 -1.52" stroke="#1e1e1e" stroke-width="2" fill="none"></path></g></g><mask></mask><g stroke-linecap="round"><g transform="translate(5799.445427494095 5037.414688748779) rotate(0 272.66609898244343 0)"><path d="M-0.85 0.39 C90.11 0.64, 453.99 0.53, 545.07 0.27 M0.9 -0.45 C91.75 -0.48, 453.3 -1.71, 543.98 -1.71" stroke="#1e1e1e" stroke-width="2" fill="none"></path></g><g transform="translate(5799.445427494095 5037.414688748779) rotate(0 272.66609898244343 0)"><path d="M520.51 6.88 C526.9 4.54, 532.34 3.37, 543.98 -1.71 M520.51 6.88 C525.02 5.11, 529.32 4.37, 543.98 -1.71" stroke="#1e1e1e" stroke-width="2" fill="none"></path></g><g transform="translate(5799.445427494095 5037.414688748779) rotate(0 272.66609898244343 0)"><path d="M520.47 -10.22 C526.7 -8.44, 532.16 -5.49, 543.98 -1.71 M520.47 -10.22 C524.99 -8.5, 529.3 -5.77, 543.98 -1.71" stroke="#1e1e1e" stroke-width="2" fill="none"></path></g></g><mask></mask><g stroke-linecap="round"><g transform="translate(7588.061837866167 5037.414688748779) rotate(0 272.6660989824461 0)"><path d="M-0.26 0.27 C90.81 0.01, 454.67 -1.09, 545.61 -1.16 M1.8 -0.63 C92.82 -0.82, 454.34 -0.51, 544.81 -0.22" stroke="#1e1e1e" stroke-width="2" fill="none"></path></g><g transform="translate(7588.061837866167 5037.414688748779) rotate(0 272.6660989824461 0)"><path d="M521.3 8.28 C527.11 6.85, 530.12 4.49, 544.81 -0.22 M521.3 8.28 C527.32 6.81, 535.8 3.78, 544.81 -0.22" stroke="#1e1e1e" stroke-width="2" fill="none"></path></g><g transform="translate(7588.061837866167 5037.414688748779) rotate(0 272.6660989824461 0)"><path d="M521.33 -8.82 C527.19 -6.34, 530.19 -4.78, 544.81 -0.22 M521.33 -8.82 C527.3 -5.38, 535.77 -3.5, 544.81 -0.22" stroke="#1e1e1e" stroke-width="2" fill="none"></path></g></g><mask></mask><g stroke-linecap="round"><g transform="translate(9099.315216454548 5037.414688748779) rotate(0 272.6660989824461 0)"><path d="M0.28 -1.16 C91.21 -1.23, 454.57 -0.34, 545.36 -0.15 M-1.04 0.85 C89.77 0.95, 453.58 1.24, 544.43 1.3" stroke="#1e1e1e" stroke-width="2" fill="none"></path></g><g transform="translate(9099.315216454548 5037.414688748779) rotate(0 272.6660989824461 0)"><path d="M520.93 9.84 C525.52 7.46, 533.72 4.5, 544.43 1.3 M520.93 9.84 C528.91 7.46, 534.85 4.39, 544.43 1.3" stroke="#1e1e1e" stroke-width="2" fill="none"></path></g><g transform="translate(9099.315216454548 5037.414688748779) rotate(0 272.6660989824461 0)"><path d="M520.94 -7.27 C525.57 -4.89, 533.77 -3.1, 544.43 1.3 M520.94 -7.27 C528.79 -4.59, 534.72 -2.62, 544.43 1.3" stroke="#1e1e1e" stroke-width="2" fill="none"></path></g></g><mask></mask><g stroke-linecap="round"><g transform="translate(10837.399949780322 5037.414688748779) rotate(0 272.6660989824436 0)"><path d="M0.03 -0.15 C90.82 0.03, 454.27 -0.27, 545.01 -0.06 M-1.41 -1.28 C89.16 -0.8, 452.51 1.33, 543.89 1.45" stroke="#1e1e1e" stroke-width="2" fill="none"></path></g><g transform="translate(10837.399949780322 5037.414688748779) rotate(0 272.6660989824436 0)"><path d="M520.36 9.91 C527.79 6.63, 535.55 2.93, 543.89 1.45 M520.36 9.91 C529.57 6.29, 537.99 3.54, 543.89 1.45" stroke="#1e1e1e" stroke-width="2" fill="none"></path></g><g transform="translate(10837.399949780322 5037.414688748779) rotate(0 272.6660989824436 0)"><path d="M520.43 -7.19 C527.67 -4.95, 535.41 -3.12, 543.89 1.45 M520.43 -7.19 C529.77 -4.05, 538.17 -0.03, 543.89 1.45" stroke="#1e1e1e" stroke-width="2" fill="none"></path></g></g><mask></mask><g stroke-linecap="round" transform="translate(5499.790446841319 2307.692064356743) rotate(0 754.8100940962013 163.22098099250525)"><path d="M0 0 C598.88 -2.24, 1197.78 -3.57, 1509.62 0 M0 0 C600.18 4.75, 1199.85 4.83, 1509.62 0 M1509.62 0 C1508.88 117.63, 1510.81 232.81, 1509.62 326.44 M1509.62 0 C1509.27 69.64, 1509.46 139.82, 1509.62 326.44 M1509.62 326.44 C1157.8 331.72, 805.68 332.27, 0 326.44 M1509.62 326.44 C1193.75 324.4, 877.63 324.59, 0 326.44 M0 326.44 C-2.12 210.8, -1 93.43, 0 0 M0 326.44 C-0.68 233.87, -0.12 140.22, 0 0" stroke="#1e1e1e" stroke-width="2" fill="none"></path></g><g transform="translate(5686.898636640645 2378.1738516035057) rotate(0 567.701904296875 92.73919374574143)"><text x="567.701904296875" y="129.98325395403165" font-family="Virgil, Segoe UI Emoji" font-size="148.3827099931868px" fill="#1e1e1e" text-anchor="middle" style="white-space: pre;" direction="ltr" dominant-baseline="alphabetic">Time Complexity</text></g><g stroke-linecap="round" transform="translate(7834.9065594224885 2291.574686138585) rotate(0 792.3115055671356 163.22098099250525)"><path d="M0 0 C554.6 -6.58, 1108.87 -6.78, 1584.62 0 M0 0 C357.95 -4.13, 716.5 -4.41, 1584.62 0 M1584.62 0 C1583.32 123.5, 1581.45 246.92, 1584.62 326.44 M1584.62 0 C1585.11 94.5, 1584.39 189.62, 1584.62 326.44 M1584.62 326.44 C961.65 323.97, 338.38 323.54, 0 326.44 M1584.62 326.44 C1161.79 325.77, 738.73 325.78, 0 326.44 M0 326.44 C1.95 232.89, 1.93 141.69, 0 0 M0 326.44 C1.9 227.86, 2.1 129.78, 0 0" stroke="#1e1e1e" stroke-width="2" fill="none"></path></g><g transform="translate(8013.963548388061 2362.056473385348) rotate(0 613.2545166015625 92.73919374574143)"><text x="613.2545166015625" y="129.98325395403165" font-family="Virgil, Segoe UI Emoji" font-size="148.3827099931868px" fill="#1e1e1e" text-anchor="middle" style="white-space: pre;" direction="ltr" dominant-baseline="alphabetic">Space Complexity</text></g><g stroke-linecap="round"><g transform="translate(7013.123448655329 2465.0694222907478) rotate(0 393.08725312028383 -2.691345813798762)"><path d="M-0.86 1.17 C129.78 -0.01, 653.75 -5.32, 785 -6.27 M0.89 0.74 C131.78 -0.39, 656.22 -4.01, 787.1 -5.2" stroke="#1e1e1e" stroke-width="2" fill="none"></path></g><g transform="translate(7013.123448655329 2465.0694222907478) rotate(0 393.08725312028383 -2.691345813798762)"><path d="M763.68 3.54 C774.81 -1.69, 780.63 -2.37, 787.1 -5.2 M763.68 3.54 C772.97 0.3, 781.88 -4.05, 787.1 -5.2" stroke="#1e1e1e" stroke-width="2" fill="none"></path></g><g transform="translate(7013.123448655329 2465.0694222907478) rotate(0 393.08725312028383 -2.691345813798762)"><path d="M763.54 -13.56 C774.85 -12.04, 780.72 -5.97, 787.1 -5.2 M763.54 -13.56 C772.81 -10.46, 781.77 -8.47, 787.1 -5.2" stroke="#1e1e1e" stroke-width="2" fill="none"></path></g></g><mask></mask><g stroke-linecap="round" transform="translate(7241.685030988071 5456.18452178999) rotate(0 662.2217286710107 531.5771974210111)"><path d="M663 0 C804.84 116.01, 949.43 232.21, 1324.44 532 M663 0 C909.22 199.2, 1153.99 395.65, 1324.44 532 M1324.44 532 C1073.81 731.46, 823.34 931.55, 663 1063.15 M1324.44 532 C1183.02 641.63, 1043.31 754.36, 663 1063.15 M663 1063.15 C410.53 860.25, 157.23 657.61, 0 532 M663 1063.15 C473.32 911.26, 286.25 760.81, 0 532 M0 532 C204.13 365.94, 408.87 201.3, 663 0 M0 532 C154.75 404.91, 311.42 279.51, 663 0" stroke="#1e1e1e" stroke-width="2" fill="none"></path></g><g transform="translate(7623.251034483733 5857.066922591721) rotate(0 280.54486083984375 130.90619790877372)"><text x="280.54486083984375" y="91.73906349446887" font-family="Virgil, Segoe UI Emoji" font-size="104.72495832701924px" fill="#1e1e1e" text-anchor="middle" style="white-space: pre;" direction="ltr" dominant-baseline="alphabetic">Algorithms </text><text x="280.54486083984375" y="222.64526140324293" font-family="Virgil, Segoe UI Emoji" font-size="104.72495832701924px" fill="#1e1e1e" text-anchor="middle" style="white-space: pre;" direction="ltr" dominant-baseline="alphabetic">Basics</text></g><g stroke-linecap="round" transform="translate(2016.981562880349 6620.513483801278) rotate(0 528.4744802319665 248.94348215677746)"><path d="M0 0 C303.09 1.98, 607.16 2.9, 1056.95 0 M0 0 C236.41 -2.6, 473.76 -2.49, 1056.95 0 M1056.95 0 C1057.27 124.11, 1056.91 248.55, 1056.95 497.89 M1056.95 0 C1055.79 104.94, 1056.12 209.73, 1056.95 497.89 M1056.95 497.89 C712.58 496.48, 366.73 496.9, 0 497.89 M1056.95 497.89 C817.77 500.45, 578.32 500.53, 0 497.89 M0 497.89 C0.32 308.67, -0.48 121.23, 0 0 M0 497.89 C-0.93 321.04, -1.53 144.07, 0 0" stroke="#1e1e1e" stroke-width="2" fill="none"></path></g><g transform="translate(2167.065753805675 6728.011805641705) rotate(0 378.3902893066406 141.44516031635067)"><text x="378.3902893066406" y="198.24953669939757" font-family="Virgil, Segoe UI Emoji" font-size="226.31225650616162px" fill="#1e1e1e" text-anchor="middle" style="white-space: pre;" direction="ltr" dominant-baseline="alphabetic">Sorting</text></g><g stroke-linecap="round" transform="translate(3639.711164609683 6620.513483801278) rotate(0 695.2913661800628 248.94348215677746)"><path d="M0 0 C341.11 2.97, 680.49 2.02, 1390.58 0 M0 0 C492.75 4.1, 984.68 4.43, 1390.58 0 M1390.58 0 C1389 157.63, 1388.99 315.75, 1390.58 497.89 M1390.58 0 C1390.9 101.47, 1390.67 203.45, 1390.58 497.89 M1390.58 497.89 C1030.01 500.86, 669.12 499.63, 0 497.89 M1390.58 497.89 C888.45 497.67, 386.56 497.61, 0 497.89 M0 497.89 C-1.21 343.71, -0.25 188.5, 0 0 M0 497.89 C-2.14 348.03, -1.84 197.33, 0 0" stroke="#1e1e1e" stroke-width="2" fill="none"></path></g><g transform="translate(3833.1601235631833 6728.011805641705) rotate(0 501.8424072265625 141.44516031635067)"><text x="501.8424072265625" y="198.24953669939757" font-family="Virgil, Segoe UI Emoji" font-size="226.31225650616162px" fill="#1e1e1e" text-anchor="middle" style="white-space: pre;" direction="ltr" dominant-baseline="alphabetic">Searching</text></g><g stroke-linecap="round" transform="translate(5596.074538235216 6620.513483801278) rotate(0 691.7110355595553 248.94348215677746)"><path d="M0 0 C354.72 -4.3, 711.09 -4.56, 1383.42 0 M0 0 C307.95 2.86, 616.37 2.55, 1383.42 0 M1383.42 0 C1380.93 123.96, 1380.87 248.85, 1383.42 497.89 M1383.42 0 C1385.19 146.52, 1384.92 293.15, 1383.42 497.89 M1383.42 497.89 C912.36 502.54, 442.97 503.32, 0 497.89 M1383.42 497.89 C975.45 498.68, 566.88 498.82, 0 497.89 M0 497.89 C1.73 380.03, 1.3 261.89, 0 0 M0 497.89 C1.15 321.44, 1.06 145.6, 0 0" stroke="#1e1e1e" stroke-width="2" fill="none"></path></g><g transform="translate(5777.682851626802 6728.011805641705) rotate(0 510.10272216796875 141.44516031635067)"><text x="510.10272216796875" y="198.24953669939757" font-family="Virgil, Segoe UI Emoji" font-size="226.31225650616162px" fill="#1e1e1e" text-anchor="middle" style="white-space: pre;" direction="ltr" dominant-baseline="alphabetic">Recursion</text></g><g stroke-linecap="round" transform="translate(7545.277250619727 6622.083927807165) rotate(0 1490.2131671579557 248.94348215677746)"><path d="M0 0 C1105.84 4.99, 2210.2 6.25, 2980.43 0 M0 0 C747.39 -4.17, 1494.45 -4.35, 2980.43 0 M2980.43 0 C2977.86 119.91, 2978.59 240.5, 2980.43 497.89 M2980.43 0 C2980.79 125.31, 2981.12 249.88, 2980.43 497.89 M2980.43 497.89 C1810.34 491.01, 639.24 490.78, 0 497.89 M2980.43 497.89 C2043.38 497.81, 1105.99 497.42, 0 497.89 M0 497.89 C-1.1 301.14, -0.68 102.43, 0 0 M0 497.89 C-0.45 309.08, -0.56 120.3, 0 0" stroke="#1e1e1e" stroke-width="2" fill="none"></path></g><g transform="translate(7911.521789847996 6729.582249647592) rotate(0 1123.9686279296875 141.44516031635067)"><text x="1123.9686279296875" y="198.24953669939757" font-family="Virgil, Segoe UI Emoji" font-size="226.31225650616162px" fill="#1e1e1e" text-anchor="middle" style="white-space: pre;" direction="ltr" dominant-baseline="alphabetic">Dynamic Programming</text></g><g stroke-linecap="round"><g transform="translate(7458.133835609834 6168.627796381024) rotate(0 -2179.5340066025437 335.4208243192097)"><path d="M-0.96 -0.93 C-190.98 81.62, -414.28 383.91, -1140.74 495.94 C-1867.19 607.97, -3823.31 642.18, -4359.67 671.24 M0.74 1.2 C-189.31 83.85, -414.28 385.85, -1141.19 497.17 C-1868.11 608.49, -3824.53 640.12, -4360.75 669.11" stroke="#1e1e1e" stroke-width="2" fill="none"></path></g><g transform="translate(7458.133835609834 6168.627796381024) rotate(0 -2179.5340066025437 335.4208243192097)"><path d="M-4337.58 659.71 C-4344.93 663.46, -4350.23 663.28, -4360.75 669.11 M-4337.58 659.71 C-4345.79 661.86, -4353.61 664.99, -4360.75 669.11" stroke="#1e1e1e" stroke-width="2" fill="none"></path></g><g transform="translate(7458.133835609834 6168.627796381024) rotate(0 -2179.5340066025437 335.4208243192097)"><path d="M-4336.96 676.8 C-4344.56 676.23, -4350.01 671.73, -4360.75 669.11 M-4336.96 676.8 C-4345.41 673.25, -4353.43 670.68, -4360.75 669.11" stroke="#1e1e1e" stroke-width="2" fill="none"></path></g></g><mask></mask><g stroke-linecap="round"><g transform="translate(3079.593987563345 6869.452368990353) rotate(0 252.9039466456345 0)"><path d="M0.93 -0.59 C85.29 -0.37, 421.03 0.39, 505.21 0.4 M-0.04 1.71 C84.81 1.65, 423.37 -1.31, 507.61 -1.51" stroke="#1e1e1e" stroke-width="2" fill="none"></path></g><g transform="translate(3079.593987563345 6869.452368990353) rotate(0 252.9039466456345 0)"><path d="M484.16 7.18 C488.41 4.09, 495.23 3.52, 507.61 -1.51 M484.16 7.18 C489.63 4.27, 495.67 1.97, 507.61 -1.51" stroke="#1e1e1e" stroke-width="2" fill="none"></path></g><g transform="translate(3079.593987563345 6869.452368990353) rotate(0 252.9039466456345 0)"><path d="M484.06 -9.92 C488.2 -9.25, 495.04 -6.05, 507.61 -1.51 M484.06 -9.92 C489.47 -8.44, 495.53 -6.35, 507.61 -1.51" stroke="#1e1e1e" stroke-width="2" fill="none"></path></g></g><mask></mask><g stroke-linecap="round"><g transform="translate(5035.950288930862 6869.452368990353) rotate(0 252.9039466456345 0)"><path d="M-0.6 0.4 C83.58 0.41, 421.72 -0.28, 506.02 -0.52 M1.29 -0.43 C85.25 -0.21, 421.37 0.72, 505.18 0.75" stroke="#1e1e1e" stroke-width="2" fill="none"></path></g><g transform="translate(5035.950288930862 6869.452368990353) rotate(0 252.9039466456345 0)"><path d="M481.67 9.26 C491.27 6.51, 498.61 1.94, 505.18 0.75 M481.67 9.26 C486.12 6.71, 491.66 5.8, 505.18 0.75" stroke="#1e1e1e" stroke-width="2" fill="none"></path></g><g transform="translate(5035.950288930862 6869.452368990353) rotate(0 252.9039466456345 0)"><path d="M481.7 -7.85 C491.2 -4.13, 498.53 -2.24, 505.18 0.75 M481.7 -7.85 C486.04 -6.78, 491.58 -4.06, 505.18 0.75" stroke="#1e1e1e" stroke-width="2" fill="none"></path></g></g><mask></mask><g stroke-linecap="round"><g transform="translate(6985.155122992781 6869.452368990353) rotate(0 252.9039466456348 0)"><path d="M0.21 -0.52 C84.51 -0.76, 421.06 -0.97, 505.21 -1.06 M-1.14 1.82 C83.61 1.65, 422.81 0.28, 507.6 -0.08" stroke="#1e1e1e" stroke-width="2" fill="none"></path></g><g transform="translate(6985.155122992781 6869.452368990353) rotate(0 252.9039466456348 0)"><path d="M484.15 8.57 C489.12 5.36, 494.08 3.02, 507.6 -0.08 M484.15 8.57 C489.13 6.91, 494.91 4.65, 507.6 -0.08" stroke="#1e1e1e" stroke-width="2" fill="none"></path></g><g transform="translate(6985.155122992781 6869.452368990353) rotate(0 252.9039466456348 0)"><path d="M484.08 -8.54 C489.12 -7.46, 494.1 -5.53, 507.6 -0.08 M484.08 -8.54 C488.98 -6.59, 494.77 -5.24, 507.6 -0.08" stroke="#1e1e1e" stroke-width="2" fill="none"></path></g></g><mask></mask><g stroke-linecap="round"><g transform="translate(10136.620579724764 5201.960569135072) rotate(0 -804.8844247400166 461.9512015134187)"><path d="M0.5 0.62 C-122.23 129.24, -468.79 617.97, -737.13 771.87 C-1005.46 925.76, -1463.99 898.74, -1609.51 924 M-0.69 -0.1 C-123.45 128.62, -469.42 618.6, -737.66 772.85 C-1005.9 927.09, -1464.71 900.13, -1610.14 925.37" stroke="#1e1e1e" stroke-width="4" fill="none"></path></g></g><mask></mask><g stroke-linecap="round" transform="translate(1722.2171452477642 7319.084587217043) rotate(0 1137.2903239363918 731.4700114363914)"><path d="M1138 0 C1406.99 174.68, 1676.8 348.17, 2274.58 732 M1138 0 C1560.25 272.1, 1982.93 544.64, 2274.58 732 M2274.58 732 C1836.99 1017.11, 1397.53 1299.26, 1138 1462.94 M2274.58 732 C1896.38 971.37, 1517.14 1215.45, 1138 1462.94 M1138 1462.94 C788.87 1238.43, 436.92 1012.4, 0 732 M1138 1462.94 C758.91 1219.23, 377.83 974.44, 0 732 M0 732 C305.52 531.1, 611.63 334.67, 1138 0 M0 732 C422.58 463.45, 844.07 192.02, 1138 0" stroke="#1e1e1e" stroke-width="2" fill="none"></path></g><g transform="translate(2434.46094002846 7984.866493980851) rotate(0 424.9013671875 65.45309895438731)"><text x="424.9013671875" y="91.73906349446887" font-family="Virgil, Segoe UI Emoji" font-size="104.72495832701924px" fill="#1e1e1e" text-anchor="middle" style="white-space: pre;" direction="ltr" dominant-baseline="alphabetic">Advanced Topics</text></g><g stroke-linecap="round" transform="translate(4205.435469005377 7745.350754952848) rotate(0 1202.803550348806 239.8197895551557)"><path d="M0 0 C708.62 -8, 1419.03 -8.43, 2405.61 0 M0 0 C706.9 7.63, 1414.62 7.69, 2405.61 0 M2405.61 0 C2405.12 168.82, 2406.09 336.44, 2405.61 479.64 M2405.61 0 C2406.55 100.8, 2406.77 200.73, 2405.61 479.64 M2405.61 479.64 C1632.19 486, 857.66 484.91, 0 479.64 M2405.61 479.64 C1611.11 473.95, 816.52 474.2, 0 479.64 M0 479.64 C0.13 300.04, 1.6 119.19, 0 0 M0 479.64 C0.01 359.6, -0.51 240.04, 0 0" stroke="#1e1e1e" stroke-width="2" fill="none"></path></g><g transform="translate(4458.914495428402 7848.909300442574) rotate(0 949.3245239257812 136.2612440654293)"><text x="949.3245239257812" y="190.98375968210559" font-family="Virgil, Segoe UI Emoji" font-size="218.01799050468676px" fill="#1e1e1e" text-anchor="middle" style="white-space: pre;" direction="ltr" dominant-baseline="alphabetic">Greedy Algorithms</text></g><g stroke-linecap="round" transform="translate(7156.0875459646995 7745.350754952848) rotate(0 863.1298178769531 239.8197895551557)"><path d="M0 0 C670.04 -3.87, 1338.89 -4.64, 1726.26 0 M0 0 C382.99 -1.45, 765.49 -1.56, 1726.26 0 M1726.26 0 C1724.92 182.47, 1723.85 365.15, 1726.26 479.64 M1726.26 0 C1725.44 124.08, 1725.49 249.17, 1726.26 479.64 M1726.26 479.64 C1102.92 483, 479.26 483.31, 0 479.64 M1726.26 479.64 C1307.41 476.93, 889.1 476.66, 0 479.64 M0 479.64 C2.66 353.72, 1.61 228.53, 0 0 M0 479.64 C-0.99 308.94, -0.71 138.23, 0 0" stroke="#1e1e1e" stroke-width="2" fill="none"></path></g><g transform="translate(7341.09730768931 7848.909300442574) rotate(0 678.1200561523438 136.2612440654293)"><text x="678.1200561523438" y="190.98375968210559" font-family="Virgil, Segoe UI Emoji" font-size="218.01799050468676px" fill="#1e1e1e" text-anchor="middle" style="white-space: pre;" direction="ltr" dominant-baseline="alphabetic">Backtracking</text></g><g stroke-linecap="round" transform="translate(9427.39215798033 7745.350754952848) rotate(0 1133.0122444040442 239.8197895551557)"><path d="M0 0 C807.52 -0.99, 1614.52 -0.71, 2266.02 0 M0 0 C732.56 -3.37, 1465.04 -3.72, 2266.02 0 M2266.02 0 C2265.93 181.3, 2266.36 361.31, 2266.02 479.64 M2266.02 0 C2266.31 177.11, 2266.48 353.73, 2266.02 479.64 M2266.02 479.64 C1455.8 472.25, 644.64 472.51, 0 479.64 M2266.02 479.64 C1678.22 481.34, 1089.66 481.14, 0 479.64 M0 479.64 C-1.9 310.77, -0.97 142.06, 0 0 M0 479.64 C1.82 353.79, 1.6 227.42, 0 0" stroke="#1e1e1e" stroke-width="2" fill="none"></path></g><g transform="translate(9663.18424857578 7848.909300442574) rotate(0 897.2201538085938 136.2612440654293)"><text x="897.2201538085938" y="190.98375968210559" font-family="Virgil, Segoe UI Emoji" font-size="218.01799050468676px" fill="#1e1e1e" text-anchor="middle" style="white-space: pre;" direction="ltr" dominant-baseline="alphabetic">Graph Algorithms</text></g><g stroke-linecap="round" transform="translate(12238.461623050138 7745.350754952848) rotate(0 1749.2537206899478 239.8197895551557)"><path d="M0 0 C1058 12.65, 2117.44 13.82, 3498.51 0 M0 0 C1181.55 -1.61, 2362.77 -1.16, 3498.51 0 M3498.51 0 C3496.27 150.64, 3497.22 302.07, 3498.51 479.64 M3498.51 0 C3499.23 112.58, 3499.21 224.55, 3498.51 479.64 M3498.51 479.64 C2721.87 474.15, 1945.84 473.95, 0 479.64 M3498.51 479.64 C2375.89 472.61, 1253.78 473.29, 0 479.64 M0 479.64 C1.53 355.12, 0.72 229.3, 0 0 M0 479.64 C0.25 318.17, 0.76 156.67, 0 0" stroke="#1e1e1e" stroke-width="2" fill="none"></path></g><g transform="translate(12462.735485341647 7848.909300442574) rotate(0 1524.979858398437 136.2612440654293)"><text x="1524.9798583984375" y="190.98375968210559" font-family="Virgil, Segoe UI Emoji" font-size="218.01799050468676px" fill="#1e1e1e" text-anchor="middle" style="white-space: pre;" direction="ltr" dominant-baseline="alphabetic">Trees and Graphs Advanced</text></g><g stroke-linecap="round" transform="translate(6164.04874970487 8350.134232523149) rotate(0 681.3188036302848 474.9906786302854)"><path d="M682 0 C821.01 100.24, 961.44 197.88, 1362.64 475 M682 0 C894.33 149.16, 1104.59 295.57, 1362.64 475 M1362.64 475 C1121.33 642.18, 879.18 810.51, 682 949.98 M1362.64 475 C1092.45 667.03, 820.32 856.53, 682 949.98 M682 949.98 C504.7 825.57, 327.12 702.41, 0 475 M682 949.98 C510.66 827.6, 338.01 707.14, 0 475 M0 475 C206.74 328.55, 415.44 184.12, 682 0 M0 475 C254.88 298.2, 507.58 121.68, 682 0" stroke="#1e1e1e" stroke-width="2" fill="none"></path></g><g transform="translate(6630.898703277825 8759.676472883904) rotate(0 214.3094482421875 65.45309895438731)"><text x="214.3094482421875" y="91.73906349446887" font-family="Virgil, Segoe UI Emoji" font-size="104.72495832701924px" fill="#1e1e1e" text-anchor="middle" style="white-space: pre;" direction="ltr" dominant-baseline="alphabetic">Practice</text></g><g stroke-linecap="round" transform="translate(4335.41281528299 9477.175107884574) rotate(0 982.7340988052731 253.39980058929177)"><path d="M0 0 C472.04 -6.36, 943.55 -6.12, 1965.47 0 M0 0 C436.24 -2.98, 872.58 -2.78, 1965.47 0 M1965.47 0 C1966.33 131.16, 1967.65 262.47, 1965.47 506.8 M1965.47 0 C1966.32 196.15, 1966.48 391.82, 1965.47 506.8 M1965.47 506.8 C1386.55 504.99, 806.92 504.08, 0 506.8 M1965.47 506.8 C1568.82 512.13, 1172.51 512.55, 0 506.8 M0 506.8 C1.04 340.31, 1.32 173.65, 0 0 M0 506.8 C-1.16 343.92, -0.71 180.86, 0 0" stroke="#1e1e1e" stroke-width="2" fill="none"></path></g><g transform="translate(4563.60284670545 9586.597749048131) rotate(0 754.5440673828125 143.9771594257345)"><text x="754.5440673828125" y="201.79838665110827" font-family="Virgil, Segoe UI Emoji" font-size="230.3634550811738px" fill="#1e1e1e" text-anchor="middle" style="white-space: pre;" direction="ltr" dominant-baseline="alphabetic">Online Judges</text></g><g stroke-linecap="round" transform="translate(6876.78965059648 9477.175107884574) rotate(0 1112.0885779768307 253.39980058929177)"><path d="M0 0 C858.7 -3.86, 1716.62 -3.88, 2224.18 0 M0 0 C741.6 7.88, 1482.6 8.32, 2224.18 0 M2224.18 0 C2223.63 157.18, 2223.53 313.85, 2224.18 506.8 M2224.18 0 C2222.44 169.54, 2222.57 339.38, 2224.18 506.8 M2224.18 506.8 C1624.73 513.2, 1025.25 513.92, 0 506.8 M2224.18 506.8 C1400.6 502.57, 577.09 502.2, 0 506.8 M0 506.8 C-0.18 401.41, -0.58 297.58, 0 0 M0 506.8 C1.98 335.35, 1.54 164.45, 0 0" stroke="#1e1e1e" stroke-width="2" fill="none"></path></g><g transform="translate(7111.2065977139355 9586.597749048131) rotate(0 877.671630859375 143.9771594257345)"><text x="877.671630859375" y="201.79838665110827" font-family="Virgil, Segoe UI Emoji" font-size="230.3634550811738px" fill="#1e1e1e" text-anchor="middle" style="white-space: pre;" direction="ltr" dominant-baseline="alphabetic">Project Building</text></g><g stroke-linecap="round" transform="translate(9676.87544425308 9477.175107884574) rotate(0 385.7688015363251 253.39980058929177)"><path d="M32 0 C279.43 -1.65, 528.38 -2.15, 739.54 0 M32 0 C180.09 1.43, 328.56 0.89, 739.54 0 M739.54 0 C761.31 1.98, 772.76 12.4, 771.54 32 M739.54 0 C762.2 0.8, 769.74 11.36, 771.54 32 M771.54 32 C769.88 147.31, 770.48 263.97, 771.54 474.8 M771.54 32 C770.96 144.2, 770.5 255.46, 771.54 474.8 M771.54 474.8 C771.64 497.26, 761.43 506.06, 739.54 506.8 M771.54 474.8 C769.39 496.98, 760.22 508.44, 739.54 506.8 M739.54 506.8 C583.15 507.15, 426.18 508.06, 32 506.8 M739.54 506.8 C556.1 508.16, 373.37 508.45, 32 506.8 M32 506.8 C10.63 505.04, -1.4 497.78, 0 474.8 M32 506.8 C10.34 509.1, -2.16 494.39, 0 474.8 M0 474.8 C0.65 310.97, 0.36 145.83, 0 32 M0 474.8 C-1.37 346.12, -2.11 217.06, 0 32 M0 32 C-1.31 12.24, 9.58 0.56, 32 0 M0 32 C-1.98 9.06, 12.53 1.63, 32 0" stroke="#1e1e1e" stroke-width="2" fill="none"></path></g><g transform="translate(9865.686451599951 9586.597749048131) rotate(0 196.95779418945312 143.9771594257345)"><text x="196.95779418945312" y="201.79838665110827" font-family="Virgil, Segoe UI Emoji" font-size="230.3634550811738px" fill="#1e1e1e" text-anchor="middle" style="white-space: pre;" direction="ltr" dominant-baseline="alphabetic">End</text></g><g stroke-linecap="round"><g transform="translate(3974.4507088689043 8033.788871382907) rotate(0 121.78743660151667 11.935251974608036)"><path d="M0.92 0.4 C8.59 4.35, 6.39 20.66, 46.94 22.79 C87.49 24.91, 211.54 14.54, 244.23 13.16 M-0.05 -0.44 C7.39 3.71, 5.44 21.31, 46.08 23.75 C86.72 26.19, 210.97 16.12, 243.8 14.22" stroke="#1e1e1e" stroke-width="2" fill="none"></path></g><g transform="translate(3974.4507088689043 8033.788871382907) rotate(0 121.78743660151667 11.935251974608036)"><path d="M220.94 24.34 C230.38 20.61, 236.59 17.55, 243.8 14.22 M220.94 24.34 C227 20.9, 233.06 19.92, 243.8 14.22" stroke="#1e1e1e" stroke-width="2" fill="none"></path></g><g transform="translate(3974.4507088689043 8033.788871382907) rotate(0 121.78743660151667 11.935251974608036)"><path d="M219.78 7.28 C229.53 10.03, 236.18 13.45, 243.8 14.22 M219.78 7.28 C226.07 8.25, 232.43 11.7, 243.8 14.22" stroke="#1e1e1e" stroke-width="2" fill="none"></path></g></g><mask></mask><g stroke-linecap="round"><g transform="translate(6616.497107302923 7985.166116017579) rotate(0 243.63510438899283 0)"><path d="M0.18 -1.09 C81.34 -1.23, 406.82 -0.81, 487.92 -0.49 M-1.19 0.96 C79.8 0.94, 406.16 1.13, 487.31 0.79" stroke="#1e1e1e" stroke-width="2" fill="none"></path></g><g transform="translate(6616.497107302923 7985.166116017579) rotate(0 243.63510438899283 0)"><path d="M463.83 9.38 C470.85 7.19, 480.7 2.04, 487.31 0.79 M463.83 9.38 C472.69 7.36, 481.74 4.08, 487.31 0.79" stroke="#1e1e1e" stroke-width="2" fill="none"></path></g><g transform="translate(6616.497107302923 7985.166116017579) rotate(0 243.63510438899283 0)"><path d="M463.81 -7.72 C470.89 -3.46, 480.75 -2.17, 487.31 0.79 M463.81 -7.72 C472.69 -3.44, 481.75 -0.43, 487.31 0.79" stroke="#1e1e1e" stroke-width="2" fill="none"></path></g></g><mask></mask><g stroke-linecap="round"><g transform="translate(8887.797631481226 7985.166116017579) rotate(0 243.63510438898516 0)"><path d="M0.65 -0.49 C81.75 -0.17, 405.65 0.87, 486.77 0.82 M-0.47 -1.79 C80.41 -1.71, 404.37 -1.19, 485.56 -0.87" stroke="#1e1e1e" stroke-width="2" fill="none"></path></g><g transform="translate(8887.797631481226 7985.166116017579) rotate(0 243.63510438898516 0)"><path d="M462.05 7.62 C468.71 3.99, 478.3 2.33, 485.56 -0.87 M462.05 7.62 C468.14 6.27, 473.61 3.76, 485.56 -0.87" stroke="#1e1e1e" stroke-width="2" fill="none"></path></g><g transform="translate(8887.797631481226 7985.166116017579) rotate(0 243.63510438898516 0)"><path d="M462.09 -9.48 C468.59 -7.73, 478.16 -4, 485.56 -0.87 M462.09 -9.48 C468.21 -6.83, 473.67 -5.34, 485.56 -0.87" stroke="#1e1e1e" stroke-width="2" fill="none"></path></g></g><mask></mask><g stroke-linecap="round"><g transform="translate(11698.867096551025 7985.166116017579) rotate(0 243.63510438898447 0)"><path d="M-0.5 0.82 C80.62 0.77, 406.04 -0.85, 487.38 -0.79 M1.44 0.21 C82.36 0.33, 405.58 0.45, 486.49 0.33" stroke="#1e1e1e" stroke-width="2" fill="none"></path></g><g transform="translate(11698.867096551025 7985.166116017579) rotate(0 243.63510438898447 0)"><path d="M463 8.89 C472.72 6.14, 478.35 3.36, 486.49 0.33 M463 8.89 C472.9 5.62, 480.91 2.16, 486.49 0.33" stroke="#1e1e1e" stroke-width="2" fill="none"></path></g><g transform="translate(11698.867096551025 7985.166116017579) rotate(0 243.63510438898447 0)"><path d="M462.99 -8.21 C472.65 -4.91, 478.28 -1.63, 486.49 0.33 M462.99 -8.21 C473 -4.66, 481.02 -1.3, 486.49 0.33" stroke="#1e1e1e" stroke-width="2" fill="none"></path></g></g><mask></mask><g stroke-linecap="round"><g transform="translate(12235.840880968 8164.558913056713) rotate(0 -2394.6482426743314 295.11885199665267)"><path d="M0.11 -0.79 C-797.98 97.64, -3990.92 492.75, -4789.03 591.43 M-1.29 1.41 C-799.47 99.47, -3991.9 491.91, -4789.85 589.93" stroke="#1e1e1e" stroke-width="2" fill="none"></path></g><g transform="translate(12235.840880968 8164.558913056713) rotate(0 -2394.6482426743314 295.11885199665267)"><path d="M-4767.57 578.58 C-4774.57 581.97, -4777.03 585.69, -4789.85 589.93 M-4767.57 578.58 C-4776.9 583.35, -4785.13 586.86, -4789.85 589.93" stroke="#1e1e1e" stroke-width="2" fill="none"></path></g><g transform="translate(12235.840880968 8164.558913056713) rotate(0 -2394.6482426743314 295.11885199665267)"><path d="M-4765.49 595.55 C-4773.14 594.55, -4776.14 593.89, -4789.85 589.93 M-4765.49 595.55 C-4775.72 593.76, -4784.75 590.71, -4789.85 589.93" stroke="#1e1e1e" stroke-width="2" fill="none"></path></g></g><mask></mask><g stroke-linecap="round"><g transform="translate(6458.193800751363 9031.411168853065) rotate(0 -684.8608425039406 257.646573343176)"><path d="M0.26 1.19 C-227.92 87.38, -1160.14 442.34, -1368.99 516.33 C-1577.84 590.33, -1271.93 457.05, -1252.85 445.18 M-1.06 0.77 C-229.35 86.71, -1160.85 441.04, -1369.55 514.76 C-1578.25 588.47, -1272.39 454.45, -1253.25 443.06" stroke="#1e1e1e" stroke-width="2" fill="none"></path></g><g transform="translate(6458.193800751363 9031.411168853065) rotate(0 -684.8608425039406 257.646573343176)"><path d="M-1270.85 460.82 C-1263.31 456.52, -1258.11 450.95, -1253.25 443.06 M-1270.85 460.82 C-1265.2 454.24, -1258.97 448.46, -1253.25 443.06" stroke="#1e1e1e" stroke-width="2" fill="none"></path></g><g transform="translate(6458.193800751363 9031.411168853065) rotate(0 -684.8608425039406 257.646573343176)"><path d="M-1278.14 445.35 C-1268.45 445.81, -1261 445.03, -1253.25 443.06 M-1278.14 445.35 C-1270.18 443.94, -1261.5 443.34, -1253.25 443.06" stroke="#1e1e1e" stroke-width="2" fill="none"></path></g></g><mask></mask><g stroke-linecap="round"><g transform="translate(6306.642258927996 9730.570229216191) rotate(0 257.43116105320934 0)"><path d="M0.74 1.04 C86.62 0.91, 430.02 0.53, 515.55 0.42 M-0.34 0.54 C85.42 0.55, 428.86 -1.09, 514.97 -1.48" stroke="#1e1e1e" stroke-width="2" fill="none"></path></g><g transform="translate(6306.642258927996 9730.570229216191) rotate(0 257.43116105320934 0)"><path d="M491.52 7.18 C500.71 5.4, 507.22 -0.1, 514.97 -1.48 M491.52 7.18 C499.24 4.05, 506.73 1.8, 514.97 -1.48" stroke="#1e1e1e" stroke-width="2" fill="none"></path></g><g transform="translate(6306.642258927996 9730.570229216191) rotate(0 257.43116105320934 0)"><path d="M491.44 -9.92 C500.83 -6.2, 507.37 -6.2, 514.97 -1.48 M491.44 -9.92 C499.12 -7.41, 506.64 -4, 514.97 -1.48" stroke="#1e1e1e" stroke-width="2" fill="none"></path></g></g><mask></mask><g stroke-linecap="round"><g transform="translate(9106.72157361239 9730.570229216191) rotate(0 257.4311610532095 0)"><path d="M0.69 0.42 C86.22 0.31, 428.31 0.55, 513.92 0.36 M-0.4 -0.41 C85.43 -0.37, 430.51 -1.68, 516.14 -1.57" stroke="#1e1e1e" stroke-width="2" fill="none"></path></g><g transform="translate(9106.72157361239 9730.570229216191) rotate(0 257.4311610532095 0)"><path d="M492.67 7.02 C501.77 2.22, 510.16 -0.1, 516.14 -1.57 M492.67 7.02 C498.06 5.24, 504.81 2.47, 516.14 -1.57" stroke="#1e1e1e" stroke-width="2" fill="none"></path></g><g transform="translate(9106.72157361239 9730.570229216191) rotate(0 257.4311610532095 0)"><path d="M492.64 -10.08 C501.9 -8.71, 510.3 -4.84, 516.14 -1.57 M492.64 -10.08 C498.03 -7.71, 504.79 -6.33, 516.14 -1.57" stroke="#1e1e1e" stroke-width="2" fill="none"></path></g></g><mask></mask><g stroke-linecap="round"><g transform="translate(3219.9440025367467 7358.113192403434) rotate(0 4087.718123659887 43.73789748088893)"><path d="M-0.66 -0.06 C1362.08 14.67, 6812.79 73.31, 8175.49 87.77 M1.19 -1.14 C1363.87 13.27, 6812.29 71.01, 8174.58 85.81" stroke="#1e1e1e" stroke-width="4" fill="none"></path></g></g><mask></mask><g stroke-linecap="round"><g transform="translate(10525.46440577582 6984.966615695741) rotate(0 432.67217624178375 228.0545094207382)"><path d="M-0.33 -0.66 C143.6 75.53, 720.19 380.47, 864.61 456.67 M1.7 1.6 C145.93 77.48, 722.92 379.37, 866.94 454.84" stroke="#1e1e1e" stroke-width="4" fill="none"></path></g></g><mask></mask><g stroke-linecap="round"><g transform="translate(8755.125734912446 2622.77037313441) rotate(0 -537.9602272076454 800.2996886621877)"><path d="M0.44 0.62 C-8.36 137.17, 126.15 553.5, -53.12 820.09 C-232.4 1086.68, -904.81 1470.18, -1075.2 1600.16 M-0.79 -0.1 C-9.68 136.55, 125.26 554.5, -53.87 821.39 C-233.01 1088.29, -905.41 1471.36, -1075.59 1601.25" stroke="#1e1e1e" stroke-width="4" fill="none"></path></g><g transform="translate(8755.125734912446 2622.77037313441) rotate(0 -537.9602272076454 800.2996886621877)"><path d="M-1060.83 1581.07 C-1063.66 1587.23, -1069.43 1593.26, -1075.59 1601.25 M-1060.83 1581.07 C-1065.37 1586.93, -1067.83 1590.81, -1075.59 1601.25" stroke="#1e1e1e" stroke-width="4" fill="none"></path></g><g transform="translate(8755.125734912446 2622.77037313441) rotate(0 -537.9602272076454 800.2996886621877)"><path d="M-1051.31 1595.29 C-1056.82 1597.62, -1065.17 1599.8, -1075.59 1601.25 M-1051.31 1595.29 C-1058.41 1597.35, -1063.38 1597.48, -1075.59 1601.25" stroke="#1e1e1e" stroke-width="4" fill="none"></path></g></g><mask></mask><g stroke-linecap="round"><g transform="translate(6347.672594501944 3691.3894145209215) rotate(0 -2290.854096930173 586.4367840316781)"><path d="M0.1 0.06 C-71.31 139.51, 334.55 640.84, -429.15 836.51 C-1192.85 1032.17, -3890.03 1117.85, -4582.09 1174.06 M-1.31 -0.96 C-72.86 138.19, 333.24 639.28, -430.38 834.83 C-1194.01 1030.38, -3891.25 1116.19, -4583.05 1172.34" stroke="#1e1e1e" stroke-width="4" fill="none"></path></g><g transform="translate(6347.672594501944 3691.3894145209215) rotate(0 -2290.854096930173 586.4367840316781)"><path d="M-4560.09 1162.46 C-4565.56 1163.96, -4569.8 1166.62, -4583.05 1172.34 M-4560.09 1162.46 C-4568.45 1166.27, -4577.52 1169.94, -4583.05 1172.34" stroke="#1e1e1e" stroke-width="4" fill="none"></path></g><g transform="translate(6347.672594501944 3691.3894145209215) rotate(0 -2290.854096930173 586.4367840316781)"><path d="M-4559.11 1179.53 C-4564.79 1176.91, -4569.26 1175.44, -4583.05 1172.34 M-4559.11 1179.53 C-4567.88 1176.54, -4577.35 1173.4, -4583.05 1172.34" stroke="#1e1e1e" stroke-width="4" fill="none"></path></g></g><mask></mask><g stroke-linecap="round"><g transform="translate(10455.083834880134 1755.2494225827631) rotate(0 -1879.6482886313775 269.7520879778467)"><path d="M2.73 0.54 C-623.84 90.36, -3133.74 447.82, -3760.87 537.44 M0.77 -1.64 C-624.75 88.61, -3128.15 449.56, -3755.33 539.94" stroke="#1e1e1e" stroke-width="4" fill="none"></path></g><g transform="translate(10455.083834880134 1755.2494225827631) rotate(0 -1879.6482886313775 269.7520879778467)"><path d="M-3732.91 527 C-3740.32 530.71, -3745.24 532.64, -3755.76 540.36 M-3733.87 527.88 C-3739.79 532.6, -3746.13 534.94, -3755.35 540.17" stroke="#1e1e1e" stroke-width="4" fill="none"></path></g><g transform="translate(10455.083834880134 1755.2494225827631) rotate(0 -1879.6482886313775 269.7520879778467)"><path d="M-3730.47 543.93 C-3738.39 543.45, -3743.93 541.17, -3755.76 540.36 M-3731.43 544.81 C-3737.91 544.77, -3744.94 542.34, -3755.35 540.17" stroke="#1e1e1e" stroke-width="4" fill="none"></path></g></g><mask></mask></svg>