<svg version="1.1" xmlns="http://www.w3.org/2000/svg" viewBox="0 0 19170.972464785395 12345.420021563157" width="57512.917394356184" height="37036.26006468947" filter="invert(93%) hue-rotate(180deg)">
  <!-- svg-source:excalidraw -->
  
  <defs>
    <style class="style-fonts">
      @font-face {
        font-family: "Virgil";
        src: url("https://excalidraw.com/Virgil.woff2");
      }
      @font-face {
        font-family: "Cascadia";
        src: url("https://excalidraw.com/Cascadia.woff2");
      }
      @font-face {
        font-family: "Assistant";
        src: url("https://excalidraw.com/Assistant-Regular.woff2");
      }
    </style>
    
  </defs>
  <rect x="0" y="0" width="19170.972464785395" height="12345.420021563157" fill="#ffffff"></rect><g stroke-linecap="round" transform="translate(10 397.2778888271778) rotate(0 965.9724299719392 303.92150557428477)"><path d="M32 0 C709.17 3, 1384.08 0.52, 1899.94 0 M32 0 C658.03 -9.46, 1285.21 -10.09, 1899.94 0 M1899.94 0 C1923.47 3.53, 1931.5 13.72, 1931.94 32 M1899.94 0 C1920.03 4.48, 1928.84 10.02, 1931.94 32 M1931.94 32 C1930.77 151.79, 1930.69 268.8, 1931.94 575.84 M1931.94 32 C1930.7 193.32, 1931.16 355.77, 1931.94 575.84 M1931.94 575.84 C1933.13 598.07, 1922.55 607.23, 1899.94 607.84 M1931.94 575.84 C1929.99 598.1, 1925.26 610.52, 1899.94 607.84 M1899.94 607.84 C1525.29 611.11, 1148.91 611.06, 32 607.84 M1899.94 607.84 C1295.65 611.94, 692.16 612.67, 32 607.84 M32 607.84 C9.7 608.56, 0.36 595.62, 0 575.84 M32 607.84 C7.37 608.36, -3.37 596.43, 0 575.84 M0 575.84 C1.75 423.78, 1.08 272.17, 0 32 M0 575.84 C0.19 411.55, 0.37 247.98, 0 32 M0 32 C2.63 13.45, 8.07 -3.27, 32 0 M0 32 C-0.23 15.24, 11.19 0.17, 32 0" stroke="#1e1e1e" stroke-width="4" fill="none"></path></g><g transform="translate(711.3252131750651 584.5073058868566) rotate(0 264.647216796875 116.69208851460553)"><text x="264.647216796875" y="163.55563126207096" font-family="Virgil, Segoe UI Emoji" font-size="186.70734162336868px" fill="#1e1e1e" text-anchor="middle" style="white-space: pre;" direction="ltr" dominant-baseline="alphabetic">Start</text></g><g stroke-linecap="round" transform="translate(3009.974312667877 23.87718901538028) rotate(0 1276.6093284712347 733.2875483615844)"><path d="M1276.03 -1.51 C1645.46 204.46, 2011.42 413.37, 2552.95 734.54 M1276.91 0.61 C1539.87 141.23, 1799.42 289.8, 2552.56 733.99 M2552.01 734.1 C2247.17 916.09, 1946.07 1089.47, 1276.52 1467.2 M2553.47 733.88 C2068.75 1015.33, 1583.92 1294.53, 1276.21 1466.75 M1276.65 1467 C867.83 1236.77, 460.94 1002.42, -1.19 735.31 M1277.07 1466.26 C873.43 1236.5, 469.01 1004.29, -0.18 733.67 M-0.73 732.42 C471.16 469.81, 942.61 199.51, 1276.95 0.73 M-0.52 733.35 C486.12 446.03, 976.29 163.6, 1277.06 0.47" stroke="#1e1e1e" stroke-width="4" fill="none"></path></g><g transform="translate(3671.580429540213 580.1478503389017) rotate(0 615.1985473632812 176.87311285727037)"><text x="615.1985473632812" y="123.95267749037527" font-family="Virgil, Segoe UI Emoji" font-size="141.49849028581653px" fill="#1e1e1e" text-anchor="middle" style="white-space: pre;" direction="ltr" dominant-baseline="alphabetic">Understand Basic</text><text x="615.1985473632812" y="300.8257903476459" font-family="Virgil, Segoe UI Emoji" font-size="141.49849028581653px" fill="#1e1e1e" text-anchor="middle" style="white-space: pre;" direction="ltr" dominant-baseline="alphabetic">Concepts</text></g><g stroke-linecap="round" transform="translate(7367.713431110124 492.1581362480483) rotate(0 2475.6137866100407 315.96554429776097)"><path d="M0.57 0.42 C1786.5 36.41, 3570.74 37.84, 4949.69 0.87 M-0.22 0.78 C1922.07 -30.38, 3844.56 -30.28, 4950.72 -0.56 M4951.18 -0.4 C4948.14 246.26, 4946.92 493.77, 4952.52 632.41 M4950.89 0.16 C4953.53 204.13, 4952.05 407.5, 4951.38 632.28 M4951.6 632.64 C3322.17 642.24, 1690.92 643.69, 0.27 631.54 M4950.65 632.02 C3376.24 616.37, 1802.25 616.16, 0.55 631.9 M0.03 631.93 C2.89 482.82, 2.26 333.71, 1.34 1.05 M-0.04 632.73 C3.37 398.43, 3.35 165.35, 0.01 -0.43" stroke="#1e1e1e" stroke-width="4" fill="none"></path></g><g transform="translate(7988.556221626415 691.4315920312038) rotate(0 1854.77099609375 116.69208851460553)"><text x="1854.77099609375" y="163.55563126207096" font-family="Virgil, Segoe UI Emoji" font-size="186.70734162336868px" fill="#1e1e1e" text-anchor="middle" style="white-space: pre;" direction="ltr" dominant-baseline="alphabetic">Data Types, Variables, Loops, Functions</text></g><g stroke-linecap="round" transform="translate(12586.318523066988 10) rotate(0 1209.3045632869148 872.3422540410338)"><path d="M1211 -0.89 C1460.97 177.67, 1708.46 357.7, 2420.02 872.82 M1209.46 -0.11 C1662.4 319.2, 2117.51 647.27, 2419.33 872.39 M2419.35 872.69 C2047.46 1138.39, 1678.77 1405.43, 1210.36 1745.19 M2419.3 873.47 C2070.71 1123.34, 1727.5 1371.72, 1210.23 1744.51 M1210.5 1744.54 C812.24 1465.77, 418.76 1179.57, 0.29 873.14 M1209.41 1744.55 C898.97 1517.9, 583.85 1290.67, -0.51 872.63 M0.58 873.36 C243.07 698.23, 487.72 523.04, 1211.11 -1.04 M0.09 873.03 C264.52 673.3, 528.58 481.84, 1210.28 -0.69" stroke="#1e1e1e" stroke-width="4" fill="none"></path></g><g transform="translate(13197.220560569818 709.4403214536142) rotate(0 598.250244140625 172.73080556690365)"><text x="598.250244140625" y="121.04974854128612" font-family="Virgil, Segoe UI Emoji" font-size="138.18464445352296px" fill="#1e1e1e" text-anchor="middle" style="white-space: pre;" direction="ltr" dominant-baseline="alphabetic">Learn Complexity </text><text x="598.250244140625" y="293.78055410818985" font-family="Virgil, Segoe UI Emoji" font-size="138.18464445352296px" fill="#1e1e1e" text-anchor="middle" style="white-space: pre;" direction="ltr" dominant-baseline="alphabetic">Analysis</text></g><g stroke-linecap="round" transform="translate(8358.768912941101 2776.597537108464) rotate(0 911.0006111899855 827.4354595521554)"><path d="M911.73 0.54 C1211.59 275.17, 1511.54 544.35, 1823.22 827.57 M911.34 -0.01 C1268.56 329.42, 1631.32 658.33, 1822.05 827.98 M1821.52 828.62 C1576.19 1054.38, 1325.08 1281.74, 911.76 1654.19 M1821.21 828.18 C1536.53 1097.32, 1245.26 1361.54, 912.21 1655.06 M910.81 1656.18 C596.13 1369.07, 282.09 1084.85, -0.62 826.85 M911.82 1654.54 C633.49 1396.25, 348.53 1138.52, -0.79 828.02 M-0.05 828.73 C272.44 579.08, 545.71 328.68, 910.69 -0.08 M0.06 828.47 C363.49 496.61, 727.99 165.67, 911.31 -0.05" stroke="#1e1e1e" stroke-width="4" fill="none"></path></g><g transform="translate(8833.37767800875 3475.53451140375) rotate(0 436.39154052734375 128.2807554807914)"><text x="436.39154052734375" y="89.8991534409387" font-family="Virgil, Segoe UI Emoji" font-size="102.62460438463322px" fill="#1e1e1e" text-anchor="middle" style="white-space: pre;" direction="ltr" dominant-baseline="alphabetic">Data Structures</text><text x="436.39154052734375" y="218.17990892173023" font-family="Virgil, Segoe UI Emoji" font-size="102.62460438463322px" fill="#1e1e1e" text-anchor="middle" style="white-space: pre;" direction="ltr" dominant-baseline="alphabetic">Basics</text></g><g stroke-linecap="round" transform="translate(2437.7273456125413 4942.682629416475) rotate(0 557.7582471729488 289.52022562931325)"><path d="M-1.54 0.87 C273.88 -3.17, 546.15 -3.42, 1117.07 -1.08 M-0.51 -0.56 C319.73 -0.51, 638.08 0.07, 1115.32 0.37 M1116.81 0.47 C1114.48 162.97, 1113.88 324.25, 1115.84 580.43 M1115.67 0.34 C1111.16 207.26, 1111.14 415.06, 1115.87 579.29 M1115.78 578.65 C791.43 586.47, 466.15 585.18, 0.18 577.87 M1116.07 579.01 C798.52 574.96, 481.75 575.34, 0 579.33 M1.34 580.09 C1.24 391.1, -1.18 205.16, 1.59 0.18 M0.01 578.61 C-0.09 402.5, -1.05 227.29, 0.31 -0.65" stroke="#1e1e1e" stroke-width="4" fill="none"></path></g><g transform="translate(2575.023556652677 5067.702726847314) rotate(0 420.4620361328125 164.50012819847325)"><text x="420.4620361328125" y="230.5633796829802" font-family="Virgil, Segoe UI Emoji" font-size="263.20020511755735px" fill="#1e1e1e" text-anchor="middle" style="white-space: pre;" direction="ltr" dominant-baseline="alphabetic">Arrays</text></g><g stroke-linecap="round" transform="translate(4211.342526656402 4939.639238390344) rotate(0 961.2976241598285 289.52022562931325)"><path d="M1.41 -0.18 C642.45 -8.84, 1284.01 -9.49, 1922.37 -1.32 M0.72 -0.61 C574.8 10.79, 1149.3 11.19, 1922.44 -0.24 M1922.95 0.51 C1926.09 195.53, 1926.66 393.8, 1923.53 577.46 M1922.83 -0.18 C1923.67 186.61, 1923.82 373.09, 1922.52 578.45 M1922.88 579.18 C1188.13 574.18, 455.09 574.15, -0.26 578.68 M1922.09 578.67 C1425.03 578.47, 929.05 578.74, 0.18 579.02 M1.11 578 C-5.19 378.73, -2.29 178.76, 0.06 0.13 M0.28 578.35 C-0.74 371.08, 0.26 162.57, -0.48 -0.51" stroke="#1e1e1e" stroke-width="4" fill="none"></path></g><g transform="translate(4401.858961851387 5064.659335821183) rotate(0 770.7811889648438 164.50012819847325)"><text x="770.7811889648438" y="230.5633796829802" font-family="Virgil, Segoe UI Emoji" font-size="263.20020511755735px" fill="#1e1e1e" text-anchor="middle" style="white-space: pre;" direction="ltr" dominant-baseline="alphabetic">Linked Lists</text></g><g stroke-linecap="round" transform="translate(6794.9816787960835 4939.639238390344) rotate(0 560.482780546236 289.52022562931325)"><path d="M1.22 -0.43 C399.13 -0.09, 794.93 -0.33, 1120.95 -1.02 M0.05 -0.02 C257.25 7.16, 514.75 6.55, 1121.28 0.65 M1120.72 -0.68 C1122.32 192.28, 1122.93 380.2, 1121.32 579.34 M1121.18 0.19 C1122.67 198.93, 1122.24 396.76, 1121.62 579.17 M1120.34 577.89 C811.95 578.67, 502.32 579.49, -0.67 580.14 M1120.17 579.06 C788.97 575.23, 457.15 574.92, 0.37 579.71 M-1.31 578.96 C-1.63 367.37, -3.16 155.46, 0.94 0.02 M-0.69 578.99 C-1.29 435.97, -2.08 293.69, -0.68 -0.61" stroke="#1e1e1e" stroke-width="4" fill="none"></path></g><g transform="translate(6911.709240836461 5064.659335821183) rotate(0 443.7552185058594 164.50012819847325)"><text x="443.7552185058594" y="230.5633796829802" font-family="Virgil, Segoe UI Emoji" font-size="263.20020511755735px" fill="#1e1e1e" text-anchor="middle" style="white-space: pre;" direction="ltr" dominant-baseline="alphabetic">Stacks</text></g><g stroke-linecap="round" transform="translate(8573.947752682448 4939.639238390344) rotate(0 635.6901829069753 289.52022562931325)"><path d="M1.56 -1.08 C367.19 1.44, 734.8 1.74, 1270.26 1.44 M-0.2 0.37 C284.96 0.06, 570.54 0.94, 1271.62 0.18 M1271.7 1.39 C1271.61 190.58, 1271.02 384.63, 1272.07 579.51 M1271.74 0.25 C1272.53 160.45, 1273.26 322.22, 1271.19 579.18 M1271.56 577.87 C878.31 571.39, 485.1 572.85, -0.06 578.03 M1271.38 579.33 C948.24 579.23, 625.11 579.92, 0.53 579.6 M1.59 579.22 C3.84 443.05, 4.73 306.83, -0.86 0.55 M0.31 578.39 C3.53 455.1, 3.33 331.59, -0.34 0.05" stroke="#1e1e1e" stroke-width="4" fill="none"></path></g><g transform="translate(8751.933132122625 5064.659335821183) rotate(0 457.7048034667969 164.50012819847325)"><text x="457.7048034667969" y="230.5633796829802" font-family="Virgil, Segoe UI Emoji" font-size="263.20020511755735px" fill="#1e1e1e" text-anchor="middle" style="white-space: pre;" direction="ltr" dominant-baseline="alphabetic">Queues</text></g><g stroke-linecap="round" transform="translate(10503.328631290295 4939.639238390344) rotate(0 486.0978788264888 289.52022562931325)"><path d="M-0.22 -1.32 C265.31 4.24, 529.53 6.69, 970.98 0.1 M-0.16 -0.24 C289.13 -2.96, 577.87 -3.43, 972.45 -0.12 M973.13 -1.58 C973.48 149.45, 973.82 298.78, 971.85 579.46 M972.12 -0.6 C974.9 187.43, 974.06 374.75, 972.27 578.73 M971.94 578.68 C749.58 574.45, 528.24 572.33, -0.73 577.46 M972.38 579.02 C678.91 582.53, 385.43 582.42, -0.52 578.39 M0.06 579.17 C-3.66 408.22, -5.47 237.92, -1.39 -1.39 M-0.48 578.53 C-2.46 408.62, -2.12 239.47, -0.05 0.56" stroke="#1e1e1e" stroke-width="4" fill="none"></path></g><g transform="translate(10611.602901718346 5064.659335821183) rotate(0 377.8236083984375 164.50012819847325)"><text x="377.8236083984375" y="230.5633796829802" font-family="Virgil, Segoe UI Emoji" font-size="263.20020511755735px" fill="#1e1e1e" text-anchor="middle" style="white-space: pre;" direction="ltr" dominant-baseline="alphabetic">Trees</text></g><g stroke-linecap="round" transform="translate(12133.524901737164 4939.639238390344) rotate(0 608.4448491741032 289.52022562931325)"><path d="M-0.02 -1.02 C281.78 9.46, 564.6 8.13, 1216.84 -0.4 M0.31 0.65 C421.76 3.1, 843.3 2.8, 1216.55 0.16 M1217.24 0.3 C1220.28 224.36, 1219.24 448.2, 1217.27 579.75 M1217.54 0.13 C1216.27 192.04, 1216.53 383.49, 1216.32 579.13 M1216.22 580.14 C940.81 575.86, 664.12 575.29, 0.03 579.04 M1217.26 579.71 C808.2 579.32, 397.93 578.11, -0.04 579.84 M0.94 579.06 C-1.04 399.32, -1.56 217.1, -0.11 0.61 M-0.68 578.43 C2.41 452.61, 2.71 326.64, 0.17 -0.16" stroke="#1e1e1e" stroke-width="4" fill="none"></path></g><g transform="translate(12292.42412713197 5064.659335821183) rotate(0 449.5456237792969 164.50012819847325)"><text x="449.5456237792969" y="230.5633796829802" font-family="Virgil, Segoe UI Emoji" font-size="263.20020511755735px" fill="#1e1e1e" text-anchor="middle" style="white-space: pre;" direction="ltr" dominant-baseline="alphabetic">Graphs</text></g><g stroke-linecap="round" transform="translate(14008.415112879258 4939.639238390344) rotate(0 953.7408995207115 289.52022562931325)"><path d="M-1.13 1.44 C413.88 9.79, 830.13 9.28, 1908.22 -0.31 M0.24 0.18 C515.21 -12.44, 1029.57 -12.15, 1908.18 0.47 M1908.17 0.47 C1908.15 116.77, 1908.87 233.41, 1907.98 578.89 M1907.29 0.14 C1911.34 130.32, 1910.69 261.35, 1906.9 578.91 M1907.42 578.03 C1376.97 587.95, 847.96 589.53, 0.58 579.4 M1908.01 579.6 C1340.12 591.16, 773.76 592.61, 0.09 579.07 M-0.86 579.59 C-4.13 399.41, -2.84 223.17, -1.31 -0.95 M-0.34 579.09 C3.87 442.98, 4.09 305.64, -0.51 0.73" stroke="#1e1e1e" stroke-width="4" fill="none"></path></g><g transform="translate(14161.10669599372 5064.659335821183) rotate(0 801.04931640625 164.50012819847325)"><text x="801.04931640625" y="230.5633796829802" font-family="Virgil, Segoe UI Emoji" font-size="263.20020511755735px" fill="#1e1e1e" text-anchor="middle" style="white-space: pre;" direction="ltr" dominant-baseline="alphabetic">Hash Tables</text></g><g stroke-linecap="round"><g transform="translate(1943.296003859772 700.3929585456299) rotate(0 519.3389114947049 17.695114272988576)"><path d="M2.53 -2.12 C175.96 4.09, 866.29 28.84, 1038.86 35.31 M0.45 2.9 C173.7 9.77, 864.17 34.07, 1036.72 38.89" stroke="#1e1e1e" stroke-width="4" fill="none"></path></g><g transform="translate(1943.296003859772 700.3929585456299) rotate(0 519.3389114947049 17.695114272988576)"><path d="M1011.45 46.81 C1018.58 44.12, 1025.19 42.4, 1036.12 39.67 M1013.28 46.53 C1021.56 43.87, 1031.9 41.28, 1035.73 39.11" stroke="#1e1e1e" stroke-width="4" fill="none"></path></g><g transform="translate(1943.296003859772 700.3929585456299) rotate(0 519.3389114947049 17.695114272988576)"><path d="M1012 29.72 C1018.88 31.08, 1025.36 33.39, 1036.12 39.67 M1013.84 29.44 C1021.95 33.28, 1032.08 37.2, 1035.73 39.11" stroke="#1e1e1e" stroke-width="4" fill="none"></path></g></g><mask></mask><g stroke-linecap="round"><g transform="translate(5536.922576299936 801.0093509317667) rotate(0 909.371040303844 40.09242380890373)"><path d="M0.18 -0.08 C302.77 11.47, 1550.86 53.96, 1818.04 67.19 C2085.21 80.43, 1638.76 76.8, 1603.23 79.34 M-3.16 -2.59 C298.76 8.31, 1548.04 48.79, 1815.42 62.89 C2082.8 76.99, 1636.03 79.54, 1601.13 82" stroke="#1e1e1e" stroke-width="4" fill="none"></path></g><g transform="translate(5536.922576299936 801.0093509317667) rotate(0 909.371040303844 40.09242380890373)"><path d="M1624.36 72.41 C1616.19 76.09, 1605.58 80.8, 1602.75 82.59 M1624 73.12 C1617.81 76.39, 1608.45 78.95, 1601.32 82.43" stroke="#1e1e1e" stroke-width="4" fill="none"></path></g><g transform="translate(5536.922576299936 801.0093509317667) rotate(0 909.371040303844 40.09242380890373)"><path d="M1624.75 89.51 C1616.56 86.51, 1605.79 84.55, 1602.75 82.59 M1624.39 90.21 C1618.02 87.98, 1608.53 85.03, 1601.32 82.43" stroke="#1e1e1e" stroke-width="4" fill="none"></path></g></g><mask></mask><g stroke-linecap="round"><g transform="translate(12323.605770568578 874.9237206580838) rotate(0 152.58100109553834 1.716289172982215)"><path d="M-0.7 1.3 C50.04 1.74, 253.46 1.86, 304.62 2.59 M4.11 -0.46 C54.41 0.4, 251.93 5.46, 302.08 5.76" stroke="#1e1e1e" stroke-width="4" fill="none"></path></g><g transform="translate(12323.605770568578 874.9237206580838) rotate(0 152.58100109553834 1.716289172982215)"><path d="M279.38 13.52 C285.1 12.25, 294.56 9.57, 302.53 6.4 M279.32 14.49 C284.22 11.76, 292.13 9.66, 302.38 5.55" stroke="#1e1e1e" stroke-width="4" fill="none"></path></g><g transform="translate(12323.605770568578 874.9237206580838) rotate(0 152.58100109553834 1.716289172982215)"><path d="M279.67 -3.58 C285.29 0.39, 294.66 2.95, 302.53 6.4 M279.61 -2.6 C284.36 -0.47, 292.19 2.29, 302.38 5.55" stroke="#1e1e1e" stroke-width="4" fill="none"></path></g></g><mask></mask><g stroke-linecap="round"><g transform="translate(3559.825490087652 5230.711420179126) rotate(0 294.1753161709007 -0.28405308021592646)"><path d="M-0.54 -0.84 C97.81 -0.78, 491.15 1.54, 589.44 1.69 M-4.28 -3.77 C93.86 -4.57, 489.11 -3.3, 587.79 -2.09" stroke="#1e1e1e" stroke-width="4" fill="none"></path></g><g transform="translate(3559.825490087652 5230.711420179126) rotate(0 294.1753161709007 -0.28405308021592646)"><path d="M563.64 7.07 C572.29 4.63, 577.6 2.37, 587.49 -2.94 M563.25 6.52 C571.9 3.91, 579.54 0.57, 588.05 -1.86" stroke="#1e1e1e" stroke-width="4" fill="none"></path></g><g transform="translate(3559.825490087652 5230.711420179126) rotate(0 294.1753161709007 -0.28405308021592646)"><path d="M563.76 -10.03 C572.45 -7.77, 577.73 -5.33, 587.49 -2.94 M563.37 -10.58 C572.12 -7.72, 579.73 -5.58, 588.05 -1.86" stroke="#1e1e1e" stroke-width="4" fill="none"></path></g></g><mask></mask><g stroke-linecap="round"><g transform="translate(6140.522715107844 5229.154117765498) rotate(0 295.6479247319353 0)"><path d="M1.09 2.26 C99.87 2.5, 493.61 1.07, 592.13 0.62 M-1.77 1.02 C96.76 0.44, 491.57 -4.29, 590.34 -4.05" stroke="#1e1e1e" stroke-width="4" fill="none"></path></g><g transform="translate(6140.522715107844 5229.154117765498) rotate(0 295.6479247319353 0)"><path d="M568.51 5.23 C573.95 2.75, 579.77 -1.18, 590.74 -2.31 M567.08 5.07 C575.67 1.26, 584.04 -1.4, 590.78 -3.73" stroke="#1e1e1e" stroke-width="4" fill="none"></path></g><g transform="translate(6140.522715107844 5229.154117765498) rotate(0 295.6479247319353 0)"><path d="M568.41 -11.87 C573.82 -9.56, 579.68 -8.68, 590.74 -2.31 M566.99 -12.03 C575.44 -9.72, 583.85 -6.25, 590.78 -3.73" stroke="#1e1e1e" stroke-width="4" fill="none"></path></g></g><mask></mask><g stroke-linecap="round"><g transform="translate(7922.5231325132945 5229.154117765498) rotate(0 294.1262292188692 0)"><path d="M0.83 0.62 C98.84 0.18, 491.44 -0.42, 589.14 -0.43 M-2.16 -1.51 C95.46 -1.71, 489.6 2.06, 587.39 2.97" stroke="#1e1e1e" stroke-width="4" fill="none"></path></g><g transform="translate(7922.5231325132945 5229.154117765498) rotate(0 294.1262292188692 0)"><path d="M564.27 11.94 C571.44 7.56, 580.13 7.32, 588.56 0.99 M564.11 11.08 C571.66 8.75, 579.43 6.15, 587.3 2.23" stroke="#1e1e1e" stroke-width="4" fill="none"></path></g><g transform="translate(7922.5231325132945 5229.154117765498) rotate(0 294.1262292188692 0)"><path d="M564.42 -5.16 C571.68 -3.74, 580.32 1.81, 588.56 0.99 M564.27 -6.02 C571.8 -2.84, 579.51 0.06, 587.3 2.23" stroke="#1e1e1e" stroke-width="4" fill="none"></path></g></g><mask></mask><g stroke-linecap="round"><g transform="translate(9851.91223612753 5229.154117765498) rotate(0 294.12622921887214 0)"><path d="M0.89 -0.43 C98.6 -0.44, 488.77 0.22, 587.06 0.56 M-2.07 -3.13 C95.08 -4.1, 485.47 -4.16, 584.18 -4.14" stroke="#1e1e1e" stroke-width="4" fill="none"></path></g><g transform="translate(9851.91223612753 5229.154117765498) rotate(0 294.12622921887214 0)"><path d="M560.39 3.57 C568.82 3.25, 577.33 -3.28, 584.62 -3.76 M560.96 4.65 C569.17 1.85, 576.69 -2.15, 585 -3.97" stroke="#1e1e1e" stroke-width="4" fill="none"></path></g><g transform="translate(9851.91223612753 5229.154117765498) rotate(0 294.12622921887214 0)"><path d="M560.38 -13.53 C568.86 -8.21, 577.36 -9.11, 584.62 -3.76 M560.95 -12.45 C569.22 -9.39, 576.74 -7.51, 585 -3.97" stroke="#1e1e1e" stroke-width="4" fill="none"></path></g></g><mask></mask><g stroke-linecap="round"><g transform="translate(11482.108506574401 5229.154117765498) rotate(0 294.12622921887214 0)"><path d="M-1.19 0.56 C97.11 0.91, 492.9 1.62, 590.68 1.63 M3.36 -1.6 C101.43 -2.03, 491.85 -3.44, 589.76 -2.49" stroke="#1e1e1e" stroke-width="4" fill="none"></path></g><g transform="translate(11482.108506574401 5229.154117765498) rotate(0 294.12622921887214 0)"><path d="M566.65 7.74 C575.23 1.31, 582.3 0.84, 590.62 -1.91 M566.69 6.32 C572.67 2.84, 580.12 1.39, 589.52 -2.31" stroke="#1e1e1e" stroke-width="4" fill="none"></path></g><g transform="translate(11482.108506574401 5229.154117765498) rotate(0 294.12622921887214 0)"><path d="M566.69 -9.36 C575.23 -10.12, 582.29 -4.91, 590.62 -1.91 M566.73 -10.78 C572.74 -9.5, 580.18 -6.2, 589.52 -2.31" stroke="#1e1e1e" stroke-width="4" fill="none"></path></g></g><mask></mask><g stroke-linecap="round"><g transform="translate(13356.988847708815 5229.154117765498) rotate(0 294.1262292188692 0)"><path d="M2.43 1.63 C100.2 1.64, 487.75 0.69, 585.48 0.61 M0.3 0.05 C99 -0.9, 492.55 -3.44, 590.38 -4.06" stroke="#1e1e1e" stroke-width="4" fill="none"></path></g><g transform="translate(13356.988847708815 5229.154117765498) rotate(0 294.1262292188692 0)"><path d="M568.1 2.66 C573.4 2.57, 579.86 0.54, 589.94 -3.53 M566.85 3.9 C575.3 1.92, 581.82 -0.88, 590.46 -4.45" stroke="#1e1e1e" stroke-width="4" fill="none"></path></g><g transform="translate(13356.988847708815 5229.154117765498) rotate(0 294.1262292188692 0)"><path d="M567.99 -14.44 C573.35 -10.13, 579.84 -7.76, 589.94 -3.53 M566.74 -13.21 C575.3 -9.65, 581.86 -6.92, 590.46 -4.45" stroke="#1e1e1e" stroke-width="4" fill="none"></path></g></g><mask></mask><g stroke-linecap="round" transform="translate(6429.570846204286 2075.2638318012305) rotate(0 1169.781052377358 252.95476625030824)"><path d="M0.35 0.3 C905.3 19.01, 1808.87 18.96, 2339.94 0.71 M0.65 0.13 C775.16 14.07, 1550.78 13.61, 2338.99 0.09 M2338.9 1.1 C2338.84 113.74, 2338.17 227.92, 2339.59 505.91 M2339.93 0.67 C2341.01 170.69, 2339.96 339.6, 2339.52 506.7 M2340.51 505.93 C1610.31 507.93, 881.39 505.99, -0.11 506.52 M2338.89 505.3 C1828.19 493.97, 1317.45 494.48, 0.17 505.75 M1.16 506.5 C-3.5 386.83, -3.01 265.34, 0.84 -1.33 M-0.77 505.68 C-1.96 305.04, -1.58 105.95, 0.42 0.29" stroke="#1e1e1e" stroke-width="4" fill="none"></path></g><g transform="translate(6719.563263327738 2184.494299045682) rotate(0 879.7886352539062 143.72429900585666)"><text x="879.7886352539062" y="201.44397748660919" font-family="Virgil, Segoe UI Emoji" font-size="229.9588784093712px" fill="#1e1e1e" text-anchor="middle" style="white-space: pre;" direction="ltr" dominant-baseline="alphabetic">Time Complexity</text></g><g stroke-linecap="round" transform="translate(10048.460690105054 2050.285623638585) rotate(0 1227.8995657878513 252.95476625030824)"><path d="M0.69 0.47 C493.12 -3.26, 987.31 -2.97, 2456.3 -0.15 M-0.19 0.14 C554.09 -3.59, 1107.47 -3.19, 2455.21 -0.13 M2455.74 -1.02 C2453.38 138.93, 2454.15 281.02, 2456.38 506.27 M2456.33 0.56 C2457.13 149.69, 2457.61 301.47, 2455.89 505.94 M2454.93 506.46 C1698.46 504.73, 943.78 506.73, -1.31 504.96 M2455.46 505.96 C1876.32 491.51, 1297.11 490.79, -0.51 506.64 M0.21 506.49 C-2.23 315.77, -2.1 126.79, 1.53 0.84 M0.17 505.24 C4.46 395.42, 4.34 284.34, 0.52 0.61" stroke="#1e1e1e" stroke-width="4" fill="none"></path></g><g transform="translate(10325.976955111655 2159.5160908830367) rotate(0 950.38330078125 143.72429900585666)"><text x="950.38330078125" y="201.44397748660919" font-family="Virgil, Segoe UI Emoji" font-size="229.9588784093712px" fill="#1e1e1e" text-anchor="middle" style="white-space: pre;" direction="ltr" dominant-baseline="alphabetic">Space Complexity</text></g><g stroke-linecap="round"><g transform="translate(8774.886953269697 2319.162333986531) rotate(0 609.1943181837805 -4.170963482075422)"><path d="M0.82 -0.61 C203.92 -2.09, 1015.99 -6.54, 1219.13 -7.68 M-2.19 -3.41 C200.56 -5.9, 1013.84 -10.82, 1217.29 -12.34" stroke="#1e1e1e" stroke-width="4" fill="none"></path></g><g transform="translate(8774.886953269697 2319.162333986531) rotate(0 609.1943181837805 -4.170963482075422)"><path d="M1193.42 -3.1 C1201.76 -5.59, 1209.39 -9.43, 1215.8 -10.7 M1193.95 -4.02 C1200.58 -6.32, 1207.99 -9.35, 1217.07 -12.75" stroke="#1e1e1e" stroke-width="4" fill="none"></path></g><g transform="translate(8774.886953269697 2319.162333986531) rotate(0 609.1943181837805 -4.170963482075422)"><path d="M1193.3 -20.2 C1201.75 -17.24, 1209.42 -15.63, 1215.8 -10.7 M1193.83 -21.12 C1200.46 -18, 1207.9 -15.62, 1217.07 -12.75" stroke="#1e1e1e" stroke-width="4" fill="none"></path></g></g><mask></mask><g stroke-linecap="round" transform="translate(10578.602782112068 5454.81733428999) rotate(0 662.2217286710107 531.5771974210111)"><path d="M663.38 0.71 C880.27 173.55, 1096.27 350.1, 1324.71 531.61 M662.43 0.09 C873.12 171.1, 1083.86 340.06, 1324.99 531.97 M1324.48 532 C1166.62 652.77, 1009.54 778.78, 664.34 1064.21 M1324.4 532.8 C1077.34 723.99, 832.88 920.72, 663.01 1062.72 M662.89 1063.77 C443.57 879.9, 222.03 701.79, -1.22 531.32 M663.17 1062.99 C459.49 904.8, 257.34 741.82, 0.29 532.11 M0.84 530.67 C222.71 357.99, 442.95 176.61, 662.53 0.33 M0.42 532.29 C140.79 414.83, 282.69 299.89, 663.25 0.03" stroke="#1e1e1e" stroke-width="4" fill="none"></path></g><g transform="translate(10960.16878560773 5855.699735091721) rotate(0 280.54486083984375 130.90619790877372)"><text x="280.54486083984375" y="91.73906349446887" font-family="Virgil, Segoe UI Emoji" font-size="104.72495832701924px" fill="#1e1e1e" text-anchor="middle" style="white-space: pre;" direction="ltr" dominant-baseline="alphabetic">Algorithms </text><text x="280.54486083984375" y="222.64526140324293" font-family="Virgil, Segoe UI Emoji" font-size="104.72495832701924px" fill="#1e1e1e" text-anchor="middle" style="white-space: pre;" direction="ltr" dominant-baseline="alphabetic">Basics</text></g><g stroke-linecap="round" transform="translate(2013.4818373801772 7420.279108801278) rotate(0 637.3552656629722 300.23292541099545)"><path d="M0.5 -0.15 C414.87 -3.22, 832.38 -4.91, 1275 0.14 M-0.59 -0.13 C332.57 -1.48, 666.04 -1.18, 1274.2 -0.37 M1275.29 0.36 C1274.76 121.45, 1276.15 242.49, 1275.82 599.43 M1274.8 0.03 C1274.53 131.54, 1274.48 261.7, 1274.99 599.77 M1273.41 599.52 C1001.62 603.03, 729.37 603.7, 0.1 600.37 M1274.2 601.2 C802.99 598.99, 330.38 598.51, 0.29 600.82 M1.53 601.3 C-3.81 465.61, -2.99 334.18, -1.35 1.09 M0.52 601.07 C-3.28 387.97, -2.29 174.42, -0.2 0.7" stroke="#1e1e1e" stroke-width="4" fill="none"></path></g><g transform="translate(2194.4981748204927 7549.925144774208) rotate(0 456.33892822265625 170.58688943806555)"><text x="456.33892822265625" y="239.0945842363925" font-family="Virgil, Segoe UI Emoji" font-size="272.9390231009047px" fill="#1e1e1e" text-anchor="middle" style="white-space: pre;" direction="ltr" dominant-baseline="alphabetic">Sorting</text></g><g stroke-linecap="round" transform="translate(3970.5399264583793 7420.279108801278) rotate(0 838.5411783939903 300.23292541099545)"><path d="M-1.19 1.31 C577.79 0.85, 1155.34 1.38, 1676.46 -1.15 M-0.18 -0.33 C522.61 2.15, 1043.62 1.82, 1676.29 0.02 M1677.04 0.73 C1680.17 181.13, 1679.94 359.11, 1675.77 600.39 M1677.14 0.47 C1677.64 239.38, 1677.9 478.93, 1676.39 600.41 M1676.06 599.11 C1108.28 591.81, 542.02 592.4, 1.13 600.81 M1677.67 601.05 C1208.09 612.89, 738.79 613.14, -0.62 600.88 M-1.29 598.92 C-5.07 470.63, -5.94 341.21, 0.88 0.85 M-0.74 601.01 C-2.86 398.37, -3.32 196.91, 0.71 -0.39" stroke="#1e1e1e" stroke-width="4" fill="none"></path></g><g transform="translate(4203.858875848464 7549.925144774208) rotate(0 605.2222290039062 170.58688943806555)"><text x="605.2222290039062" y="239.0945842363925" font-family="Virgil, Segoe UI Emoji" font-size="272.9390231009047px" fill="#1e1e1e" text-anchor="middle" style="white-space: pre;" direction="ltr" dominant-baseline="alphabetic">Searching</text></g><g stroke-linecap="round" transform="translate(6329.969840998629 7420.279108801278) rotate(0 834.2231977550894 300.23292541099545)"><path d="M0.27 -0.39 C485.44 -10.76, 969.68 -12.05, 1668.63 -1.17 M0.55 -0.03 C472.85 5.19, 945.93 5.57, 1668.45 0.29 M1669.79 1.05 C1669.42 192.78, 1667 387.55, 1670.04 600.65 M1668.45 -0.43 C1669.1 181.66, 1668.13 364.65, 1668.75 599.81 M1667.23 599.78 C1267.16 589.08, 866.8 589.52, -0.32 599.45 M1668.74 600.57 C1015.04 610.52, 360.43 610.59, -0.67 601.23 M-0.47 600.8 C2.53 389.93, 4.75 178.06, 0.59 1.04 M0.25 600.5 C4.26 375.47, 5.17 148.67, -0.16 -0.25" stroke="#1e1e1e" stroke-width="4" fill="none"></path></g><g transform="translate(6549.008834652155 7549.925144774208) rotate(0 615.1842041015625 170.58688943806555)"><text x="615.1842041015625" y="239.0945842363925" font-family="Virgil, Segoe UI Emoji" font-size="272.9390231009047px" fill="#1e1e1e" text-anchor="middle" style="white-space: pre;" direction="ltr" dominant-baseline="alphabetic">Recursion</text></g><g stroke-linecap="round" transform="translate(8680.763794261064 7422.173108973513) rotate(0 1797.2394970359182 300.23292541099545)"><path d="M0.29 0.14 C1371.37 5.8, 2744.16 5.78, 3594.22 -0.36 M-0.51 -0.37 C927.97 1.12, 1857.53 1.39, 3594.66 -0.02 M3595.59 -1.04 C3597.19 207.56, 3600.09 415.46, 3594.54 600.59 M3594.76 -0.69 C3593.84 215.55, 3594.84 430.55, 3594 599.95 M3594.58 600.37 C2821.38 588.55, 2045.71 587.19, 1.47 601.64 M3594.77 600.82 C2254.29 604.68, 914.68 605.02, 0.42 599.82 M-1.35 601.55 C2.28 479.22, 1.99 357.33, 1.21 -1.49 M-0.2 601.17 C-0.82 379.23, -1.69 158.51, 0.31 0.58" stroke="#1e1e1e" stroke-width="4" fill="none"></path></g><g transform="translate(9122.496577429794 7551.819144946443) rotate(0 1355.5067138671875 170.58688943806555)"><text x="1355.5067138671875" y="239.0945842363925" font-family="Virgil, Segoe UI Emoji" font-size="272.9390231009047px" fill="#1e1e1e" text-anchor="middle" style="white-space: pre;" direction="ltr" dominant-baseline="alphabetic">Dynamic Programming</text></g><g stroke-linecap="round"><g transform="translate(10795.628001809047 6167.7233075466975) rotate(0 -3741.1501670212306 726.4950813667483)"><path d="M0.25 -1.09 C-189.9 81.78, 105.88 255.48, -1141.56 497.75 C-2388.99 740.03, -6427.45 1293.52, -7484.35 1452.53 M-3.06 -4.15 C-192.26 79.19, 109.68 258.3, -1136.24 501.56 C-2382.17 744.81, -6420.89 1296.69, -7478.63 1455.4" stroke="#1e1e1e" stroke-width="4" fill="none"></path></g><g transform="translate(10795.628001809047 6167.7233075466975) rotate(0 -3741.1501670212306 726.4950813667483)"><path d="M-7457.37 1442.16 C-7462.42 1445.4, -7469.05 1449.68, -7479.46 1456.77 M-7457.58 1443.61 C-7463.19 1447.35, -7469.49 1450.46, -7478.17 1456.23" stroke="#1e1e1e" stroke-width="4" fill="none"></path></g><g transform="translate(10795.628001809047 6167.7233075466975) rotate(0 -3741.1501670212306 726.4950813667483)"><path d="M-7454.94 1459.08 C-7460.69 1457.66, -7467.99 1457.27, -7479.46 1456.77 M-7455.15 1460.54 C-7461.38 1459.25, -7468.39 1457.34, -7478.17 1456.23" stroke="#1e1e1e" stroke-width="4" fill="none"></path></g></g><mask></mask><g stroke-linecap="round"><g transform="translate(3295.022667759218 7720.506490138374) rotate(0 305.00935831525976 0)"><path d="M-2.01 0.32 C99.28 0.42, 506.07 -0.21, 607.97 -0.46 M2.1 -1.98 C104.24 -1.33, 512.4 2.38, 613.26 2.93" stroke="#1e1e1e" stroke-width="4" fill="none"></path></g><g transform="translate(3295.022667759218 7720.506490138374) rotate(0 305.00935831525976 0)"><path d="M589.93 9.84 C596.69 8.44, 603.46 7.67, 613.18 1.66 M589.7 11.66 C596 9.14, 602.23 7.87, 613.92 3.62" stroke="#1e1e1e" stroke-width="4" fill="none"></path></g><g transform="translate(3295.022667759218 7720.506490138374) rotate(0 305.00935831525976 0)"><path d="M590.06 -7.26 C596.71 -3.38, 603.44 1.13, 613.18 1.66 M589.83 -5.44 C595.93 -3.61, 602.12 -0.53, 613.92 3.62" stroke="#1e1e1e" stroke-width="4" fill="none"></path></g></g><mask></mask><g stroke-linecap="round"><g transform="translate(5654.444052954994 7720.506490138374) rotate(0 305.00935831525976 0)"><path d="M-2.05 -0.46 C99.85 -0.7, 507.06 -1.22, 609.4 -1.17 M2.03 -3.17 C103.69 -3.07, 505.29 0.81, 606.82 1.83" stroke="#1e1e1e" stroke-width="4" fill="none"></path></g><g transform="translate(5654.444052954994 7720.506490138374) rotate(0 305.00935831525976 0)"><path d="M582.92 9.71 C587.79 9.8, 593.92 5.26, 605.91 -0.15 M583.47 10.13 C590.82 8.39, 598.14 5.74, 606.17 1.01" stroke="#1e1e1e" stroke-width="4" fill="none"></path></g><g transform="translate(5654.444052954994 7720.506490138374) rotate(0 305.00935831525976 0)"><path d="M583.08 -7.39 C587.93 -3.4, 594.03 -4.04, 605.91 -0.15 M583.64 -6.97 C590.94 -3.54, 598.21 -1.03, 606.17 1.01" stroke="#1e1e1e" stroke-width="4" fill="none"></path></g></g><mask></mask><g stroke-linecap="round"><g transform="translate(8005.240565020775 7720.506490138374) rotate(0 305.00935831526 0)"><path d="M-0.62 -1.17 C101.71 -1.11, 510.47 -0.09, 611.94 -0.11 M4.23 -4.27 C106.55 -3.69, 509.11 2.56, 610.75 3.46" stroke="#1e1e1e" stroke-width="4" fill="none"></path></g><g transform="translate(8005.240565020775 7720.506490138374) rotate(0 305.00935831526 0)"><path d="M586.32 13.09 C592.44 8.63, 596.96 6.05, 610.79 3.46 M587.61 12.56 C595.73 9.65, 602.36 5.36, 610.7 4.46" stroke="#1e1e1e" stroke-width="4" fill="none"></path></g><g transform="translate(8005.240565020775 7720.506490138374) rotate(0 305.00935831526 0)"><path d="M586.54 -4 C592.58 -4.59, 597.05 -3.3, 610.79 3.46 M587.83 -4.54 C595.91 -1.7, 602.47 -0.24, 610.7 4.46" stroke="#1e1e1e" stroke-width="4" fill="none"></path></g></g><mask></mask><g stroke-linecap="round"><g transform="translate(13476.233643348762 5201.960569135072) rotate(0 -804.8844247400166 461.9512015134187)"><path d="M1.93 -0.11 C-121.25 128.7, -470.62 617.64, -739.69 771.65 C-1008.77 925.66, -1467.53 898.42, -1612.54 923.96 M-0.47 -2.63 C-122.69 126.64, -466.47 619.63, -734.26 774.59 C-1002.05 929.54, -1461.39 901.52, -1607.21 927.1" stroke="#1e1e1e" stroke-width="4" fill="none"></path></g></g><mask></mask><g stroke-linecap="round" transform="translate(1657.9875595377653 8262.775743656) rotate(0 1371.604502511153 882.1736543624656)"><path d="M1371.27 -1.58 C1877.41 332.57, 2383.6 658.55, 2743.16 883.73 M1371.48 -0.65 C1902.8 332.01, 2429.11 670.08, 2743.27 883.47 M2741.82 881.61 C2326.5 1152.73, 1912.52 1416.48, 1370.98 1762.99 M2743.16 883.56 C2433.44 1080.84, 2125.83 1279.02, 1372.59 1764.93 M1372.71 1763.1 C909.93 1470.25, 448.65 1175.66, -1.29 881.45 M1372.54 1764.79 C999.57 1516.84, 628.27 1278.58, -0.74 883.54 M1.41 884.42 C454.17 592.48, 909.68 300.44, 1373.16 1.27 M-0.3 882.62 C505.31 548.44, 1014.35 220.33, 1372.16 -0.36" stroke="#1e1e1e" stroke-width="4" fill="none"></path></g><g transform="translate(2517.3275915550603 9065.924270440537) rotate(0 512.4622192382812 78.9383003966941)"><text x="512.4622192382812" y="110.63992183600749" font-family="Virgil, Segoe UI Emoji" font-size="126.30128063471174px" fill="#1e1e1e" text-anchor="middle" style="white-space: pre;" direction="ltr" dominant-baseline="alphabetic">Advanced Topics</text></g><g stroke-linecap="round" transform="translate(4652.819540342198 8776.864875190107) rotate(0 1450.6153183336974 289.2294924365551)"><path d="M0.03 0 C686.84 23.33, 1372.47 23.7, 2902.57 1.05 M-0.04 0.8 C1072.22 19, 2144.32 19.44, 2901.24 -0.43 M2901.12 0.61 C2895.91 192.58, 2896.19 385.72, 2900.01 577.78 M2901.4 -0.16 C2900.46 178.06, 2901.55 355.24, 2901.52 578.56 M2902.07 577.13 C1926.66 561.2, 947.73 558.81, -0.47 578.79 M2901.65 578.75 C2275.3 591.78, 1647.58 591.72, 0.25 578.49 M-0.78 578.13 C-4.58 420.21, -2.92 261.99, 1.14 1.09 M0.36 578.97 C1.35 368.51, 1.88 157.25, -0.76 0.25" stroke="#1e1e1e" stroke-width="4" fill="none"></path></g><g transform="translate(4958.506147738395 8901.759428742258) rotate(0 1144.9287109375 164.33493888440717)"><text x="1144.9287109375" y="230.33185034038416" font-family="Virgil, Segoe UI Emoji" font-size="262.9359022150504px" fill="#1e1e1e" text-anchor="middle" style="white-space: pre;" direction="ltr" dominant-baseline="alphabetic">Greedy Algorithms</text></g><g stroke-linecap="round" transform="translate(8211.389932547212 8776.864875190107) rotate(0 1040.9591284959124 289.2294924365551)"><path d="M0.58 0.36 C418.51 0.75, 838.45 1.07, 2083.03 -1.04 M0.09 0.03 C454.49 -16.08, 908.86 -16.98, 2082.19 -0.69 M2080.61 -0.95 C2080.58 122.11, 2080.39 246.24, 2082.02 578.37 M2081.41 0.73 C2083.5 214.91, 2083.2 428.77, 2082.21 578.81 M2083.45 579.3 C1618.42 563.05, 1157.04 564.93, -1.35 579.54 M2082.44 579.07 C1342.53 585.1, 604.88 584.59, -0.2 579.16 M-0.51 579.08 C3.41 354.8, 3.4 129.69, 1.02 -0.6 M-0.38 578.94 C-1.9 431.8, -2.82 286.11, -0.57 0.47" stroke="#1e1e1e" stroke-width="4" fill="none"></path></g><g transform="translate(8434.505372078282 8901.759428742258) rotate(0 817.8436889648438 164.33493888440717)"><text x="817.8436889648438" y="230.33185034038416" font-family="Virgil, Segoe UI Emoji" font-size="262.9359022150504px" fill="#1e1e1e" text-anchor="middle" style="white-space: pre;" direction="ltr" dominant-baseline="alphabetic">Backtracking</text></g><g stroke-linecap="round" transform="translate(10950.647945076671 8776.864875190107) rotate(0 1366.44501682384 289.2294924365551)"><path d="M-0.05 0.73 C820.91 -3.93, 1640.26 -6.02, 2731.58 -0.08 M0.06 0.47 C1091.46 -1.24, 2183.18 -1.5, 2732.2 -0.05 M2731.87 -1.35 C2727.9 195.09, 2729.22 391.45, 2734.02 578.8 M2733.48 0.58 C2730.25 161.97, 2730.24 324.09, 2732.27 578.88 M2731.6 576.91 C2139.98 590.26, 1546.67 591.01, 0.88 579.31 M2732.15 579 C1813.2 595.08, 892.8 595.75, 0.71 578.07 M1.16 579.73 C2.61 417.75, 2.49 254.27, -0.75 0.71 M0.16 578.1 C1.42 368.04, 1.61 157.59, -0.74 0.01" stroke="#1e1e1e" stroke-width="4" fill="none"></path></g><g transform="translate(11235.004582994261 8901.759428742258) rotate(0 1082.08837890625 164.33493888440717)"><text x="1082.08837890625" y="230.33185034038416" font-family="Virgil, Segoe UI Emoji" font-size="262.9359022150504px" fill="#1e1e1e" text-anchor="middle" style="white-space: pre;" direction="ltr" dominant-baseline="alphabetic">Graph Algorithms</text></g><g stroke-linecap="round" transform="translate(14941.672908928253 8736.841517937028) rotate(0 2109.6497779285696 289.22949243655603)"><path d="M1.34 1.05 C1363 -16.5, 2722.47 -15.54, 4220.89 0.18 M0.01 -0.43 C1281.63 -20.63, 2562.01 -19.99, 4219.61 -0.65 M4218.08 -0.68 C4216.44 139.07, 4217.46 278.67, 4218.98 577.44 M4219.59 0.11 C4222.99 226.99, 4222.07 453.7, 4218.63 579.22 M4218.83 578.79 C2730.92 546.91, 1246.11 546.67, 0.59 579.5 M4219.55 578.49 C2633.15 602.05, 1048.13 600.95, -0.16 578.21 M1.14 579.55 C-2.33 381.78, -4.11 187.01, 1.03 -0.75 M-0.76 578.71 C-1.5 370.78, -1.67 162.18, 0.7 0.33" stroke="#1e1e1e" stroke-width="4" fill="none"></path></g><g transform="translate(15212.127252286511 8861.736071489177) rotate(0 1839.195434570312 164.33493888440717)"><text x="1839.1954345703125" y="230.33185034038416" font-family="Virgil, Segoe UI Emoji" font-size="262.9359022150504px" fill="#1e1e1e" text-anchor="middle" style="white-space: pre;" direction="ltr" dominant-baseline="alphabetic">Trees and Graphs Advanced</text></g><g stroke-linecap="round" transform="translate(7012.462906855018 9506.211901203224) rotate(0 1434.7758077437893 711.446028567847)"><path d="M1436.11 -1.04 C1934.53 238.57, 2433.49 485.04, 2869.61 712.13 M1435.28 -0.69 C1949.45 261.79, 2465.53 516.84, 2869.08 711.49 M2869.66 711.91 C2557.36 860.57, 2246.91 1012.33, 1436.47 1424.07 M2869.84 712.35 C2336.4 978.86, 1801.73 1244.14, 1435.42 1422.25 M1433.65 1423.98 C1145.77 1281.59, 853.71 1137.24, 1.21 710.51 M1434.8 1423.6 C906.11 1161.5, 377.45 900.17, 0.31 712.58 M1.02 711.4 C539.29 434.93, 1085.18 163.49, 1435.96 0.32 M-0.57 712.47 C370.11 527.02, 737.02 346.01, 1434.85 0.72" stroke="#1e1e1e" stroke-width="4" fill="none"></path></g><g transform="translate(8188.877849301132 10138.496615090455) rotate(0 258.47296142578125 78.9383003966941)"><text x="258.47296142578125" y="110.63992183600749" font-family="Virgil, Segoe UI Emoji" font-size="126.30128063471174px" fill="#1e1e1e" text-anchor="middle" style="white-space: pre;" direction="ltr" dominant-baseline="alphabetic">Practice</text></g><g stroke-linecap="round" transform="translate(4131.919669629566 11612.994339492554) rotate(0 1389.8710311311359 358.3808097853016)"><path d="M-1.31 -0.08 C1018.61 14.62, 2034.09 14.56, 2780.69 0.02 M-0.69 -0.05 C684.01 18.66, 1366.94 18.8, 2779.07 -0.61 M2780.87 0.34 C2779.8 183.45, 2781.59 370.1, 2780.9 717.35 M2779.12 0.42 C2781.17 225.24, 2782.25 448.31, 2778.97 716.53 M2780.62 717.61 C1888.46 732.88, 997.21 730.36, 1.08 717.27 M2780.45 716.37 C1934.56 736.1, 1090.01 736.93, 0.63 717.33 M-0.75 717.48 C-2.63 452.23, -2.7 189.52, -0.73 -1.52 M-0.74 716.77 C4.78 479.22, 3.92 241.76, 0.78 0.07" stroke="#1e1e1e" stroke-width="4" fill="none"></path></g><g transform="translate(4454.632985916952 11767.749689172571) rotate(0 1067.15771484375 203.62546010528422)"><text x="1067.15771484375" y="285.4014448835675" font-family="Virgil, Segoe UI Emoji" font-size="325.800736168456px" fill="#1e1e1e" text-anchor="middle" style="white-space: pre;" direction="ltr" dominant-baseline="alphabetic">Online Judges</text></g><g stroke-linecap="round" transform="translate(7726.163572312989 11612.994339492554) rotate(0 1572.8157804444777 358.3808097853016)"><path d="M1.59 0.18 C739.5 1.37, 1479.83 1.27, 3144.77 0.55 M0.31 -0.65 C670.02 1.18, 1340.31 1.09, 3145.29 0.05 M3145.31 -1.02 C3151.14 212.06, 3150.84 422.37, 3145.84 717.34 M3144.97 0.77 C3141.58 246.07, 3140.39 493.19, 3145.8 716.09 M3146.22 717.8 C1989.79 728.59, 832.6 730.58, 0.06 716.36 M3145.47 716.51 C1925.14 705.1, 704.65 705.1, 0.54 717.27 M1.03 716.01 C3.66 528.74, 1.97 338.56, 0.51 -1.14 M0.7 717.09 C5.14 460.61, 6.07 203.08, -0.16 -0.66" stroke="#1e1e1e" stroke-width="4" fill="none"></path></g><g transform="translate(8057.681379124655 11767.749689172571) rotate(0 1241.2979736328125 203.62546010528422)"><text x="1241.2979736328125" y="285.4014448835675" font-family="Virgil, Segoe UI Emoji" font-size="325.800736168456px" fill="#1e1e1e" text-anchor="middle" style="white-space: pre;" direction="ltr" dominant-baseline="alphabetic">Project Building</text></g><g stroke-linecap="round" transform="translate(11548.640723623092 11618.658401992554) rotate(0 545.5889671695979 358.3808097853016)"><path d="M32 0 C335.12 -0.81, 639.06 -0.91, 1059.18 0 M32 0 C283.95 7.08, 537.6 6.48, 1059.18 0 M1059.18 0 C1078.13 -2.56, 1087.79 7.62, 1091.18 32 M1059.18 0 C1078.55 0.3, 1090.91 13.91, 1091.18 32 M1091.18 32 C1091.59 243.01, 1091.29 452.25, 1091.18 684.76 M1091.18 32 C1092.46 236.85, 1092.42 441.64, 1091.18 684.76 M1091.18 684.76 C1093.28 702.87, 1076.64 715.59, 1059.18 716.76 M1091.18 684.76 C1092.14 702.23, 1083.63 719.28, 1059.18 716.76 M1059.18 716.76 C697.9 720.6, 335.28 722.6, 32 716.76 M1059.18 716.76 C747.63 723.61, 434.5 723.75, 32 716.76 M32 716.76 C12.23 719.66, 3.17 708.96, 0 684.76 M32 716.76 C13.8 719.69, -1.71 703.93, 0 684.76 M0 684.76 C-2.39 460.14, -4.08 233.35, 0 32 M0 684.76 C2.97 468.14, 4.41 251.84, 0 32 M0 32 C-0.75 14.29, 14.56 0.36, 32 0 M0 32 C-0.93 6.86, 7.89 0.62, 32 0" stroke="#1e1e1e" stroke-width="4" fill="none"></path></g><g transform="translate(11815.670700314175 11773.413751672571) rotate(0 278.5589904785155 203.62546010528422)"><text x="278.5589904785156" y="285.4014448835675" font-family="Virgil, Segoe UI Emoji" font-size="325.800736168456px" fill="#1e1e1e" text-anchor="middle" style="white-space: pre;" direction="ltr" dominant-baseline="alphabetic">End</text></g><g stroke-linecap="round"><g transform="translate(4374.245344864947 9124.72945371037) rotate(0 138.73250622335263 14.39425360651694)"><path d="M0.22 1.65 C9.57 6.18, 10.05 25.07, 56.42 27.28 C102.79 29.48, 242 16.56, 278.43 14.87 M-3.11 0.08 C5.85 4.95, 7.49 27.32, 54.2 30.08 C100.91 32.85, 240.47 18.41, 277.15 16.66" stroke="#1e1e1e" stroke-width="4" fill="none"></path></g><g transform="translate(4374.245344864947 9124.72945371037) rotate(0 138.73250622335263 14.39425360651694)"><path d="M255.55 26.98 C260.38 24.42, 266.81 18.8, 277.02 17.43 M253.52 26.19 C258.98 24.92, 264.32 23.31, 277.37 16.46" stroke="#1e1e1e" stroke-width="4" fill="none"></path></g><g transform="translate(4374.245344864947 9124.72945371037) rotate(0 138.73250622335263 14.39425360651694)"><path d="M254.26 9.92 C259.5 12.68, 266.33 12.36, 277.02 17.43 M252.24 9.14 C257.87 11.6, 263.5 13.71, 277.37 16.46" stroke="#1e1e1e" stroke-width="4" fill="none"></path></g></g><mask></mask><g stroke-linecap="round"><g transform="translate(7560.628504613131 9066.08902674116) rotate(0 293.83087072532544 0)"><path d="M0.03 -1.51 C98.1 -2.19, 491.09 -2.65, 588.63 -2.43 M-3.4 3.84 C94.36 3.27, 487.89 0.05, 586.92 -0.12" stroke="#1e1e1e" stroke-width="4" fill="none"></path></g><g transform="translate(7560.628504613131 9066.08902674116) rotate(0 293.83087072532544 0)"><path d="M562.39 9.25 C568.9 4.15, 577.72 3.98, 585.29 -1.31 M563.04 8.62 C569.02 7.39, 574.82 4.44, 586.28 0.8" stroke="#1e1e1e" stroke-width="4" fill="none"></path></g><g transform="translate(7560.628504613131 9066.08902674116) rotate(0 293.83087072532544 0)"><path d="M562.3 -7.85 C568.94 -7.69, 577.79 -2.59, 585.29 -1.31 M562.95 -8.48 C568.8 -5.67, 574.63 -4.59, 586.28 0.8" stroke="#1e1e1e" stroke-width="4" fill="none"></path></g></g><mask></mask><g stroke-linecap="round"><g transform="translate(10299.881587094418 9066.08902674116) rotate(0 293.8308707253161 0)"><path d="M0.97 -2.43 C98.5 -2.21, 487.28 -0.21, 585.24 -0.19 M-1.95 2.42 C96.43 3.24, 492.08 3.81, 590.32 3.34" stroke="#1e1e1e" stroke-width="4" fill="none"></path></g><g transform="translate(10299.881587094418 9066.08902674116) rotate(0 293.8308707253161 0)"><path d="M565.1 10.18 C573.82 10.02, 579.39 5.48, 589.04 1.65 M566.78 12.62 C572.35 9.78, 576.76 8.98, 591.06 4.06" stroke="#1e1e1e" stroke-width="4" fill="none"></path></g><g transform="translate(10299.881587094418 9066.08902674116) rotate(0 293.8308707253161 0)"><path d="M565.09 -6.92 C573.72 -1.93, 579.29 -1.32, 589.04 1.65 M566.76 -4.48 C572.26 -3.5, 576.67 -0.47, 591.06 4.06" stroke="#1e1e1e" stroke-width="4" fill="none"></path></g></g><mask></mask><g stroke-linecap="round"><g transform="translate(16928.487288816592 9316.30050281014) rotate(0 -3568.4637951137875 427.69421498999327)"><path d="M-2.42 -0.19 C-640.97 105.48, -2640.95 489.27, -3830.31 631.56 C-5019.68 773.86, -6587.09 816.65, -7138.59 853.59 M1.46 -2.76 C-637.45 103.4, -2642.95 490.87, -3831.97 633.95 C-5020.99 777.03, -6581.32 818.94, -7132.66 855.73" stroke="#1e1e1e" stroke-width="4" fill="none"></path></g><g transform="translate(16928.487288816592 9316.30050281014) rotate(0 -3568.4637951137875 427.69421498999327)"><path d="M-7109.77 846.77 C-7119.05 847.87, -7126.41 850.62, -7134.19 854.88 M-7109.42 845.8 C-7117.33 850.06, -7123.02 852.86, -7132.3 855.86" stroke="#1e1e1e" stroke-width="4" fill="none"></path></g><g transform="translate(16928.487288816592 9316.30050281014) rotate(0 -3568.4637951137875 427.69421498999327)"><path d="M-7108.9 863.85 C-7118.33 859.23, -7125.97 856.26, -7134.19 854.88 M-7108.55 862.88 C-7116.72 861.91, -7122.68 859.47, -7132.3 855.86" stroke="#1e1e1e" stroke-width="4" fill="none"></path></g></g><mask></mask><g stroke-linecap="round"><g transform="translate(7595.981374942444 10508.346777818584) rotate(0 -1210.0855130122513 551.7207666049799)"><path d="M1.08 -2.28 C-311.83 70.95, -1475.92 255.28, -1879.86 439.21 C-2283.79 623.14, -2332.29 990.57, -2422.54 1101.31 M-1.78 2.65 C-313.55 76.22, -1471.82 258.43, -1874.36 441.86 C-2276.89 625.3, -2325.82 992.52, -2416.99 1103.26" stroke="#1e1e1e" stroke-width="4" fill="none"></path></g><g transform="translate(7595.981374942444 10508.346777818584) rotate(0 -1210.0855130122513 551.7207666049799)"><path d="M-2415.41 1077.28 C-2415.76 1082.08, -2416.69 1088.21, -2416.86 1103.15 M-2414.42 1079.39 C-2414.18 1088.38, -2415.74 1096.97, -2416.63 1103.7" stroke="#1e1e1e" stroke-width="4" fill="none"></path></g><g transform="translate(7595.981374942444 10508.346777818584) rotate(0 -1210.0855130122513 551.7207666049799)"><path d="M-2400.23 1085.15 C-2403.82 1088.33, -2407.98 1092.78, -2416.86 1103.15 M-2399.23 1087.25 C-2404.64 1093.3, -2411.83 1098.97, -2416.63 1103.7" stroke="#1e1e1e" stroke-width="4" fill="none"></path></g></g><mask></mask><g stroke-linecap="round"><g transform="translate(6919.809804678007 11971.368531450411) rotate(0 364.0823226682462 0)"><path d="M-1.66 -1.79 C119.12 -1.77, 604.36 -2.46, 725.8 -2.13 M2.63 3.4 C124.17 3.93, 610.6 0.34, 730.91 0.34" stroke="#1e1e1e" stroke-width="4" fill="none"></path></g><g transform="translate(6919.809804678007 11971.368531450411) rotate(0 364.0823226682462 0)"><path d="M706.17 7.29 C713.94 5.35, 723.53 3.16, 732.32 0.77 M708.19 9.71 C714.44 6.48, 721 4.37, 730.13 0.86" stroke="#1e1e1e" stroke-width="4" fill="none"></path></g><g transform="translate(6919.809804678007 11971.368531450411) rotate(0 364.0823226682462 0)"><path d="M706.1 -9.81 C713.75 -5.97, 723.37 -2.37, 732.32 0.77 M708.12 -7.39 C714.28 -5.83, 720.86 -3.16, 730.13 0.86" stroke="#1e1e1e" stroke-width="4" fill="none"></path></g></g><mask></mask><g stroke-linecap="round"><g transform="translate(10879.934042842357 11971.368531450411) rotate(0 364.0823226682462 0)"><path d="M-2.37 -2.13 C119.07 -1.8, 605.24 -0.5, 726.97 0.18 M1.54 2.88 C122.65 3.87, 603.32 4.81, 724.08 3.91" stroke="#1e1e1e" stroke-width="4" fill="none"></path></g><g transform="translate(10879.934042842357 11971.368531450411) rotate(0 364.0823226682462 0)"><path d="M699.09 11.66 C706.44 10.52, 713.37 9, 723.68 2.64 M700.98 12.64 C710.11 9.41, 718.16 6.13, 723.25 4.87" stroke="#1e1e1e" stroke-width="4" fill="none"></path></g><g transform="translate(10879.934042842357 11971.368531450411) rotate(0 364.0823226682462 0)"><path d="M699.05 -5.45 C706.31 -2.46, 713.24 0.13, 723.68 2.64 M700.94 -4.46 C710.21 -0.99, 718.28 2.42, 723.25 4.87" stroke="#1e1e1e" stroke-width="4" fill="none"></path></g></g><mask></mask><g stroke-linecap="round"><g transform="translate(3025.728209054123 8290.131357151935) rotate(0 5149.184695829596 61.91290755858154)"><path d="M-1.19 0.18 C1715.57 21.51, 8581.51 105.29, 10298.21 125.8 M3.35 -2.19 C1719.94 18.55, 8580.19 100.49, 10295.88 121.86" stroke="#1e1e1e" stroke-width="4" fill="none"></path></g></g><mask></mask><g stroke-linecap="round"><g transform="translate(12274.954331458162 7859.819959663819) rotate(0 521.8149601330128 275.0402297073897)"><path d="M-0.16 1.97 C174.08 93.53, 870.56 457.74, 1044.23 549.52 M-3.69 0.58 C170.33 92.55, 867.08 461.52, 1042.32 552.84" stroke="#1e1e1e" stroke-width="4" fill="none"></path></g></g><mask></mask><g stroke-linecap="round"><g transform="translate(11872.075201832353 2557.1951561392016) rotate(0 -871.2017300126678 499.5378704069244)"><path d="M0.6 -0.56 C-105.6 130.27, -347.21 620.03, -637.37 786.97 C-927.53 953.92, -1556.35 965.7, -1740.35 1001.11 M-2.52 -3.34 C-107.8 126.59, -342.18 616.69, -631.94 783.36 C-921.69 950.03, -1556.32 960.2, -1741.04 996.69" stroke="#1e1e1e" stroke-width="4" fill="none"></path></g><g transform="translate(11872.075201832353 2557.1951561392016) rotate(0 -871.2017300126678 499.5378704069244)"><path d="M-1719.08 984.23 C-1723.35 990.31, -1730.31 992.87, -1740.78 997.41 M-1719.51 986.46 C-1725.94 988.66, -1735.13 993.03, -1740.83 995.84" stroke="#1e1e1e" stroke-width="4" fill="none"></path></g><g transform="translate(11872.075201832353 2557.1951561392016) rotate(0 -871.2017300126678 499.5378704069244)"><path d="M-1717.13 1001.22 C-1722.08 1002.3, -1729.62 999.86, -1740.78 997.41 M-1717.56 1003.45 C-1724.52 999.81, -1734.39 998.33, -1740.83 995.84" stroke="#1e1e1e" stroke-width="4" fill="none"></path></g></g><mask></mask><g stroke-linecap="round"><g transform="translate(8278.43042031985 3602.919202197223) rotate(0 -2690.8627182669525 694.434700925096)"><path d="M-1.78 2.57 C-732.78 85.14, -3488.92 263.73, -4385.41 494.84 C-5281.89 725.96, -5214.81 1240.03, -5380.7 1389.24 M2.45 1.5 C-728.79 83.34, -3489.13 259.1, -4386.53 490.94 C-5283.93 722.78, -5216.44 1243.58, -5381.95 1392.55" stroke="#1e1e1e" stroke-width="4" fill="none"></path></g><g transform="translate(8278.43042031985 3602.919202197223) rotate(0 -2690.8627182669525 694.434700925096)"><path d="M-5376.35 1369.3 C-5377.99 1376.49, -5380.39 1384.43, -5381.06 1390.99 M-5377.66 1367.03 C-5380.68 1376.29, -5380.83 1384.45, -5381.27 1393.1" stroke="#1e1e1e" stroke-width="4" fill="none"></path></g><g transform="translate(8278.43042031985 3602.919202197223) rotate(0 -2690.8627182669525 694.434700925096)"><path d="M-5361.34 1377.5 C-5367.79 1381.96, -5375.01 1387.26, -5381.06 1390.99 M-5362.65 1375.23 C-5370.9 1381.74, -5376.33 1387.01, -5381.27 1393.1" stroke="#1e1e1e" stroke-width="4" fill="none"></path></g></g><mask></mask><g stroke-linecap="round"><g transform="translate(13794.400607794621 1696.6587672036003) rotate(0 -3144.5960826749324 -51.838849803374615)"><path d="M2.05 2.03 C-1045.68 -15.61, -5239.79 -85.9, -6288.16 -103.31 M-0.27 0.67 C-1048.12 -15.25, -5241.65 -81.48, -6289.84 -99.48" stroke="#1e1e1e" stroke-width="4" fill="none"></path></g><g transform="translate(13794.400607794621 1696.6587672036003) rotate(0 -3144.5960826749324 -51.838849803374615)"><path d="M-6264.76 -106.91 C-6271.47 -104.81, -6276.43 -105.17, -6288.8 -101.14 M-6267.18 -107.94 C-6275.31 -105.44, -6284.19 -100.82, -6289.31 -99.11" stroke="#1e1e1e" stroke-width="4" fill="none"></path></g><g transform="translate(13794.400607794621 1696.6587672036003) rotate(0 -3144.5960826749324 -51.838849803374615)"><path d="M-6265.04 -89.81 C-6271.84 -91.76, -6276.74 -96.16, -6288.8 -101.14 M-6267.46 -90.84 C-6275.57 -95.11, -6284.34 -97.26, -6289.31 -99.11" stroke="#1e1e1e" stroke-width="4" fill="none"></path></g></g><mask></mask><g stroke-linecap="round"><g transform="translate(7505.9016519899615 1592.9783969367618) rotate(0 -2.67578125 249.31640625)"><path d="M1.03 0.37 C-0.04 83.34, -2.9 416.58, -4.33 499.87 M-1.86 -1.9 C-3.39 80.04, -6.01 412.65, -6.02 495.53" stroke="#1e1e1e" stroke-width="4" fill="none"></path></g><g transform="translate(7505.9016519899615 1592.9783969367618) rotate(0 -2.67578125 249.31640625)"><path d="M-14.19 472.73 C-10.25 479.19, -6.93 487.88, -4.1 496.58 M-14.25 471.16 C-12.15 477.73, -10.45 482.71, -5.37 496.29" stroke="#1e1e1e" stroke-width="4" fill="none"></path></g><g transform="translate(7505.9016519899615 1592.9783969367618) rotate(0 -2.67578125 249.31640625)"><path d="M2.91 472.81 C0.47 479.31, -2.6 487.96, -4.1 496.58 M2.86 471.24 C1.2 477.75, -0.85 482.71, -5.37 496.29" stroke="#1e1e1e" stroke-width="4" fill="none"></path></g></g><mask></mask><g stroke-linecap="round"><g transform="translate(13684.815470962472 9045.66768764643) rotate(0 630.6409344530293 -8.6416290857469)"><path d="M1.02 1.24 C210.7 -1.46, 1049.44 -13.18, 1259.1 -15.82 M-1.87 -0.56 C208.58 -4.11, 1053.25 -17.01, 1264.31 -20.03" stroke="#1e1e1e" stroke-width="4" fill="none"></path></g><g transform="translate(13684.815470962472 9045.66768764643) rotate(0 630.6409344530293 -8.6416290857469)"><path d="M1241.84 -12.69 C1249.85 -15.88, 1258.59 -16.16, 1262.7 -21.96 M1241.63 -10.58 C1247.79 -12.98, 1254.23 -14.99, 1263.39 -19.35" stroke="#1e1e1e" stroke-width="4" fill="none"></path></g><g transform="translate(13684.815470962472 9045.66768764643) rotate(0 630.6409344530293 -8.6416290857469)"><path d="M1241.58 -29.79 C1249.71 -27.22, 1258.53 -21.75, 1262.7 -21.96 M1241.38 -27.68 C1247.64 -25.45, 1254.15 -22.83, 1263.39 -19.35" stroke="#1e1e1e" stroke-width="4" fill="none"></path></g></g><mask></mask></svg>