<svg version="1.1" xmlns="http://www.w3.org/2000/svg" viewBox="0 0 24575.542777285395 15823.760312643504" width="49151.08555457079" height="31647.52062528701" filter="invert(93%) hue-rotate(180deg)">
  <!-- svg-source:excalidraw -->
  
  <defs>
    <style class="style-fonts">
      @font-face {
        font-family: "Virgil";
        src: url("https://excalidraw.com/Virgil.woff2");
      }
      @font-face {
        font-family: "Cascadia";
        src: url("https://excalidraw.com/Cascadia.woff2");
      }
      @font-face {
        font-family: "Assistant";
        src: url("https://excalidraw.com/Assistant-Regular.woff2");
      }
    </style>
    
  </defs>
  <rect x="0" y="0" width="24575.542777285395" height="15823.760312643504" fill="#ffffff"></rect><g stroke-linecap="round" transform="translate(10 506.5710635989435) rotate(0 1238.578216822687 389.69078697121677)"><path d="M32 0 C906.63 3.59, 1779 1.12, 2445.16 0 M32 0 C840.88 -12.18, 1650.92 -12.81, 2445.16 0 M2445.16 0 C2468.68 3.53, 2476.72 13.72, 2477.16 32 M2445.16 0 C2465.24 4.48, 2474.05 10.02, 2477.16 32 M2477.16 32 C2475.97 189.12, 2475.88 343.45, 2477.16 747.38 M2477.16 32 C2475.57 244.28, 2476.03 457.69, 2477.16 747.38 M2477.16 747.38 C2478.34 769.61, 2467.76 778.77, 2445.16 779.38 M2477.16 747.38 C2475.21 769.64, 2470.48 782.06, 2445.16 779.38 M2445.16 779.38 C1960.95 783.46, 1475.01 783.42, 32 779.38 M2445.16 779.38 C1664.5 784.85, 884.65 785.58, 32 779.38 M32 779.38 C9.7 780.1, 0.36 767.16, 0 747.38 M32 779.38 C7.37 779.9, -3.37 767.97, 0 747.38 M0 747.38 C2.32 547.68, 1.65 348.42, 0 32 M0 747.38 C0.19 531.28, 0.37 315.89, 0 32 M0 32 C2.63 13.45, 8.07 -3.27, 32 0 M0 32 C-0.23 15.24, 11.19 0.17, 32 0" stroke="#1e1e1e" stroke-width="4" fill="none"></path></g><g transform="translate(909.2428896742495 746.6382439068375) rotate(0 339.3353271484375 149.62360666332233)"><text x="339.3353271484375" y="209.7124470993126" font-family="Virgil, Segoe UI Emoji" font-size="239.39777066131577px" fill="#1e1e1e" text-anchor="middle" style="white-space: pre;" direction="ltr" dominant-baseline="alphabetic">Start</text></g><g stroke-linecap="round" transform="translate(3856.593049043837 27.793451957712023) rotate(0 1636.8795387701093 940.2276461392948)"><path d="M1636.03 -1.51 C2109.39 262, 2578.61 530.2, 3273.49 941.54 M1636.91 0.61 C1974.19 180.83, 2307.16 371.55, 3273.1 940.99 M3272.55 941.1 C2881.26 1174.63, 2494.88 1396.94, 1636.52 1881.08 M3274.01 940.88 C2652.52 1301.74, 2030.43 1659.7, 1636.21 1880.63 M1636.65 1880.88 C1112.38 1585.55, 590.75 1285.26, -1.19 942.31 M1637.07 1880.14 C1119.82 1585.39, 601.39 1287.65, -0.18 940.67 M-0.73 939.42 C603.98 602.31, 1208.18 255.67, 1636.95 0.73 M-0.52 940.35 C623.18 571.59, 1251.49 209.73, 1637.06 0.47" stroke="#1e1e1e" stroke-width="4" fill="none"></path></g><g transform="translate(4704.675274483579 741.1190376725935) rotate(0 788.8575439453125 226.7882373547659)"><text x="788.8575439453125" y="158.93319673821998" font-family="Virgil, Segoe UI Emoji" font-size="181.43058988381276px" fill="#1e1e1e" text-anchor="middle" style="white-space: pre;" direction="ltr" dominant-baseline="alphabetic">Understand Basic</text><text x="788.8575439453125" y="385.72143409298593" font-family="Virgil, Segoe UI Emoji" font-size="181.43058988381276px" fill="#1e1e1e" text-anchor="middle" style="white-space: pre;" direction="ltr" dominant-baseline="alphabetic">Concepts</text></g><g stroke-linecap="round" transform="translate(9444.123892812802 628.2273386808829) rotate(0 3174.2534405978818 405.13375774617)"><path d="M0.57 0.42 C2290.39 46.94, 4578.52 48.36, 6346.96 0.87 M-0.22 0.78 C2464.65 -38.93, 4929.71 -38.82, 6348 -0.56 M6348.46 -0.4 C6344.34 315.85, 6343.12 632.94, 6349.8 810.74 M6348.17 0.16 C6351.27 261.6, 6349.78 522.45, 6348.66 810.61 M6348.88 810.98 C4259.57 823.52, 2168.44 824.98, 0.27 809.88 M6347.93 810.36 C4329.21 790.35, 2310.91 790.15, 0.55 810.24 M0.03 810.27 C3.54 618.97, 2.92 427.68, 1.34 1.05 M-0.04 811.06 C4.3 510.87, 4.27 211.88, 0.01 -0.43" stroke="#1e1e1e" stroke-width="4" fill="none"></path></g><g transform="translate(10240.157118566935 883.737489763731) rotate(0 2378.22021484375 149.62360666332233)"><text x="2378.22021484375" y="209.7124470993126" font-family="Virgil, Segoe UI Emoji" font-size="239.39777066131577px" fill="#1e1e1e" text-anchor="middle" style="white-space: pre;" direction="ltr" dominant-baseline="alphabetic">Data Types, Variables, Loops, Functions</text></g><g stroke-linecap="round" transform="translate(16135.46454451804 10) rotate(0 1550.5807858666894 1118.524794233117)"><path d="M1552 -0.89 C1872.97 227.59, 2190.76 458.25, 3102.57 1118.82 M1550.46 -0.11 C2131.44 409.15, 2715.11 829.81, 3101.88 1118.39 M3101.9 1118.69 C2625.26 1459.22, 2151.88 1801.78, 1551.36 2237.56 M3101.85 1119.47 C2655.17 1440.04, 2214.71 1758.57, 1551.23 2236.87 M1551.5 2236.9 C1041.47 1878.94, 536.7 1512.32, 0.29 1119.14 M1550.41 2236.92 C1152.37 1946.27, 748.23 1654.72, -0.51 1118.63 M0.58 1119.36 C311.59 894.78, 624.79 670.13, 1552.11 -1.04 M0.09 1119.03 C339.05 862.89, 677.54 617.74, 1551.28 -0.69" stroke="#1e1e1e" stroke-width="4" fill="none"></path></g><g transform="translate(16919.15422944357 907.2854620495646) rotate(0 767.1007080078125 221.47693506699443)"><text x="767.1007080078125" y="155.21103609494958" font-family="Virgil, Segoe UI Emoji" font-size="177.1815480535954px" fill="#1e1e1e" text-anchor="middle" style="white-space: pre;" direction="ltr" dominant-baseline="alphabetic">Learn Complexity </text><text x="767.1007080078125" y="376.68797116194384" font-family="Virgil, Segoe UI Emoji" font-size="177.1815480535954px" fill="#1e1e1e" text-anchor="middle" style="white-space: pre;" direction="ltr" dominant-baseline="alphabetic">Analysis</text></g><g stroke-linecap="round" transform="translate(10714.863815994895 3557.3553259458768) rotate(0 1168.0928746225686 1060.9449133633561)"><path d="M1168.73 0.54 C1553.69 352.36, 1937.57 697.58, 2337.41 1060.57 M1168.34 -0.01 C1626.47 422.27, 2091.42 843.75, 2336.24 1060.98 M2335.71 1061.62 C2020.53 1351.32, 1698.72 1643.01, 1168.76 2121.21 M2335.39 1061.18 C1970 1406.45, 1596.38 1745.59, 1169.21 2122.08 M1167.81 2123.2 C764.04 1755.31, 361.5 1390.51, -0.62 1059.85 M1168.82 2121.56 C811.86 1790.09, 446.9 1459.51, -0.79 1061.02 M-0.05 1061.73 C348.84 741.74, 699.18 421.46, 1167.69 -0.08 M0.06 1061.47 C465.92 636.48, 933.06 212.48, 1168.31 -0.05" stroke="#1e1e1e" stroke-width="4" fill="none"></path></g><g transform="translate(11323.36630799368 4453.84508680084) rotate(0 559.5439453125 164.482695826714)"><text x="559.5439453125" y="115.26947323536089" font-family="Virgil, Segoe UI Emoji" font-size="131.5861566613709px" fill="#1e1e1e" text-anchor="middle" style="white-space: pre;" direction="ltr" dominant-baseline="alphabetic">Data Structures</text><text x="559.5439453125" y="279.7521690620745" font-family="Virgil, Segoe UI Emoji" font-size="131.5861566613709px" fill="#1e1e1e" text-anchor="middle" style="white-space: pre;" direction="ltr" dominant-baseline="alphabetic">Basics</text></g><g stroke-linecap="round" transform="translate(3122.853031165505 6334.728393617173) rotate(0 715.1624557459536 371.22534108398304)"><path d="M-1.54 0.87 C350.77 -4.01, 699.93 -4.27, 1431.88 -1.08 M-0.51 -0.56 C409.76 -0.49, 818.13 0.1, 1430.12 0.37 M1431.62 0.47 C1428.9 208.82, 1428.3 415.94, 1430.65 743.84 M1430.47 0.34 C1424.67 265.8, 1424.65 532.14, 1430.68 742.7 M1430.59 742.06 C1014.7 751.94, 597.88 750.65, 0.18 741.28 M1430.87 742.42 C1024.02 737.32, 617.93 737.71, 0 742.74 M1.34 743.5 C1.28 501.77, -1.14 263.08, 1.59 0.18 M0.01 742.02 C-0.19 516.28, -1.16 291.45, 0.31 -0.65" stroke="#1e1e1e" stroke-width="4" fill="none"></path></g><g transform="translate(3298.9071495091157 6495.030245448894) rotate(0 539.1083374023438 210.9234892522627)"><text x="539.1083374023438" y="295.6303625359716" font-family="Virgil, Segoe UI Emoji" font-size="337.4775828036205px" fill="#1e1e1e" text-anchor="middle" style="white-space: pre;" direction="ltr" dominant-baseline="alphabetic">Arrays</text></g><g stroke-linecap="round" transform="translate(5396.9977790966295 6330.826131282058) rotate(0 1232.584140317911 371.22534108398304)"><path d="M1.41 -0.18 C823.41 -11.22, 1645.93 -11.86, 2464.94 -1.32 M0.72 -0.61 C737.01 13.85, 1473.71 14.24, 2465.01 -0.24 M2465.52 0.51 C2469.72 250.9, 2470.28 504.54, 2466.1 740.87 M2465.4 -0.18 C2466.49 239.21, 2466.64 478.31, 2465.09 741.86 M2465.46 742.59 C1523.61 736.54, 583.47 736.51, -0.26 742.09 M2464.66 742.09 C1827.41 741.71, 1191.24 741.99, 0.18 742.43 M1.11 741.41 C-6.28 485.63, -3.38 229.16, 0.06 0.13 M0.28 741.76 C-0.75 475.82, 0.25 208.64, -0.48 -0.51" stroke="#1e1e1e" stroke-width="4" fill="none"></path></g><g transform="translate(5641.301035625478 6491.127983113778) rotate(0 988.2808837890625 210.9234892522627)"><text x="988.2808837890625" y="295.6303625359716" font-family="Virgil, Segoe UI Emoji" font-size="337.4775828036205px" fill="#1e1e1e" text-anchor="middle" style="white-space: pre;" direction="ltr" dominant-baseline="alphabetic">Linked Lists</text></g><g stroke-linecap="round" transform="translate(8709.762279076618 6330.826131282058) rotate(0 718.6558760366943 371.22534108398304)"><path d="M1.22 -0.43 C511.33 0.19, 1019.33 -0.05, 1437.29 -1.02 M0.05 -0.02 C329.91 9.08, 660.06 8.47, 1437.62 0.65 M1437.07 -0.68 C1438.96 246.15, 1439.57 487.94, 1437.66 742.75 M1437.52 0.19 C1439.4 255, 1438.97 508.9, 1437.97 742.58 M1436.69 741.3 C1041.04 742.31, 644.15 743.12, -0.67 743.55 M1436.52 742.47 C1011.62 737.49, 586.12 737.17, 0.37 743.12 M-1.31 742.37 C-2.54 470.99, -4.07 199.3, 0.94 0.02 M-0.69 742.4 C-1.75 559.18, -2.53 376.71, -0.68 -0.61" stroke="#1e1e1e" stroke-width="4" fill="none"></path></g><g transform="translate(8859.443789878937 6491.127983113778) rotate(0 568.974365234375 210.9234892522627)"><text x="568.974365234375" y="295.6303625359716" font-family="Virgil, Segoe UI Emoji" font-size="337.4775828036205px" fill="#1e1e1e" text-anchor="middle" style="white-space: pre;" direction="ltr" dominant-baseline="alphabetic">Stacks</text></g><g stroke-linecap="round" transform="translate(10990.767988159056 6330.826131282058) rotate(0 815.0874587792132 371.22534108398304)"><path d="M1.56 -1.08 C470.87 2.21, 942.17 2.52, 1629.05 1.44 M-0.2 0.37 C365.42 0.14, 731.47 1.03, 1630.41 0.18 M1630.5 1.39 C1630.2 244.81, 1629.62 493.09, 1630.86 742.92 M1630.53 0.25 C1631.67 205.9, 1632.4 413.12, 1629.98 742.59 M1630.36 741.28 C1126.25 732.74, 622.19 734.2, -0.06 741.44 M1630.17 742.74 C1215.79 742.69, 801.42 743.39, 0.53 743.01 M1.59 742.63 C4.91 568.05, 5.8 393.41, -0.86 0.55 M0.31 741.8 C4.67 583.68, 4.47 425.33, -0.34 0.05" stroke="#1e1e1e" stroke-width="4" fill="none"></path></g><g transform="translate(11218.995156410925 6491.127983113778) rotate(0 586.8602905273438 210.9234892522627)"><text x="586.8602905273438" y="295.6303625359716" font-family="Virgil, Segoe UI Emoji" font-size="337.4775828036205px" fill="#1e1e1e" text-anchor="middle" style="white-space: pre;" direction="ltr" dominant-baseline="alphabetic">Queues</text></g><g stroke-linecap="round" transform="translate(13464.636862726538 6330.826131282058) rotate(0 623.2789107404367 371.22534108398304)"><path d="M-0.22 -1.32 C340.19 5.72, 679.29 8.18, 1245.35 0.1 M-0.16 -0.24 C370.64 -3.98, 740.89 -4.45, 1246.81 -0.12 M1247.49 -1.58 C1248.11 191.55, 1248.45 382.96, 1246.21 742.87 M1246.48 -0.6 C1249.85 240.29, 1249 480.46, 1246.63 742.14 M1246.3 742.09 C961.31 736.25, 677.34 734.14, -0.73 740.87 M1246.74 742.43 C870.41 746.74, 494.05 746.63, -0.52 741.8 M0.06 742.58 C-4.96 523.42, -6.77 304.9, -1.39 -1.39 M-0.48 741.94 C-2.96 524.11, -2.62 307.04, -0.05 0.56" stroke="#1e1e1e" stroke-width="4" fill="none"></path></g><g transform="translate(13603.477602080256 6491.127983113778) rotate(0 484.43817138671875 210.9234892522627)"><text x="484.43817138671875" y="295.6303625359716" font-family="Virgil, Segoe UI Emoji" font-size="337.4775828036205px" fill="#1e1e1e" text-anchor="middle" style="white-space: pre;" direction="ltr" dominant-baseline="alphabetic">Trees</text></g><g stroke-linecap="round" transform="translate(15554.888641216461 6330.826131282058) rotate(0 780.1532558718071 371.22534108398304)"><path d="M-0.02 -1.02 C361.62 11.73, 724.27 10.39, 1560.26 -0.4 M0.31 0.65 C540.71 3.93, 1081.21 3.63, 1559.97 0.16 M1560.66 0.3 C1564.46 287.54, 1563.42 574.57, 1560.68 743.16 M1560.96 0.13 C1559.57 246.2, 1559.83 491.8, 1559.73 742.54 M1559.64 743.55 C1206.33 738.66, 851.74 738.09, 0.03 742.45 M1560.67 743.12 C1036.13 742.65, 510.38 741.44, -0.04 743.25 M0.94 742.47 C-1.08 511.85, -1.61 278.76, -0.11 0.61 M-0.68 741.84 C3.19 580.33, 3.48 418.67, 0.17 -0.16" stroke="#1e1e1e" stroke-width="4" fill="none"></path></g><g transform="translate(15758.643154412486 6491.127983113778) rotate(0 576.3987426757812 210.9234892522627)"><text x="576.3987426757812" y="295.6303625359716" font-family="Virgil, Segoe UI Emoji" font-size="337.4775828036205px" fill="#1e1e1e" text-anchor="middle" style="white-space: pre;" direction="ltr" dominant-baseline="alphabetic">Graphs</text></g><g stroke-linecap="round" transform="translate(17958.889109969117 6330.826131282058) rotate(0 1222.8948425303852 371.22534108398304)"><path d="M-1.13 1.44 C531.02 12.52, 1064.41 12.01, 2446.53 -0.31 M0.24 0.18 C660.54 -15.91, 1320.22 -15.63, 2446.48 0.47 M2446.48 0.47 C2446.74 149.61, 2447.47 299.08, 2446.29 742.3 M2445.6 0.14 C2450.71 167.18, 2450.07 335.08, 2445.2 742.32 M2445.73 741.44 C1765.77 754.32, 1087.25 755.9, 0.58 742.82 M2446.32 743.01 C1718.46 758.18, 992.13 759.63, 0.09 742.48 M-0.86 743 C-4.9 512.52, -3.62 285.98, -1.31 -0.95 M-0.34 742.5 C4.98 567.84, 5.2 391.94, -0.51 0.73" stroke="#1e1e1e" stroke-width="4" fill="none"></path></g><g transform="translate(18154.69398667919 6491.127983113778) rotate(0 1027.0899658203125 210.9234892522627)"><text x="1027.0899658203125" y="295.6303625359716" font-family="Virgil, Segoe UI Emoji" font-size="337.4775828036205px" fill="#1e1e1e" text-anchor="middle" style="white-space: pre;" direction="ltr" dominant-baseline="alphabetic">Hash Tables</text></g><g stroke-linecap="round"><g transform="translate(2488.8888820777465 895.2278315305812) rotate(0 665.9008507566132 22.68882879333205)"><path d="M2.53 -2.12 C224.82 5.76, 1110.56 37.16, 1331.98 45.3 M0.45 2.9 C222.55 11.43, 1108.44 42.39, 1329.85 48.88" stroke="#1e1e1e" stroke-width="4" fill="none"></path></g><g transform="translate(2488.8888820777465 895.2278315305812) rotate(0 665.9008507566132 22.68882879333205)"><path d="M1304.57 56.79 C1311.7 54.1, 1318.31 52.38, 1329.24 49.66 M1306.41 56.51 C1314.68 53.85, 1325.02 51.27, 1328.85 49.1" stroke="#1e1e1e" stroke-width="4" fill="none"></path></g><g transform="translate(2488.8888820777465 895.2278315305812) rotate(0 665.9008507566132 22.68882879333205)"><path d="M1305.13 39.7 C1312.01 41.06, 1318.48 43.38, 1329.24 49.66 M1306.96 39.42 C1315.08 43.26, 1325.2 47.19, 1328.85 49.1" stroke="#1e1e1e" stroke-width="4" fill="none"></path></g></g><mask></mask><g stroke-linecap="round"><g transform="translate(7096.668000731122 1024.239041372639) rotate(0 1166.0034247172516 51.406853082518865)"><path d="M0.18 -0.08 C388.31 14.57, 1988.7 68.78, 2331.3 85.79 C2673.91 102.8, 2101.47 98.76, 2055.83 101.97 M-3.16 -2.59 C384.3 11.41, 1985.87 63.61, 2328.69 81.48 C2671.5 99.35, 2098.74 101.5, 2053.73 104.63" stroke="#1e1e1e" stroke-width="4" fill="none"></path></g><g transform="translate(7096.668000731122 1024.239041372639) rotate(0 1166.0034247172516 51.406853082518865)"><path d="M2076.98 95.09 C2068.8 98.74, 2058.18 103.43, 2055.35 105.22 M2076.62 95.79 C2070.42 99.05, 2061.05 101.6, 2053.92 105.06" stroke="#1e1e1e" stroke-width="4" fill="none"></path></g><g transform="translate(7096.668000731122 1024.239041372639) rotate(0 1166.0034247172516 51.406853082518865)"><path d="M2077.34 112.18 C2069.15 109.17, 2058.39 107.19, 2055.35 105.22 M2076.97 112.89 C2070.61 110.63, 2061.13 107.67, 2053.92 105.06" stroke="#1e1e1e" stroke-width="4" fill="none"></path></g></g><mask></mask><g stroke-linecap="round"><g transform="translate(15798.611977684934 1119.0126864712402) rotate(0 195.64068123913447 2.2006408438451217)"><path d="M-0.7 1.3 C64.39 1.91, 325.23 2.67, 390.74 3.56 M4.11 -0.46 C68.77 0.56, 323.7 6.26, 388.2 6.73" stroke="#1e1e1e" stroke-width="4" fill="none"></path></g><g transform="translate(15798.611977684934 1119.0126864712402) rotate(0 195.64068123913447 2.2006408438451217)"><path d="M365.51 14.52 C371.22 13.24, 380.68 10.55, 388.65 7.37 M365.45 15.49 C370.35 12.75, 378.26 10.64, 388.5 6.51" stroke="#1e1e1e" stroke-width="4" fill="none"></path></g><g transform="translate(15798.611977684934 1119.0126864712402) rotate(0 195.64068123913447 2.2006408438451217)"><path d="M365.78 -2.58 C371.41 1.38, 380.78 3.93, 388.65 7.37 M365.72 -1.61 C370.47 0.52, 378.3 3.28, 388.5 6.51" stroke="#1e1e1e" stroke-width="4" fill="none"></path></g></g><mask></mask><g stroke-linecap="round"><g transform="translate(4561.616991462382 6704.041403996531) rotate(0 377.1941384981237 -0.36421531987980416)"><path d="M-0.54 -0.84 C125.49 -0.8, 629.52 1.41, 755.48 1.53 M-4.28 -3.77 C121.53 -4.6, 627.47 -3.44, 753.83 -2.25" stroke="#1e1e1e" stroke-width="4" fill="none"></path></g><g transform="translate(4561.616991462382 6704.041403996531) rotate(0 377.1941384981237 -0.36421531987980416)"><path d="M729.69 6.95 C738.34 4.5, 743.64 2.23, 753.52 -3.1 M729.3 6.4 C737.94 3.77, 745.58 0.42, 754.09 -2.02" stroke="#1e1e1e" stroke-width="4" fill="none"></path></g><g transform="translate(4561.616991462382 6704.041403996531) rotate(0 377.1941384981237 -0.36421531987980416)"><path d="M729.78 -10.15 C738.48 -7.9, 743.76 -5.47, 753.52 -3.1 M729.39 -10.7 C738.15 -7.85, 745.76 -5.73, 754.09 -2.02" stroke="#1e1e1e" stroke-width="4" fill="none"></path></g></g><mask></mask><g stroke-linecap="round"><g transform="translate(7870.60932700722 6702.044617352649) rotate(0 379.0823299506028 0)"><path d="M1.09 2.26 C127.68 2.5, 632.67 1.07, 759 0.62 M-1.77 1.02 C124.57 0.44, 630.62 -4.29, 757.21 -4.05" stroke="#1e1e1e" stroke-width="4" fill="none"></path></g><g transform="translate(7870.60932700722 6702.044617352649) rotate(0 379.0823299506028 0)"><path d="M735.37 5.2 C740.81 2.73, 746.64 -1.19, 757.61 -2.31 M733.94 5.04 C742.53 1.24, 750.91 -1.41, 757.65 -3.73" stroke="#1e1e1e" stroke-width="4" fill="none"></path></g><g transform="translate(7870.60932700722 6702.044617352649) rotate(0 379.0823299506028 0)"><path d="M735.29 -11.9 C740.7 -9.58, 746.55 -8.69, 757.61 -2.31 M733.87 -12.06 C742.31 -9.74, 750.72 -6.26, 757.65 -3.73" stroke="#1e1e1e" stroke-width="4" fill="none"></path></g></g><mask></mask><g stroke-linecap="round"><g transform="translate(10155.505697632872 6702.044617352649) rotate(0 377.1311987830445 0)"><path d="M0.83 0.62 C126.51 0.18, 629.78 -0.42, 755.15 -0.43 M-2.16 -1.51 C123.12 -1.71, 627.94 2.06, 753.4 2.97" stroke="#1e1e1e" stroke-width="4" fill="none"></path></g><g transform="translate(10155.505697632872 6702.044617352649) rotate(0 377.1311987830445 0)"><path d="M730.29 11.99 C737.46 7.59, 746.15 7.33, 754.57 0.99 M730.14 11.13 C737.68 8.79, 745.44 6.17, 753.31 2.23" stroke="#1e1e1e" stroke-width="4" fill="none"></path></g><g transform="translate(10155.505697632872 6702.044617352649) rotate(0 377.1311987830445 0)"><path d="M730.42 -5.11 C737.68 -3.71, 746.32 1.82, 754.57 0.99 M730.26 -5.97 C737.79 -2.81, 745.52 0.08, 753.31 2.23" stroke="#1e1e1e" stroke-width="4" fill="none"></path></g></g><mask></mask><g stroke-linecap="round"><g transform="translate(12629.385118374788 6702.044617352649) rotate(0 377.13119878304815 0)"><path d="M0.89 -0.43 C126.27 -0.44, 627.11 0.22, 753.07 0.56 M-2.07 -3.13 C122.75 -4.1, 623.81 -4.16, 750.19 -4.14" stroke="#1e1e1e" stroke-width="4" fill="none"></path></g><g transform="translate(12629.385118374788 6702.044617352649) rotate(0 377.13119878304815 0)"><path d="M726.4 3.57 C734.83 3.25, 743.34 -3.28, 750.63 -3.76 M726.97 4.65 C735.18 1.84, 742.7 -2.15, 751.01 -3.97" stroke="#1e1e1e" stroke-width="4" fill="none"></path></g><g transform="translate(12629.385118374788 6702.044617352649) rotate(0 377.13119878304815 0)"><path d="M726.39 -13.53 C734.87 -8.21, 743.37 -9.11, 750.63 -3.76 M726.96 -12.45 C735.23 -9.39, 742.75 -7.51, 751.01 -3.97" stroke="#1e1e1e" stroke-width="4" fill="none"></path></g></g><mask></mask><g stroke-linecap="round"><g transform="translate(14719.636896864715 6702.044617352649) rotate(0 377.13119878304826 0)"><path d="M-1.19 0.56 C124.78 0.91, 631.24 1.62, 756.69 1.63 M3.36 -1.6 C129.1 -2.03, 630.19 -3.44, 755.77 -2.49" stroke="#1e1e1e" stroke-width="4" fill="none"></path></g><g transform="translate(14719.636896864715 6702.044617352649) rotate(0 377.13119878304826 0)"><path d="M732.67 7.75 C741.24 1.31, 748.32 0.84, 756.63 -1.91 M732.71 6.33 C738.69 2.85, 746.13 1.4, 755.53 -2.31" stroke="#1e1e1e" stroke-width="4" fill="none"></path></g><g transform="translate(14719.636896864715 6702.044617352649) rotate(0 377.13119878304826 0)"><path d="M732.69 -9.35 C741.23 -10.11, 748.3 -4.91, 756.63 -1.91 M732.73 -10.77 C738.75 -9.49, 746.19 -6.19, 755.53 -2.31" stroke="#1e1e1e" stroke-width="4" fill="none"></path></g></g><mask></mask><g stroke-linecap="round"><g transform="translate(17123.62471020803 6702.044617352649) rotate(0 377.1311987830445 0)"><path d="M2.43 1.63 C127.87 1.64, 626.1 0.69, 751.49 0.61 M0.3 0.05 C126.67 -0.9, 630.89 -3.44, 756.38 -4.06" stroke="#1e1e1e" stroke-width="4" fill="none"></path></g><g transform="translate(17123.62471020803 6702.044617352649) rotate(0 377.1311987830445 0)"><path d="M734.1 2.62 C739.4 2.54, 745.86 0.52, 755.95 -3.53 M732.84 3.86 C741.3 1.9, 747.83 -0.9, 756.47 -4.45" stroke="#1e1e1e" stroke-width="4" fill="none"></path></g><g transform="translate(17123.62471020803 6702.044617352649) rotate(0 377.1311987830445 0)"><path d="M734.01 -14.48 C739.37 -10.15, 745.85 -7.77, 755.95 -3.53 M732.76 -13.24 C741.32 -9.67, 747.87 -6.93, 756.47 -4.45" stroke="#1e1e1e" stroke-width="4" fill="none"></path></g></g><mask></mask><g stroke-linecap="round" transform="translate(8241.22934439194 2658.0991741504113) rotate(0 1499.9033978315538 324.34079234353294)"><path d="M0.35 0.3 C1160.59 24.24, 2319.45 24.2, 3000.18 0.71 M0.65 0.13 C993.97 18, 1988.4 17.54, 2999.23 0.09 M2999.14 1.1 C2998.9 146.12, 2998.23 292.69, 2999.84 648.68 M3000.17 0.67 C3001.52 218.7, 3000.47 435.63, 2999.77 649.48 M3000.75 648.7 C2064.99 651.11, 1130.52 649.17, -0.11 649.3 M2999.13 648.07 C2344.22 633.36, 1689.26 633.87, 0.17 648.52 M1.16 649.27 C-4.55 495.83, -4.06 340.57, 0.84 -1.33 M-0.77 648.45 C-2.55 391.31, -2.18 135.73, 0.42 0.29" stroke="#1e1e1e" stroke-width="4" fill="none"></path></g><g transform="translate(8613.036672887556 2798.155425389664) rotate(0 1128.0960693359375 184.28454110427992)"><text x="1128.0960693359375" y="258.2932128117588" font-family="Virgil, Segoe UI Emoji" font-size="294.855265766848px" fill="#1e1e1e" text-anchor="middle" style="white-space: pre;" direction="ltr" dominant-baseline="alphabetic">Time Complexity</text></g><g stroke-linecap="round" transform="translate(12881.401248538887 2626.0718992866605) rotate(0 1574.4234591405968 324.34079234353294)"><path d="M0.69 0.47 C632.38 -4.3, 1265.83 -4.01, 3149.35 -0.15 M-0.19 0.14 C710.44 -4.52, 1420.17 -4.11, 3148.26 -0.13 M3148.79 -1.02 C3145.96 178.58, 3146.72 360.32, 3149.43 649.05 M3149.37 0.56 C3150.7 192.11, 3151.18 386.33, 3148.94 648.71 M3147.98 649.23 C2178.17 647.56, 1210.16 649.56, -1.31 647.73 M3148.51 648.73 C2405.85 630.06, 1663.12 629.34, -0.51 649.42 M0.21 649.26 C-3.06 405.23, -2.93 162.94, 1.53 0.84 M0.17 648.01 C5.56 506.89, 5.44 364.51, 0.52 0.61" stroke="#1e1e1e" stroke-width="4" fill="none"></path></g><g transform="translate(13237.209717445108 2766.128150525913) rotate(0 1218.614990234375 184.28454110427992)"><text x="1218.614990234375" y="258.2932128117588" font-family="Virgil, Segoe UI Emoji" font-size="294.855265766848px" fill="#1e1e1e" text-anchor="middle" style="white-space: pre;" direction="ltr" dominant-baseline="alphabetic">Space Complexity</text></g><g stroke-linecap="round"><g transform="translate(11248.413971658152 2970.8279462657483) rotate(0 781.1142315278069 -5.348045504995753)"><path d="M0.82 -0.61 C261.22 -2.49, 1302.52 -8.5, 1562.97 -10.04 M-2.19 -3.41 C257.87 -6.3, 1300.38 -12.78, 1561.13 -14.69" stroke="#1e1e1e" stroke-width="4" fill="none"></path></g><g transform="translate(11248.413971658152 2970.8279462657483) rotate(0 781.1142315278069 -5.348045504995753)"><path d="M1537.26 -5.46 C1545.6 -7.94, 1553.23 -11.79, 1559.64 -13.06 M1537.79 -6.37 C1544.42 -8.67, 1551.83 -11.7, 1560.91 -15.11" stroke="#1e1e1e" stroke-width="4" fill="none"></path></g><g transform="translate(11248.413971658152 2970.8279462657483) rotate(0 781.1142315278069 -5.348045504995753)"><path d="M1537.14 -22.56 C1545.59 -19.59, 1553.26 -17.99, 1559.64 -13.06 M1537.67 -23.47 C1544.3 -20.36, 1551.74 -17.97, 1560.91 -15.11" stroke="#1e1e1e" stroke-width="4" fill="none"></path></g></g><mask></mask><g stroke-linecap="round" transform="translate(13561.154030923959 6991.391948242306) rotate(0 849.106436570249 681.5928869775744)"><path d="M850.38 0.71 C1128.48 222.52, 1405.95 448.44, 1698.48 681.61 M849.43 0.09 C1119.62 219.38, 1389.74 436.04, 1698.76 681.97 M1698.25 682 C1495.67 836.78, 1294.4 998.27, 851.34 1364.24 M1698.17 682.8 C1381.31 928.21, 1067.83 1180.38, 850.01 1362.75 M849.89 1363.8 C569.04 1128.44, 284.94 900.14, -1.22 681.32 M850.17 1363.02 C589.24 1159.9, 329.76 950.92, 0.29 682.11 M0.84 680.67 C285.1 458.69, 568.25 226.85, 849.53 0.33 M0.42 682.29 C180.36 531.62, 362.63 384.29, 850.25 0.03" stroke="#1e1e1e" stroke-width="4" fill="none"></path></g><g transform="translate(14050.497929140723 7505.33933088202) rotate(0 359.7093200683594 167.84906084907288)"><text x="359.7093200683594" y="117.62862184303049" font-family="Virgil, Segoe UI Emoji" font-size="134.27924867925856px" fill="#1e1e1e" text-anchor="middle" style="white-space: pre;" direction="ltr" dominant-baseline="alphabetic">Algorithms </text><text x="359.7093200683594" y="285.4776826921037" font-family="Virgil, Segoe UI Emoji" font-size="134.27924867925856px" fill="#1e1e1e" text-anchor="middle" style="white-space: pre;" direction="ltr" dominant-baseline="alphabetic">Basics</text></g><g stroke-linecap="round" transform="translate(2578.8817657570908 9511.524060064652) rotate(0 817.2224423116568 384.9612575359024)"><path d="M0.5 -0.15 C532.28 -4.49, 1067.21 -6.19, 1634.73 0.14 M-0.59 -0.13 C426.47 -1.81, 853.85 -1.51, 1633.94 -0.37 M1635.03 0.36 C1634.53 155.52, 1635.91 310.63, 1635.56 768.88 M1634.54 0.03 C1634.2 168.53, 1634.15 335.68, 1634.72 769.23 M1633.14 768.97 C1284.58 773.59, 935.55 774.27, 0.1 769.83 M1633.94 770.66 C1029.43 767.87, 423.54 767.39, 0.29 770.28 M1.53 770.76 C-4.52 597.45, -3.7 428.4, -1.35 1.09 M0.52 770.53 C-4 497.3, -3 223.63, -0.2 0.7" stroke="#1e1e1e" stroke-width="4" fill="none"></path></g><g transform="translate(2810.9710903929663 9677.757330364246) rotate(0 585.1331176757812 218.72798723630785)"><text x="585.1331176757812" y="306.5691469104096" font-family="Virgil, Segoe UI Emoji" font-size="349.96477957809316px" fill="#1e1e1e" text-anchor="middle" style="white-space: pre;" direction="ltr" dominant-baseline="alphabetic">Sorting</text></g><g stroke-linecap="round" transform="translate(5088.238599325632 9511.524060064652) rotate(0 1075.1847622584773 384.9612575359024)"><path d="M-1.19 1.31 C740.77 1.2, 1481.3 1.73, 2149.75 -1.15 M-0.18 -0.33 C669.95 2.77, 1338.28 2.44, 2149.58 0.02 M2150.32 0.73 C2153.94 231.95, 2153.72 460.75, 2149.06 769.84 M2150.43 0.47 C2151.08 307.06, 2151.34 614.28, 2149.68 769.87 M2149.34 768.57 C1421.39 759.02, 694.95 759.61, 1.13 770.27 M2150.96 770.5 C1548.94 785.82, 947.21 786.07, -0.62 770.34 M-1.29 768.38 C-6.36 603.35, -7.24 437.2, 0.88 0.85 M-0.74 770.46 C-3.74 510.78, -4.2 252.29, 0.71 -0.39" stroke="#1e1e1e" stroke-width="4" fill="none"></path></g><g transform="translate(5387.387106701297 9677.757330364246) rotate(0 776.0362548828125 218.72798723630785)"><text x="776.0362548828125" y="306.5691469104096" font-family="Virgil, Segoe UI Emoji" font-size="349.96477957809316px" fill="#1e1e1e" text-anchor="middle" style="white-space: pre;" direction="ltr" dominant-baseline="alphabetic">Searching</text></g><g stroke-linecap="round" transform="translate(8113.520072787829 9511.524060064652) rotate(0 1069.6482100815583 384.9612575359024)"><path d="M0.27 -0.39 C622.35 -13.84, 1243.5 -15.13, 2139.48 -1.17 M0.55 -0.03 C606.44 6.76, 1213.1 7.14, 2139.3 0.29 M2140.64 1.05 C2140.23 247.47, 2137.81 496.94, 2140.89 770.1 M2139.3 -0.43 C2140.05 233.12, 2139.09 467.58, 2139.6 769.27 M2138.08 769.24 C1624.74 755.35, 1111.1 755.79, -0.32 768.91 M2139.59 770.03 C1301.41 782.71, 462.32 782.78, -0.67 770.69 M-0.47 770.26 C3.63 499.66, 5.85 228.07, 0.59 1.04 M0.25 769.95 C5.52 481.23, 6.43 190.74, -0.16 -0.25" stroke="#1e1e1e" stroke-width="4" fill="none"></path></g><g transform="translate(8394.35852945142 9677.757330364246) rotate(0 788.8097534179688 218.72798723630785)"><text x="788.8097534179688" y="306.5691469104096" font-family="Virgil, Segoe UI Emoji" font-size="349.96477957809316px" fill="#1e1e1e" text-anchor="middle" style="white-space: pre;" direction="ltr" dominant-baseline="alphabetic">Recursion</text></g><g stroke-linecap="round" transform="translate(11127.728441896172 9513.952563491044) rotate(0 2304.43605052653 384.9612575359024)"><path d="M0.29 0.14 C1758.55 7.76, 3518.53 7.74, 4608.61 -0.36 M-0.51 -0.37 C1190.08 1.43, 2381.74 1.7, 4609.05 -0.02 M4609.98 -1.04 C4612.72 266.16, 4615.62 532.66, 4608.93 770.05 M4609.15 -0.69 C4608.24 276.39, 4609.24 552.24, 4608.4 769.41 M4608.98 769.83 C3617.28 754.54, 2623.11 753.18, 1.47 771.1 M4609.16 770.28 C2890.64 775.2, 1172.99 775.55, 0.42 769.28 M-1.35 771.01 C2.68 614.22, 2.39 457.87, 1.21 -1.49 M-0.2 770.63 C-1.25 486.36, -2.12 203.32, 0.31 0.58" stroke="#1e1e1e" stroke-width="4" fill="none"></path></g><g transform="translate(11694.08819847739 9680.185833790638) rotate(0 1738.0762939453125 218.72798723630785)"><text x="1738.0762939453125" y="306.5691469104096" font-family="Virgil, Segoe UI Emoji" font-size="349.96477957809316px" fill="#1e1e1e" text-anchor="middle" style="white-space: pre;" direction="ltr" dominant-baseline="alphabetic">Dynamic Programming</text></g><g stroke-linecap="round"><g transform="translate(13839.425647460312 7905.486162239889) rotate(0 -4796.935149453137 931.5182861231551)"><path d="M0.25 -1.09 C-243.49 105.18, 136.21 327.52, -1463.15 638.14 C-3062.51 948.75, -8240.69 1658.62, -9595.92 1862.58 M-3.06 -4.15 C-245.86 102.59, 140.02 330.34, -1457.84 641.94 C-3055.69 953.54, -8234.13 1661.79, -9590.2 1865.44" stroke="#1e1e1e" stroke-width="4" fill="none"></path></g><g transform="translate(13839.425647460312 7905.486162239889) rotate(0 -4796.935149453137 931.5182861231551)"><path d="M-9568.94 1852.2 C-9573.99 1855.45, -9580.62 1859.72, -9591.03 1866.82 M-9569.15 1853.66 C-9574.77 1857.39, -9581.06 1860.5, -9589.74 1866.28" stroke="#1e1e1e" stroke-width="4" fill="none"></path></g><g transform="translate(13839.425647460312 7905.486162239889) rotate(0 -4796.935149453137 931.5182861231551)"><path d="M-9566.51 1869.13 C-9572.26 1867.71, -9579.56 1867.31, -9591.03 1866.82 M-9566.72 1870.58 C-9572.94 1869.3, -9579.96 1867.39, -9589.74 1866.28" stroke="#1e1e1e" stroke-width="4" fill="none"></path></g></g><mask></mask><g stroke-linecap="round"><g transform="translate(4222.084518989341 9896.478208940978) rotate(0 391.0856411785171 0)"><path d="M-2.01 0.32 C127.97 0.42, 649.53 -0.21, 780.12 -0.46 M2.1 -1.98 C132.94 -1.33, 655.86 2.38, 785.41 2.93" stroke="#1e1e1e" stroke-width="4" fill="none"></path></g><g transform="translate(4222.084518989341 9896.478208940978) rotate(0 391.0856411785171 0)"><path d="M762.1 9.88 C768.85 8.46, 775.62 7.68, 785.34 1.66 M761.87 11.7 C768.17 9.17, 774.39 7.89, 786.07 3.62" stroke="#1e1e1e" stroke-width="4" fill="none"></path></g><g transform="translate(4222.084518989341 9896.478208940978) rotate(0 391.0856411785171 0)"><path d="M762.2 -7.23 C768.85 -3.36, 775.59 1.15, 785.34 1.66 M761.97 -5.4 C768.07 -3.59, 774.27 -0.51, 786.07 3.62" stroke="#1e1e1e" stroke-width="4" fill="none"></path></g></g><mask></mask><g stroke-linecap="round"><g transform="translate(7247.355056052173 9896.478208940978) rotate(0 391.08564117851756 0)"><path d="M-2.05 -0.46 C128.54 -0.7, 650.52 -1.22, 781.55 -1.17 M2.03 -3.17 C132.38 -3.07, 648.75 0.81, 778.97 1.83" stroke="#1e1e1e" stroke-width="4" fill="none"></path></g><g transform="translate(7247.355056052173 9896.478208940978) rotate(0 391.08564117851756 0)"><path d="M755.09 9.76 C759.95 9.84, 766.08 5.28, 778.06 -0.15 M755.64 10.18 C762.99 8.43, 770.3 5.76, 778.32 1.01" stroke="#1e1e1e" stroke-width="4" fill="none"></path></g><g transform="translate(7247.355056052173 9896.478208940978) rotate(0 391.08564117851756 0)"><path d="M755.22 -7.34 C760.07 -3.36, 766.17 -4.01, 778.06 -0.15 M755.77 -6.92 C763.08 -3.51, 770.36 -1.01, 778.32 1.01" stroke="#1e1e1e" stroke-width="4" fill="none"></path></g></g><mask></mask><g stroke-linecap="round"><g transform="translate(10261.566706080332 9896.478208940978) rotate(0 391.085641178518 0)"><path d="M-0.62 -1.17 C130.4 -1.11, 653.93 -0.09, 784.1 -0.11 M4.23 -4.27 C135.24 -3.69, 652.57 2.56, 782.9 3.46" stroke="#1e1e1e" stroke-width="4" fill="none"></path></g><g transform="translate(10261.566706080332 9896.478208940978) rotate(0 391.085641178518 0)"><path d="M758.5 13.16 C764.61 8.68, 769.12 6.08, 782.94 3.46 M759.79 12.62 C767.9 9.69, 774.52 5.38, 782.85 4.46" stroke="#1e1e1e" stroke-width="4" fill="none"></path></g><g transform="translate(10261.566706080332 9896.478208940978) rotate(0 391.085641178518 0)"><path d="M758.66 -3.94 C764.71 -4.54, 769.19 -3.26, 782.94 3.46 M759.95 -4.48 C768.05 -1.66, 774.61 -0.22, 782.85 4.46" stroke="#1e1e1e" stroke-width="4" fill="none"></path></g></g><mask></mask><g stroke-linecap="round"><g transform="translate(17276.521420058645 6667.176813752154) rotate(0 -1032.0297811934483 592.3178319346125)"><path d="M1.93 -0.11 C-155.96 165.05, -603.15 792.31, -947.94 989.78 C-1292.73 1187.24, -1880.81 1152.05, -2066.83 1184.69 M-0.47 -2.63 C-157.4 163, -599 794.3, -942.5 992.71 C-1286.01 1191.12, -1874.67 1155.15, -2061.5 1187.83" stroke="#1e1e1e" stroke-width="4" fill="none"></path></g></g><mask></mask><g stroke-linecap="round" transform="translate(2664.246134066976 10645.973893332362) rotate(0 1226.516492812988 1131.1307008834156)"><path d="M1226.27 -1.58 C1678.79 423.66, 2131.45 841.46, 2452.99 1132.73 M1226.48 -0.65 C1703.4 428.36, 2174 861.99, 2453.1 1132.47 M2451.64 1130.61 C2078.96 1476.26, 1708.67 1814.95, 1225.98 2260.91 M2452.99 1132.56 C2174.91 1385.48, 1899.79 1639.38, 1227.59 2262.84 M1227.71 2261.01 C813.49 1883.93, 401.03 1505.52, -1.29 1130.45 M1227.54 2262.7 C893.4 1948.35, 561.36 1642.71, -0.74 1132.54 M1.41 1133.42 C405.98 758.56, 813.38 383.91, 1228.16 1.27 M-0.3 1131.62 C450.09 705.66, 905.24 285.04, 1227.16 -0.36" stroke="#1e1e1e" stroke-width="4" fill="none"></path></g><g transform="translate(3486.154404887533 11574.608498732636) rotate(0 404.8499755859375 202.4307450414335)"><text x="404.8499755859375" y="141.86346612503678" font-family="Virgil, Segoe UI Emoji" font-size="161.94459603314698px" fill="#1e1e1e" text-anchor="middle" style="white-space: pre;" direction="ltr" dominant-baseline="alphabetic">Advanced </text><text x="404.8499755859375" y="344.2942111664705" font-family="Virgil, Segoe UI Emoji" font-size="161.94459603314698px" fill="#1e1e1e" text-anchor="middle" style="white-space: pre;" direction="ltr" dominant-baseline="alphabetic">Topics</text></g><g stroke-linecap="round" transform="translate(5963.063430054226 11250.95008027697) rotate(0 1859.9915261863307 370.85256046593986)"><path d="M0.03 0 C880.51 29.81, 1759.81 30.18, 3721.32 1.05 M-0.04 0.8 C1374.79 24.35, 2749.45 24.79, 3719.99 -0.43 M3719.88 0.61 C3713.52 247.2, 3713.8 494.95, 3718.76 741.02 M3720.15 -0.16 C3719.13 228.11, 3720.23 455.33, 3720.28 741.81 M3720.82 740.37 C2469.94 719.33, 1215.55 716.95, -0.47 742.04 M3720.41 742 C2917.26 758.62, 2112.76 758.55, 0.25 741.74 M-0.78 741.38 C-5.73 538.63, -4.07 335.57, 1.14 1.09 M0.36 742.22 C1.83 472.37, 2.37 201.72, -0.76 0.25" stroke="#1e1e1e" stroke-width="4" fill="none"></path></g><g transform="translate(6355.022363467118 11411.09095865999) rotate(0 1468.0325927734375 210.71168208292056)"><text x="1468.0325927734375" y="295.3334936074214" font-family="Virgil, Segoe UI Emoji" font-size="337.13869133267286px" fill="#1e1e1e" text-anchor="middle" style="white-space: pre;" direction="ltr" dominant-baseline="alphabetic">Greedy Algorithms</text></g><g stroke-linecap="round" transform="translate(10525.893210758562 11250.95008027697) rotate(0 1334.7268111939995 370.85256046593986)"><path d="M0.58 0.36 C536.63 0.76, 1074.68 1.08, 2670.57 -1.04 M0.09 0.03 C582.73 -20.75, 1165.35 -21.65, 2669.73 -0.69 M2668.15 -0.95 C2668.03 156.95, 2667.84 315.92, 2669.56 741.61 M2668.95 0.73 C2671.31 275.4, 2671.02 549.74, 2669.75 742.06 M2670.99 742.54 C2075.52 722.39, 1483.7 724.27, -1.35 742.79 M2669.97 742.31 C1721.61 750.07, 775.51 749.56, -0.2 742.41 M-0.51 742.33 C4.04 454.57, 4.03 165.99, 1.02 -0.6 M-0.38 742.18 C-2.49 553.76, -3.4 366.79, -0.57 0.47" stroke="#1e1e1e" stroke-width="4" fill="none"></path></g><g transform="translate(10811.977077616624 11411.09095865999) rotate(0 1048.6429443359375 210.71168208292056)"><text x="1048.6429443359375" y="295.3334936074214" font-family="Virgil, Segoe UI Emoji" font-size="337.13869133267286px" fill="#1e1e1e" text-anchor="middle" style="white-space: pre;" direction="ltr" dominant-baseline="alphabetic">Backtracking</text></g><g stroke-linecap="round" transform="translate(14038.193561478254 11250.95008027697) rotate(0 1752.067636519484 370.85256046593986)"><path d="M-0.05 0.73 C1052.21 -5.33, 2102.84 -7.42, 3502.83 -0.08 M0.06 0.47 C1399.48 -1.47, 2799.22 -1.73, 3503.44 -0.05 M3503.11 -1.35 C3498.08 250.34, 3499.4 501.95, 3505.26 742.05 M3504.72 0.58 C3500.66 207.65, 3500.66 415.45, 3503.51 742.12 M3502.84 740.16 C2744.04 756.74, 1983.54 757.49, 0.88 742.55 M3503.39 742.25 C2324.83 763.01, 1144.81 763.68, 0.71 741.32 M1.16 742.97 C3.02 535.33, 2.9 326.19, -0.75 0.71 M0.16 741.34 C2.03 471.84, 2.22 201.93, -0.74 0.01" stroke="#1e1e1e" stroke-width="4" fill="none"></path></g><g transform="translate(14402.802701903987 11411.09095865999) rotate(0 1387.45849609375 210.71168208292056)"><text x="1387.45849609375" y="295.3334936074214" font-family="Virgil, Segoe UI Emoji" font-size="337.13869133267286px" fill="#1e1e1e" text-anchor="middle" style="white-space: pre;" direction="ltr" dominant-baseline="alphabetic">Graph Algorithms</text></g><g stroke-linecap="round" transform="translate(19155.520339806408 11199.631784930574) rotate(0 2705.0112187394934 370.85256046593986)"><path d="M1.34 1.05 C1747.34 -20.86, 3491.14 -19.9, 5411.61 0.18 M0.01 -0.43 C1643.23 -26.25, 3285.22 -25.61, 5410.33 -0.65 M5408.8 -0.68 C5406.33 178.34, 5407.35 357.22, 5409.7 740.69 M5410.32 0.11 C5414.67 290.95, 5413.75 581.62, 5409.36 742.47 M5409.55 742.04 C3501.99 700.95, 1597.53 700.71, 0.59 742.74 M5410.28 741.74 C3376.31 771.75, 1343.72 770.66, -0.16 741.45 M1.14 742.79 C-3.28 489.69, -5.05 239.58, 1.03 -0.75 M-0.76 741.96 C-1.77 475.29, -1.94 207.94, 0.7 0.33" stroke="#1e1e1e" stroke-width="4" fill="none"></path></g><g transform="translate(19502.307193311524 11359.772663313594) rotate(0 2358.224365234375 210.71168208292056)"><text x="2358.224365234375" y="295.3334936074214" font-family="Virgil, Segoe UI Emoji" font-size="337.13869133267286px" fill="#1e1e1e" text-anchor="middle" style="white-space: pre;" direction="ltr" dominant-baseline="alphabetic">Trees and Graphs Advanced</text></g><g stroke-linecap="round" transform="translate(8988.618593484545 12186.125154528829) rotate(0 1839.6819685084138 912.2222602716984)"><path d="M1841.11 -1.04 C2480.86 305.94, 3119.8 621.92, 3679.42 913.13 M1840.28 -0.69 C2499.81 335.71, 3161.25 662.93, 3678.89 912.49 M3679.47 912.91 C3278.75 1103.39, 2881.12 1298.35, 1841.47 1825.62 M3679.66 913.35 C2995.93 1255.03, 2310.41 1595.05, 1840.42 1823.8 M1838.65 1825.53 C1468.9 1643.04, 1094.49 1457.91, 1.21 911.51 M1839.8 1825.15 C1161.65 1489.42, 484.03 1154.33, 0.31 913.58 M1.02 912.4 C691.7 557.51, 1391.17 209.86, 1840.96 0.32 M-0.57 913.47 C474.78 675.8, 944.83 443.6, 1839.85 0.72" stroke="#1e1e1e" stroke-width="4" fill="none"></path></g><g transform="translate(10497.049360453595 12997.02091214396) rotate(0 331.41021728515625 101.21537252071721)"><text x="331.41021728515625" y="141.86346612503678" font-family="Virgil, Segoe UI Emoji" font-size="161.94459603314698px" fill="#1e1e1e" text-anchor="middle" style="white-space: pre;" direction="ltr" dominant-baseline="alphabetic">Practice</text></g><g stroke-linecap="round" transform="translate(5295.161103867587 14887.459845546413) rotate(0 1782.1046749770267 459.51897854915296)"><path d="M-1.31 -0.08 C1305.62 18.7, 2608.11 18.64, 3565.15 0.02 M-0.69 -0.05 C876.96 24.11, 1752.83 24.25, 3563.53 -0.61 M3565.34 0.34 C3564.37 235.5, 3566.16 474.21, 3565.37 919.63 M3563.59 0.42 C3566.22 288.59, 3567.31 575.01, 3563.44 918.8 M3565.09 919.88 C2421.23 939.42, 1278.29 936.89, 1.08 919.55 M3564.92 918.65 C2480.55 943.9, 1397.53 944.74, 0.63 919.61 M-0.75 919.75 C-3.66 580.06, -3.73 242.91, -0.73 -1.52 M-0.74 919.04 C5.93 614.37, 5.07 309.78, 0.78 0.07" stroke="#1e1e1e" stroke-width="4" fill="none"></path></g><g transform="translate(5708.958405797739 15085.888495374458) rotate(0 1368.307373046875 261.0903287211095)"><text x="1368.307373046875" y="365.9442047355079" font-family="Virgil, Segoe UI Emoji" font-size="417.74452595377613px" fill="#1e1e1e" text-anchor="middle" style="white-space: pre;" direction="ltr" dominant-baseline="alphabetic">Online Judges</text></g><g stroke-linecap="round" transform="translate(9903.731768706095 14887.459845546413) rotate(0 2016.678017187399 459.51897854915296)"><path d="M1.59 0.18 C948.18 1.73, 1897.18 1.62, 4032.49 0.55 M0.31 -0.65 C859.24 1.66, 1718.75 1.57, 4033.01 0.05 M4033.03 -1.02 C4040.01 271.58, 4039.7 541.4, 4033.57 919.62 M4032.69 0.77 C4028.04 315.69, 4026.85 632.44, 4033.52 918.37 M4033.94 920.08 C2550.98 934.62, 1067.26 936.62, 0.06 918.63 M4033.19 918.78 C2468.34 903.93, 903.33 903.92, 0.54 919.55 M1.03 918.29 C4.42 677.86, 2.74 434.53, 0.51 -1.14 M0.7 919.36 C6.63 590.39, 7.56 260.36, -0.16 -0.66" stroke="#1e1e1e" stroke-width="4" fill="none"></path></g><g transform="translate(10328.820430424745 15085.888495374458) rotate(0 1591.58935546875 261.0903287211095)"><text x="1591.58935546875" y="365.9442047355079" font-family="Virgil, Segoe UI Emoji" font-size="417.74452595377613px" fill="#1e1e1e" text-anchor="middle" style="white-space: pre;" direction="ltr" dominant-baseline="alphabetic">Project Building</text></g><g stroke-linecap="round" transform="translate(14804.945081856931 14894.722355545198) rotate(0 699.5588995171242 459.51897854915296)"><path d="M32 0 C425.97 -1.09, 820.77 -1.19, 1367.12 0 M32 0 C359.69 9.22, 689.08 8.62, 1367.12 0 M1367.12 0 C1386.07 -2.56, 1395.73 7.62, 1399.12 32 M1367.12 0 C1386.49 0.3, 1398.85 13.91, 1399.12 32 M1399.12 32 C1399.21 308.03, 1398.9 582.3, 1399.12 887.04 M1399.12 32 C1400.99 300.2, 1400.94 568.34, 1399.12 887.04 M1399.12 887.04 C1401.22 905.14, 1384.58 917.87, 1367.12 919.04 M1399.12 887.04 C1400.08 904.5, 1391.57 921.56, 1367.12 919.04 M1367.12 919.04 C897.17 924.48, 425.87 926.47, 32 919.04 M1367.12 919.04 C961.96 928.06, 555.22 928.19, 32 919.04 M32 919.04 C12.23 921.94, 3.17 911.23, 0 887.04 M32 919.04 C13.8 921.97, -1.71 906.21, 0 887.04 M0 887.04 C-3.43 592.7, -5.12 296.21, 0 32 M0 887.04 C4.12 603.29, 5.56 319.86, 0 32 M0 32 C-0.75 14.29, 14.56 0.36, 32 0 M0 32 C-0.93 6.86, 7.89 0.62, 32 0" stroke="#1e1e1e" stroke-width="4" fill="none"></path></g><g transform="translate(15147.33625676468 15093.151005373244) rotate(0 357.167724609375 261.0903287211095)"><text x="357.167724609375" y="365.9442047355079" font-family="Virgil, Segoe UI Emoji" font-size="417.74452595377613px" fill="#1e1e1e" text-anchor="middle" style="white-space: pre;" direction="ltr" dominant-baseline="alphabetic">End</text></g><g stroke-linecap="round"><g transform="translate(4412.484725290091 11122.888427383774) rotate(0 774.5782503373939 305.50475096733226)"><path d="M0.22 1.65 C211.12 103.22, 1007.41 510.8, 1265.73 609.5 C1524.04 708.2, 1503.29 596.08, 1550.12 593.85 M-3.11 0.08 C207.4 101.98, 1004.85 513.04, 1263.5 612.3 C1522.16 711.56, 1501.76 597.92, 1548.84 595.64" stroke="#1e1e1e" stroke-width="4" fill="none"></path></g><g transform="translate(4412.484725290091 11122.888427383774) rotate(0 774.5782503373939 305.50475096733226)"><path d="M1535.64 616.11 C1537.85 610.4, 1541.67 601.61, 1548.71 596.41 M1533.62 615.33 C1537.3 611.78, 1540.81 607.95, 1549.06 595.44" stroke="#1e1e1e" stroke-width="4" fill="none"></path></g><g transform="translate(4412.484725290091 11122.888427383774) rotate(0 774.5782503373939 305.50475096733226)"><path d="M1525.86 602.08 C1531.12 600.74, 1537.99 596.31, 1548.71 596.41 M1523.84 601.3 C1529.57 600.88, 1535.22 600.12, 1549.06 595.44" stroke="#1e1e1e" stroke-width="4" fill="none"></path></g></g><mask></mask><g stroke-linecap="round"><g transform="translate(9691.481271060662 11621.795792613257) rotate(0 376.75248756427027 0)"><path d="M0.03 -1.51 C125.74 -2.19, 629.3 -2.65, 754.47 -2.43 M-3.4 3.84 C122 3.27, 626.09 0.05, 752.76 -0.12" stroke="#1e1e1e" stroke-width="4" fill="none"></path></g><g transform="translate(9691.481271060662 11621.795792613257) rotate(0 376.75248756427027 0)"><path d="M728.22 9.22 C734.74 4.13, 743.56 3.97, 751.13 -1.31 M728.88 8.59 C734.85 7.37, 740.66 4.42, 752.13 0.8" stroke="#1e1e1e" stroke-width="4" fill="none"></path></g><g transform="translate(9691.481271060662 11621.795792613257) rotate(0 376.75248756427027 0)"><path d="M728.15 -7.88 C734.79 -7.71, 743.63 -2.6, 751.13 -1.31 M728.81 -8.51 C734.65 -5.7, 740.48 -4.61, 752.13 0.8" stroke="#1e1e1e" stroke-width="4" fill="none"></path></g></g><mask></mask><g stroke-linecap="round"><g transform="translate(13203.775300429885 11621.795792613257) rotate(0 376.75248756425844 0)"><path d="M0.97 -2.43 C126.14 -2.21, 625.48 -0.21, 751.08 -0.19 M-1.95 2.42 C124.07 3.24, 630.28 3.81, 756.17 3.34" stroke="#1e1e1e" stroke-width="4" fill="none"></path></g><g transform="translate(13203.775300429885 11621.795792613257) rotate(0 376.75248756425844 0)"><path d="M730.95 10.18 C739.66 10.02, 745.24 5.48, 754.89 1.65 M732.62 12.61 C738.19 9.77, 742.6 8.97, 756.9 4.06" stroke="#1e1e1e" stroke-width="4" fill="none"></path></g><g transform="translate(13203.775300429885 11621.795792613257) rotate(0 376.75248756425844 0)"><path d="M730.93 -6.92 C739.56 -1.94, 745.14 -1.33, 754.89 1.65 M732.61 -4.49 C738.11 -3.5, 742.52 -0.47, 756.9 4.06" stroke="#1e1e1e" stroke-width="4" fill="none"></path></g></g><mask></mask><g stroke-linecap="round"><g transform="translate(21703.03094719637 11942.619114524312) rotate(0 -4575.51518760918 548.393227085242)"><path d="M-2.42 -0.19 C-821.18 135.29, -3386.52 627.91, -4911.57 810.44 C-6436.61 992.97, -8445.72 1047.62, -9152.69 1094.99 M1.46 -2.76 C-817.66 133.22, -3388.52 629.52, -4913.22 812.83 C-6437.92 996.14, -8439.95 1049.92, -9146.77 1097.13" stroke="#1e1e1e" stroke-width="4" fill="none"></path></g><g transform="translate(21703.03094719637 11942.619114524312) rotate(0 -4575.51518760918 548.393227085242)"><path d="M-9123.87 1088.17 C-9133.16 1089.27, -9140.51 1092.02, -9148.29 1096.28 M-9123.52 1087.2 C-9131.44 1091.46, -9137.13 1094.25, -9146.4 1097.26" stroke="#1e1e1e" stroke-width="4" fill="none"></path></g><g transform="translate(21703.03094719637 11942.619114524312) rotate(0 -4575.51518760918 548.393227085242)"><path d="M-9123 1105.25 C-9132.43 1100.62, -9140.08 1097.66, -9148.29 1096.28 M-9122.66 1104.28 C-9130.83 1103.31, -9136.78 1100.87, -9146.4 1097.26" stroke="#1e1e1e" stroke-width="4" fill="none"></path></g></g><mask></mask><g stroke-linecap="round"><g transform="translate(9736.811027618327 13471.071173671562) rotate(0 -1551.5821263689886 707.4211458659265)"><path d="M1.08 -2.28 C-400.17 91.69, -1892.13 327.83, -2409.9 563.66 C-2927.67 799.49, -2989.79 1270.82, -3105.53 1412.71 M-1.78 2.65 C-401.89 96.96, -1888.04 330.98, -2404.4 566.32 C-2920.77 801.65, -2983.32 1272.76, -3099.99 1414.66" stroke="#1e1e1e" stroke-width="4" fill="none"></path></g><g transform="translate(9736.811027618327 13471.071173671562) rotate(0 -1551.5821263689886 707.4211458659265)"><path d="M-3098.42 1388.68 C-3098.77 1393.48, -3099.7 1399.61, -3099.86 1414.55 M-3097.43 1390.79 C-3097.19 1399.77, -3098.74 1408.37, -3099.62 1415.1" stroke="#1e1e1e" stroke-width="4" fill="none"></path></g><g transform="translate(9736.811027618327 13471.071173671562) rotate(0 -1551.5821263689886 707.4211458659265)"><path d="M-3083.23 1396.53 C-3086.82 1399.72, -3090.98 1404.17, -3099.86 1414.55 M-3082.24 1398.64 C-3087.64 1404.69, -3094.82 1410.37, -3099.62 1415.1" stroke="#1e1e1e" stroke-width="4" fill="none"></path></g></g><mask></mask><g stroke-linecap="round"><g transform="translate(8869.817983325487 15346.970338659894) rotate(0 466.8295077533403 0)"><path d="M-1.66 -1.79 C153.37 -1.77, 775.6 -2.46, 931.29 -2.13 M2.63 3.4 C158.42 3.93, 781.84 0.34, 936.41 0.34" stroke="#1e1e1e" stroke-width="4" fill="none"></path></g><g transform="translate(8869.817983325487 15346.970338659894) rotate(0 466.8295077533403 0)"><path d="M911.66 7.27 C919.43 5.33, 929.03 3.15, 937.82 0.77 M913.67 9.69 C919.93 6.47, 926.49 4.36, 935.63 0.86" stroke="#1e1e1e" stroke-width="4" fill="none"></path></g><g transform="translate(8869.817983325487 15346.970338659894) rotate(0 466.8295077533403 0)"><path d="M911.61 -9.83 C919.25 -5.98, 928.87 -2.38, 937.82 0.77 M913.62 -7.41 C919.78 -5.85, 926.36 -3.17, 935.63 0.86" stroke="#1e1e1e" stroke-width="4" fill="none"></path></g></g><mask></mask><g stroke-linecap="round"><g transform="translate(13947.523583519882 15346.970338659894) rotate(0 466.82950775334047 0)"><path d="M-2.37 -2.13 C153.32 -1.8, 776.49 -0.5, 932.46 0.18 M1.54 2.88 C156.9 3.87, 774.57 4.81, 929.58 3.91" stroke="#1e1e1e" stroke-width="4" fill="none"></path></g><g transform="translate(13947.523583519882 15346.970338659894) rotate(0 466.82950775334047 0)"><path d="M904.58 11.65 C911.93 10.52, 918.86 8.99, 929.18 2.64 M906.47 12.63 C915.6 9.41, 923.65 6.12, 928.75 4.87" stroke="#1e1e1e" stroke-width="4" fill="none"></path></g><g transform="translate(13947.523583519882 15346.970338659894) rotate(0 466.82950775334047 0)"><path d="M904.55 -5.46 C911.8 -2.47, 918.74 0.12, 929.18 2.64 M906.44 -4.47 C915.71 -1, 923.77 2.42, 928.75 4.87" stroke="#1e1e1e" stroke-width="4" fill="none"></path></g></g><mask></mask><g stroke-linecap="round"><g transform="translate(3876.7928314482415 10626.8561474335) rotate(0 6602.329218481482 79.38526635221206)"><path d="M-1.19 0.18 C2199.95 27.33, 11003.42 134.41, 13204.5 160.75 M3.35 -2.19 C2204.32 24.38, 11002.1 129.61, 13202.17 156.81" stroke="#1e1e1e" stroke-width="4" fill="none"></path></g></g><mask></mask><g stroke-linecap="round"><g transform="translate(15736.23068104587 10075.10714627951) rotate(0 669.0756617678245 352.6589648892741)"><path d="M-0.16 1.97 C223.16 119.4, 1116 587.1, 1338.75 704.75 M-3.69 0.58 C219.42 118.42, 1112.52 590.88, 1336.84 708.08" stroke="#1e1e1e" stroke-width="4" fill="none"></path></g></g><mask></mask><g stroke-linecap="round"><g transform="translate(15219.655571359244 3276.0356926355817) rotate(0 -1117.0624044448925 640.5117843601229)"><path d="M0.6 -0.56 C-135.5 167.16, -444.63 794.4, -816.74 1008.34 C-1188.85 1222.27, -1996.01 1237.55, -2232.07 1283.06 M-2.52 -3.34 C-137.69 163.48, -439.6 791.06, -811.31 1004.72 C-1183.01 1218.38, -1995.99 1232.05, -2232.76 1278.63" stroke="#1e1e1e" stroke-width="4" fill="none"></path></g><g transform="translate(15219.655571359244 3276.0356926355817) rotate(0 -1117.0624044448925 640.5117843601229)"><path d="M-2210.81 1266.18 C-2215.07 1272.26, -2222.03 1274.81, -2232.5 1279.36 M-2211.24 1268.41 C-2217.66 1270.61, -2226.85 1274.97, -2232.55 1277.79" stroke="#1e1e1e" stroke-width="4" fill="none"></path></g><g transform="translate(15219.655571359244 3276.0356926355817) rotate(0 -1117.0624044448925 640.5117843601229)"><path d="M-2208.85 1283.17 C-2213.81 1284.25, -2221.34 1281.81, -2232.5 1279.36 M-2209.28 1285.39 C-2216.25 1281.76, -2226.11 1280.28, -2232.55 1277.79" stroke="#1e1e1e" stroke-width="4" fill="none"></path></g></g><mask></mask><g stroke-linecap="round"><g transform="translate(10611.85310487559 4616.87212240074) rotate(0 -3450.247485223307 890.4101886185163)"><path d="M-1.78 2.57 C-939.14 108.32, -4473.97 337.48, -5623.59 633.92 C-6773.2 930.36, -6686.82 1589.83, -6899.47 1781.19 M2.45 1.5 C-935.15 106.52, -4474.18 332.85, -5624.71 630.01 C-6775.24 927.18, -6688.44 1593.39, -6900.72 1784.5" stroke="#1e1e1e" stroke-width="4" fill="none"></path></g><g transform="translate(10611.85310487559 4616.87212240074) rotate(0 -3450.247485223307 890.4101886185163)"><path d="M-6895.11 1761.25 C-6896.75 1768.44, -6899.16 1776.38, -6899.83 1782.94 M-6896.42 1758.98 C-6899.45 1768.24, -6899.6 1776.4, -6900.04 1785.05" stroke="#1e1e1e" stroke-width="4" fill="none"></path></g><g transform="translate(10611.85310487559 4616.87212240074) rotate(0 -3450.247485223307 890.4101886185163)"><path d="M-6880.11 1769.46 C-6886.56 1773.91, -6893.78 1779.22, -6899.83 1782.94 M-6881.42 1767.19 C-6889.66 1773.7, -6895.1 1778.97, -6900.04 1785.05" stroke="#1e1e1e" stroke-width="4" fill="none"></path></g></g><mask></mask><g stroke-linecap="round"><g transform="translate(17684.47785778709 2172.6484809013364) rotate(0 -4032.028335239616 -66.46822223846266)"><path d="M2.05 2.03 C-1341.49 -20.49, -6718.85 -110.28, -8063.03 -132.57 M-0.27 0.67 C-1343.94 -20.13, -6720.71 -105.87, -8064.71 -128.74" stroke="#1e1e1e" stroke-width="4" fill="none"></path></g><g transform="translate(17684.47785778709 2172.6484809013364) rotate(0 -4032.028335239616 -66.46822223846266)"><path d="M-8039.63 -136.17 C-8046.33 -134.07, -8051.3 -134.43, -8063.66 -130.4 M-8042.05 -137.19 C-8050.18 -134.7, -8059.06 -130.08, -8064.18 -128.37" stroke="#1e1e1e" stroke-width="4" fill="none"></path></g><g transform="translate(17684.47785778709 2172.6484809013364) rotate(0 -4032.028335239616 -66.46822223846266)"><path d="M-8039.91 -119.07 C-8046.7 -121.02, -8051.6 -125.42, -8063.66 -130.4 M-8042.33 -120.1 C-8050.44 -124.37, -8059.21 -126.51, -8064.18 -128.37" stroke="#1e1e1e" stroke-width="4" fill="none"></path></g></g><mask></mask><g stroke-linecap="round"><g transform="translate(9621.310026591198 2039.7086120809108) rotate(0 -3.4309098959779476 319.67565563619246)"><path d="M1.03 0.37 C-0.29 106.79, -4.16 533.85, -5.84 640.59 M-1.86 -1.9 C-3.64 103.5, -7.27 529.92, -7.53 636.25" stroke="#1e1e1e" stroke-width="4" fill="none"></path></g><g transform="translate(9621.310026591198 2039.7086120809108) rotate(0 -3.4309098959779476 319.67565563619246)"><path d="M-15.67 613.44 C-11.74 619.91, -8.44 628.59, -5.61 637.3 M-15.72 611.87 C-13.64 618.44, -11.94 623.42, -6.88 637.01" stroke="#1e1e1e" stroke-width="4" fill="none"></path></g><g transform="translate(9621.310026591198 2039.7086120809108) rotate(0 -3.4309098959779476 319.67565563619246)"><path d="M1.43 613.54 C-1.02 620.03, -4.11 628.68, -5.61 637.3 M1.38 611.97 C-0.29 618.47, -2.34 623.43, -6.88 637.01" stroke="#1e1e1e" stroke-width="4" fill="none"></path></g></g><mask></mask><g stroke-linecap="round"><g transform="translate(17543.96684613039 11595.611374739326) rotate(0 808.6132686757078 -11.080371666278552)"><path d="M1.02 1.24 C270.02 -2.27, 1346.06 -17.24, 1615.04 -20.69 M-1.87 -0.56 C267.91 -4.93, 1349.87 -21.08, 1620.26 -24.91" stroke="#1e1e1e" stroke-width="4" fill="none"></path></g><g transform="translate(17543.96684613039 11595.611374739326) rotate(0 808.6132686757078 -11.080371666278552)"><path d="M1597.78 -17.58 C1605.8 -20.76, 1614.53 -21.04, 1618.64 -26.84 M1597.57 -15.47 C1603.73 -17.86, 1610.17 -19.87, 1619.33 -24.23" stroke="#1e1e1e" stroke-width="4" fill="none"></path></g><g transform="translate(17543.96684613039 11595.611374739326) rotate(0 808.6132686757078 -11.080371666278552)"><path d="M1597.53 -34.67 C1605.65 -32.1, 1614.47 -26.63, 1618.64 -26.84 M1597.32 -32.57 C1603.58 -30.33, 1610.09 -27.71, 1619.33 -24.23" stroke="#1e1e1e" stroke-width="4" fill="none"></path></g></g><mask></mask></svg>